<mxfile host="app.diagrams.net" modified="2022-08-29T10:22:51.859Z" agent="5.0 (Windows NT 10.0; Win64; x64) AppleWebKit/537.36 (KHTML, like Gecko) Chrome/104.0.0.0 Safari/537.36" etag="wH2Ax8dzXCNcDnMFTX7M" version="20.2.7" type="github">
  <diagram id="sBbOrpvXOrv8mFUJiIjG" name="Page-1">
    <mxGraphModel dx="1231" dy="643" grid="1" gridSize="10" guides="1" tooltips="1" connect="1" arrows="1" fold="1" page="1" pageScale="1" pageWidth="827" pageHeight="1169" math="0" shadow="0">
      <root>
        <mxCell id="0" />
        <mxCell id="1" parent="0" />
        <mxCell id="rKb5zj4-AGq2TKSWBkBP-19" style="edgeStyle=orthogonalEdgeStyle;rounded=0;orthogonalLoop=1;jettySize=auto;html=1;exitX=1;exitY=1;exitDx=0;exitDy=0;entryX=0.5;entryY=0;entryDx=0;entryDy=0;fontSize=21;" edge="1" parent="1" source="rKb5zj4-AGq2TKSWBkBP-1" target="rKb5zj4-AGq2TKSWBkBP-16">
          <mxGeometry relative="1" as="geometry" />
        </mxCell>
        <mxCell id="rKb5zj4-AGq2TKSWBkBP-1" value="&lt;font style=&quot;font-size: 17px;&quot;&gt;Model training &amp;amp; experiment tracking&lt;/font&gt;" style="rounded=1;whiteSpace=wrap;html=1;verticalAlign=top;" vertex="1" parent="1">
          <mxGeometry x="67.11" y="70" width="270" height="210" as="geometry" />
        </mxCell>
        <mxCell id="rKb5zj4-AGq2TKSWBkBP-4" value="" style="shape=image;verticalLabelPosition=bottom;labelBackgroundColor=default;verticalAlign=top;aspect=fixed;imageAspect=0;image=data:image/png,iVBORw0KGgoAAAANSUhEUgAAAu4AAAETCAYAAABp+YOQAAAACXBIWXMAAA7EAAAOxAGVKw4bAABJlUlEQVR4nO3dCXxcVdk/8HMvq+wKIogsyssiylKaFlHEtknLH9xlUUQRF0RUUFEQWYz78oK0nXtOQlQEcY/K4qsvuGAVWZJYUaAvW5fMOWcaSptJy1qgy/zPnSyTSdM2M7nnee7M/L6fz/mklDRzn2cm9/7mzrnnCgEAAAAAAAAAUNM6C9uI61btKtrtfqJt2WEiMk0io1uENO8Tkb1ASP3lUJmrQmkzYWTUJkOZ9lDqH4TSfLP4/ZF5l8jY6aK99yDxQ/sykVm8A3eJAAAAAAC16freHUX78ikunJ/vAvf1gTT/CaR+MpB2nftzIZER6RcCZR5zP/c3QtlLxPzsTNG+ZG/u0gEAAAAAUqoQuOD8X0LmzgiV+YYL0n9wwXqJG2vcWJ9YUN/y2ODeFDztvuYGw7y9WyhzZvFsPwAAAABAw1O9+4RRHNbNMqKAXslY695QnMXdIgAAAAAAHq2FUETmpFDaG104fiYFAX1zY7XI6NO42wUAAAAAQKujbycR2ZNdIL5pcL46ezDfytAPC5k9lrttAAAAAAB0Mtn3uDB8P38Yr2TYXwu1chfu1gEAAAAA+CeXHRgqo4LixZ/cQbyyISLzBe72AQAAAAD41VnYXijzyUDqJ7gDeNXBXZoTudsIAAAAAOCPMnNcYO/lDt6THGvF1Y/uxd1KAAAAAIDkdRS2E8p+Jkj3SjETHd2isxNruAMAAABAnWlfsnegzB9TELgTGaGy3+VuKQAAAABAstpybwikvps7bCc39JPxOvPcbQUAAAAASI4y04LIaP6wneh4SLTpl3K3FgAAAAAgGVLPdiF3ZQqCdrJDmZu5WwsAAAAAkAxpjwsi8xh7yPYwRGQu524vAAAAAMDkqd5jXMAd4A7Y/oJ7dhZ3iwEAAAAAJmfe0gOCyPyNO1x7G8r0iXnLD+BuMwAAAADApITK/Jg9XHscYaR/LDKFHbj7DAAAAABQPWnOd+F2A3e49jmEzJ3B3WYAAAAAgOrJ7PEu2L7AHaw9j2dFZF7J3WoAAAAAgOq0Ltg2kPpfKQjWvsdS7lYDAAAAAFRPmotSEKq9j1DZn3O3GgAAAACgOvHZdmXWcIfqSYyNQTzFR9mnAqmfcH/WQ3d6zQfSrit9n35SyNwHudsNAAAAAFCdSLemIHxvaayPl3AMIn1XKPUPhNLnicg0iUx2iojskSLqPVxkzMHFJR7V8v1FJvcqoXr3EfOeeIVQK/dx3/uuUJqvu+99v+jo24m73QAAAAAAlZP2lMEz1ezhfLyxNl5PPp7GI6LcLNGmX8rdLgAAAAAABoUgkPruFAT0seP5MNIZ0d57EHeHAAAAAAD4KTMnSNea7U+HUt8g5mffKFoLIXd7AAAAAAD4ZfK7uaDclYKwPjyWCGlO5G4LAAAAAEC6tNn3pyCsu2E3hNJcJ65asTN3SwAAAAAAUscF5j/wh3azQSh7KXcvAAAAAADSKbPsaBeaeddtj8wLIrInc7cCAAAAACC1wsj8kPtsu5D6s9x9AAAAAABIr+8+sqsLzs+whvY2+37uNgAAAAAApJvSb+cM7aEy3+BuAQAAAABAyhUCF5zZpsmEUn+HuwMAAAAAAOnX3nuQC9CLmIL7ItGxcDvuFgAAAAAApJ/UH+IJ7fpJIe0p3OUDAAAAANSEUJpfMc1rb+euHQAAAACgNrQWQheiDX1wt0+I+fYQ7vIBAAAAAGqDWrmPC9LrqYO7aDMf5i4dAAAAAKB2qOzMQNmNxGfbs6J10fbcpQMAAAAA1A6pP0s+t13qDHfZAAAAAAC1I7N4h1Ca62mDu14jZO9x3KUDAAAAANSONv2aQNr/kJ5tV/on8RsG7tIBAAAAAGpHRre4MP0cZXAXMot12wEAAAAAKiLNp4jnt/fjbDsAAAAAQIVCaa4lDu63cNcMAAAAAFBzAmnvIQztG4XUF3LXDAAAAABQWzr6dgqkzhIG92Vi3rKjuMsGAAAAAKgtkT0yUGYN6TSZ1sK23GUDAAAAANSWjD7Phel1VMFdSHMZd8nUBqci+R/cdQIAAACALx0LtwulvZHwbHtBKDOHu2xqFH0Nlfkld50AAABQ54499tj3Tp069Urfwz3Of3HXmjpze/cIIvMgYXB/Rqjl+3OXTeoa+xKiTzIu4i4VAAAA6txQcC/4Hgju45B9B7rQt5YsuEf6PqFW7sJdNqk2+xaS4K70CdylAgAAQJ1DcGcUmSbCs+2FUNofiNYFjXVhqrQXe++tshtFR2E77lIBAACgziG4M8rocwmD+/r48bhLphZI/RuC3nZx1wkAAAANAMGdTyiNpAvu+ilxbe5o7pqpudqN/08ydIa7TgAAAGgACO5Mru/d0YW+2wjPuPfGj8ldNqnBawi891ZE+gPcpQIAAEADQHBn0maPCqR9lCy4R+Zv3CWTa8udThLcr7WHcJcKAAAADQDBnYnSZ7vQ9zRVcA+luZa7ZGqu5qsJeruCu04AAABoEAjuPIhCZemscAOuMx4ocydBb3/HXScAAAA0CAR3Hi7w/Yk2uOu3cddMzdX9PMEboiu46wQAAIAGgeDOoLNzGxf6coTBfYmI+g7nLpuUMtNo3hAtn81dKgAAADQIBHcGHX17BZF5gSq4h8r8Uszt3YO7bFKZ7KdJgnvH0t25SwUAAIAGgeDOQJoTCc+2x9M5LhOthZC7bEqh1DcS9PYB7joBAACggSC4M5DmfNLgHpmTuEumFkj9iPdPMiLzQ+46AQAAoIEguBPr6NsplLqDMLivF5ncq7jLJpV5/OUkb4iUPZe7VAAAAGggCO7EMuZgF/p6yIK7sqtE64JtucsmJfXbSIJ7Jnc0d6kAAADQQBDciSkzJyBYpnDU+Cd3ydTCyHzNf1/tU9x1AgAAQINBcCcm9WcJQ3t8x9TruEum5uq+3X9v9V+46wQAAIAGg+BOywXpH1EG9/hCWO6aqbm6BwjeEH2Tu04AAABoMAjutAKp7yEM7kuEzB3PXTOp+eb1RG+I3sldKgAAADQYBHdCHQu3C5RZShfc9V9F+4q9ucsmJc1HSIL73Oy+3KUCAABAg0FwJ9S27DAX+tZQBfdGXGc8lOZakk8yAAAAAKghuBNS+mwX+tZTBffiHVMbTKDsfQRviH7OXScAAAA0IAR3KoUgVEZRhfah4N5Y87DVol1I+qrsZ7hLBQAAgAaE4E6ktXdHF/q6yYK7MhuFzB7LXTapKDuL5g1RtrEu+AUAAIB0QHAnEtlTXeh7lvCM+5OiLXc6d9mklL6UoK/rRWfnNtylAgAAQAOq++Ae9R0upL5QKHuJkOZTDOOiUOXiO3k+Shja47ExXnoylPqr8U2fmGofNbIXh8p8Q0T6A6Jj+QE+nmpX803++6rv8bHtAAAAAFtV18G93e4XL4lIHJgxtjzWishc6ePpDpTN+d7+UJq5PrYdAAAAYKvqOrhLc2IcFFMQVjFGhn5RRPaCxJ/rNv0aiu0XypyZ+LYDAAAATER9B3f9Qf6gijFmLBdKn5D8c23eRxLcM+bgxLcdAAAAYCLqOrgrc3kKgirG6KHs3aK1sG3ST3WozDXetz3SfUlvNwAAAMCE1XNwD6XtYA+qGGXDBWwvd3N1P/su79uvzM0+th0AAABgQuo5uAeR/j13UMUoH0LZTyf+RLcWQvez13nfdqm/lPi2AwAAAExUfQd3s5A7qGJsEn5nJ/5Et+XeQLTtzYlvOwAAAMBE1W1wLxSCQNosd1DFKBvPiWvtIYk/19JeSBLcv/vIrolvOwAAAMBE1W1wV4t2cWGrPwVhFWN4RGahuH71Hkk/1aG0P/W//fbfSW83AAAAQEXqNrhHK17tAtcz7GEVY2SEUs8VnYVtkn6q3c9e7H/bbUfS2w0AAABQkboN7hndEt/shzusYoyMdaLNvCvx51n17kOx/SKyH0182wEAAAAqUbfBPdIfd4FrQwoCK8bgyIu52X2Tf57NO2iC+9IjE992AAAAgErUZXBv7d0xlPo7KQirGCPDPuzjqQ6V+QbB9q/2se0AAAAAFanL4D63d48g0p38YRWjNPSvfTzV7nn+s/dtj8wffWw7AAAAQEXqMri32/0CZe/jD6sYw0NIc5mPp9r97Cd9b3sozdd9bDsAAABAReoyuMvHXxdEWFEmRWO9lwtT2+xRFNsvMvrtiW87AAAAQKXqM7ibE1MQVjFGhn1YSP265J9n+zGS4N6+Yu/Etx0AAACgUnUZ3KPsqfxhFWN4hMr8UnQs3T3ppzmU+gcE2/9o0tsNAAAAUJW6DO7KXMkdVjFKI34+fDzN7mff73vbQ6V/4mPbAQAAACpWl8Fdmsu4wyrGqOAuc8cn/hxn8ruRbHukL0h82wEAAACqUZfBvWPhdqE03xLKfF5E5hPxzZiEsuf6H+aT7rEuCSL9exf61pIG5MjkXc3fFJnsp2lq3cqIex6ZK4XMvtvLc9y2vIUkuLfb6V62HwAAAKBSdRnceQUuwM9xoW8R7VlteyF34aQiczlBX1/gLhMAAOrY0Ucfvd+UKVNOdEHpXU1NTWe78WkXmC6Lh/u7C93XD7uvp7u/P9l939Hc2+vLUUcdtber73hX79tcre9zX891Xz/nar/Sjc/HfXD//U739c3u6+vd976Se5u5ILh7oOx/udD3OGFwXyM6+nbiLpuSq/lWgr7+g7vONJj5z1WHzerun9XS1f/O5p6Bs5q7B85r7sl/vrkr/+VZXfkvzOrOf8z9+bT4e5p7+qfN7lp5yJy7sRIPAECZ448//mUuEH3MBaLr3Nd73XiyikC1dujfznc/5xwXYA/krqtSLnhPd9t+sRs3ujq63Vg9iYCZdT/vl+7rF9w4jrs2CgjuHrQvn+JC3way4B6ZbtHZuQ132ZQo3hiF0nyPu05Ks+5efWBzV/+nXCjvaO7O3+FG1o3CZIYL9g+7n6lmdQ+cefJ9T7+cu0YAAFIuAO3lguVH3fiLx5D1LzeucI9xGHe944k/VYg/SXDbeJMbazwHzn73WD9xofM93HX7guDuQSb7VsKz7S5g6g4hCgF32WTmLz2Eoq9C5s7gLtWn4++xL5n1z4GTm7vy813IfnSyIX2C49H4jUEc5Gf0rNyHuwfkWguh1wHQKFw4+4rPMW3atGMmuX0nu/FbioA1ZixyIxWrKkyZMqVp6Gw4dQ+Gx3I3Lj3iiCN24e5FkhDcPZD6i4TBfa17vA9yl0xKZc8iCe7tvQdxl5q0kxcXdointbgA3enGs0RhfQuj/76Wnv4r3DYdwd0br2T2eBGZT7rf1c+6N4T+hrKfEZF9v7hqxc7cJVcsk53i+vQRocw5Qpr3jRrvHBmROSm+hqg4Ijsjvtne4HD9VWZaccjssWLesqNGxnzzetebQwfH0kOFWr4/d6kViz9RldlTBvtjzxrpTWRPHelNW+6tI73J6JaR3mTMm0d6E482W+pN1Hv4SG/mLTtMFCZ4AijeNyrbWtGIn69h8Z+H/34i+9n4NTH8/cMIQss5FT5NxakwLqhe7v59L2NYHR4r3fhyvE2V1jFZ7nFPd6MrBT0YHk/FvXCjLuYUI7gnL5TmR4TBfXlxp9tAQqnnE/TVcteZpJbugbfO6s7/Kh1hfbPjsZbu/gvevrD+rtdw+4Sr3WvqeZp9gs0KlZvJXXNFOrL7BlI/5Lb/BTcGxox8adh+93W8sao07Er3dcywTwyN+L/XcJdbMZk7I4jMM27bn91sb6Li1wn0Z5y+RHHfrS4G/YlwwbvS12UY6a8M//P4zyN/r+y8rT1c/JwNf//IX6YtuLvAfsnUyc3V9jXWxhe6VlJLtdzjTE1ZYB874jPwH6LohU8I7skLlP0rzQE6HvrforWwLXfNlAJl7vXe18j8lrvOSSsUgpae/BkuEC9KQSivZKye1dX/7XqaSuOC+9fd7ypRcHfhps1+gLvmSgy9saHaZ74orn50L+6aK+H2RwT7PH2HuLpvYn1p7z0oDt9jx/DPcs/nDWP/3+gz7qO/143eLT6WMueUvbaHEYSWcyby3LjvO8t9fzYFoXRr9dzt60LWeEUY9xg3uLGRu84JjviC2GN99IICgnvC2u1+Llg+RncQMrdyl0yqY+F2gbTeL/wVyl7CXWrVajewj51G83xzV/7qE/6x5qXcLZ00pc91b+ifotoviDbzCe6SJ0yZaQHpKlx2XXE6Ta1os2+J32x47suG4nSbSRp5/Y2eFjOOUcF9zeD3m3dt4WfeMvS9/yl+7zCC0HLOloo47rjjdmtqarotBSG0kvGU2+ZE59a6n3em+7nPpqC2ap7j6+LnMcl+UEBwT1ikTw9GfaznezTayidCLX8jSfDZyoEnrVq6Bk6o/cC+yVjjQvxl8cW03P2tWsZODwanNtAEd2kv5i55okKpb6Tqy9BYX5wfXiPc9t7uvyf6L6JNT/oN8kT3n8PBPT4zP/x13G+c27vH0M+8JZ4CVvzZwwhCyzmbK8D9/4PdeIQ7eE5itMXPVzVP8ujn0f2cq1JQy2THA/EnBpPsBSkE92QNfeS7kewArexHuWsmFZnPkfS1xtbFb1k4sPusrvz3XcjdmIKg7WvYlp7+2lzha96yVwSEZ5WLd46uBZE92W3vk1R9GRobi3eZ7iykfwndwTd8L/juh9uvviOJzR3Zf040uA9+jc+krx73G4emyYyeLjPy/whCyznjbZP7+1lTq1t/PW3jpzNmzKhqnm18ltr9+ztSUENSo/eYY445qJpecEBwT1ChEJDOb1duh9tm38JdNiV3wP2F/97qf3HXWYnmroH3uVC7IgXBmmrcPuPe1Qdx970irYu2d68tTbVvCJVR3CVvVWbxbgHNjdTGGzfF0+64W7A1bh9/M8H+7o74zHYi2zv0MysJ7vFKS8V/E68cs+nPG5weUzrzzhvc3d+dkYKQmeT4faVPchxw3b9bkoJtT3qscM/vayvtBwcE9wR1FrZ3O9oc3cFHZ+O7tHKXTcnVvdR76JGmjbvOiZix8Km9mrv7/ycFQZp+dOV/yd3/SgUR3bUvm516kCbSvI9uXzlmRObB+M0Udwu2SGVfG0Ta99n2QlJn22OlnznB4B6vKNPee9DQv7ul7JuG/n74tTzys4cRhJZzRm9PU1PTaSkIlz7GHyf6BE+fPn1P9/2PpWCbfY2VU6ZMSf3axAjuCVIr93E7lvVkBx9lfxufteIum0x84S9BX8c785M2zV2rZjbYWfbh8UJzT/+F3P2vhvt99b8yyMiwv+aud4syi1/utvPvdP3YZAy4bdiBuw1b4rax038f9B3iulW7JrjNg/vQiV6cGpm/Df274gWoZWf+h8/ED124OvKzhxGElnOGHyu+C2cKQqXPWr+7tSd3aHrM/dzbSjBWpvUOtMMQ3BOU6X0D5cGnli5AS4S07ybpa0an9g331IWF7Vp68lc11/dc9s2N3pndq4/mfg6q5cL0b+j2D/YP3PVukTSfotxXjtOfdaleErJj+QEBwbr/SZ5tj5V+bmXBfWQue3yDspGfVbwYdU3pv4d+9jCC0HJO/DjTpk17YwrCJEVI2+Ktwt333Mm9jYTj0akpvlkTgnuCouxHCQ8+G9xObjZ3yZTCyH7be18jk+euc3Pm3L1ibxdeF6YgQHOMm2YsWFnTd60OpZlLGEwXiBtTevdUuezAYGjuMtsoXh+kp3K3YnPca0US7OvuFSrZ36nhn11xcBfDN1nS/y7+h8odE///0TdnGvnZwwhCyzlHHXXUzu7Py1IQJCnGc24cOd4T5v7+5hRsH+loampK7XxMBPfk0B6YzXPx1BHumim5MHIHQV9v465zPLPvWvVKF16XpSBAU48XZnX3f5q7/4kY+uifaHSnNphKcwVhH8YfcXCP9OncrRjX4DSiZ3z3wIXrU5Pe9FE/e8YWv3H4d2FUcB9eGnL45k7FP7sAv8nPHkYQWs5xX9u5AyTxuH/sc+UC7EdTsF1c42NJ/GIkDcE9IW36pQHJersjY6VoLYTcZVMauuW3176Gkf0Kd51jzele82oXYHUKQjT1qOmpMZuIsqcGg7efpwimfSLqncFd8iZk7lC3fZZwP7n54OreQKTxrtOh1N8hqL9HXJP8fRFGeru14O7+f/F7RwX34b8bCvX/iafKjPuzhxEEl5+nIDhyjPOHexzfadX99zMp2CausSa+IDeZX4/kILgnpM282R0sewkPPD3cJZPKZKfQHMztKdyljja7a+UhLsA+kYIQTTwGbq71qTGbiD/+j0wfXTDNvY275LFCZa8i3EducYTS/lS09u7I3ZMyV/ftFUjt/QZ+8ZtIH5tf+vlVBHcxMq+9d/D1W5rvXvazh6Ug1NXrGDjyyCPju3EFLrjdnYLtYR1NTU0ysd+QhCC4J0Sa891OxfdtqUsHncj8kLtkUkqfRxJ2UnTBWnP3qkNdiM3zh2jaUTdTY8a6btWuAcFypiOvZWXey11ymcg0BVSfOExo2AfSdaO1QkAyjUjZ+3wthTny2qsyuI/MfZeDU2bG/dnDuANdnQ/lQtvFKdiONIz1aQuwCO7JIJ7fHn/M+ynumim5/l7nv6/6Ye46hzV3P7Vnc+NNj6mvqTFjxTdok+Yhsn2Esudylzza8BzmFI3VSV+cOSmD0y2Xe39dRDlvc/tLj1FdcB9Z033s3wsEdwzeccvYFyQnBPdkBNLeRnjAsamcv+pRoMyDvvualpvWzLl/xc7N3f33pSBIE446nBozDvc6+yfVfmLsVANWUs922/Qs4T5yImNDHJa5W1NUiM+22wu916zMYz5vPDXy2qs2uE/kZw9LQZjDaJyxsamp6fXV/mIkDcE9GbTz2/Vd8ZJq3DWTGTwT5T/oKPNJ7lJjLsjezh+kxx35Wd35B1u6839s7spf78L2LUn83LqdGjMO9zq7lWo/IZRt5a53mNueP9HtHyvoUWSauHtTFO/jlP8764qMPttnGXEQL4bxUavBjKua4D78s4elIMxhNNb4ebW/GElDcE/A9av3cDuhJ6kONmFkfsRdMqnInNQoB/GWnvzcFAT0eKxo7u7/XUtP/xXNPf0tb7pr07sruhB/+iQfYynJ1JjIvMsd8P+YhlWYwki3k+0npP5v7nqLZPbdQaRfoKq7ot95ad/N3Z7i2XZlz/Vfr+4VnYVtuMtNTAqCHEaDjaamptdwv+5jCO4JkLnj3Y6R7MDkDoSNdcdUZa4k6Ota7jJndg2cwhzWn5rVlf/+zHv7j5vI9jb35N9b/WMN3Pz2hZ4vDMws3iFUZiQouze8X/P6eBMx6uI73yMVU7+u793Rhfb7qGqufF+qvyQ6Fm7H2qOOpbu7benxXmtkPsxaZ9K4Q1wFI77j6Pdc6DvVjRljR3zHUjeumdoYdyaNb/L0Vze+42p/x3j9iNeNd6PDfc99KdjeseNK7td9DME9AfGKMspuJDvYtC1v4S6ZUiDt/3jvq5r4R7Y+nLRw1b4u0PbzBPb++1q68h+pNEhXf8Z94DxffRzRtvww97wuGvM8b3C/qyd6f+wtkfZjgdQkn865Ny38N/5TOj6TvJ5q31hxj6T+AfvKMip7FkGtS9LwiVOiUhDiNjesG99y4XN6NXW5sPQG9++vdmNlCmpJYvS68TVXV8V3hHP/bif3705yX693Y20Kanmomuc0aQjuk3TV/TuH0vyI7GAT3/FvzDJZ9c7VvZLgAM43raBQCFyg/QdDaH/EBfaq13Ou/Ix7/5KZPfnXJdm6cUX2o8HmL4R8nPWCRGlPiW+ORLS/4F0IYfDalGVk+8bqxn9EZvFubD1yjx1E5k7fdYqMTtUKQ4lIQYgbOx5xYf3MJGt0wentbvwtBbVVMx5w2/6epHpxxBFH7OJ+5sfceJSzLlfTa5OqqVoI7pMk+w4MNj2z53M8Hq8HzV02mbZlh1H0VSh9GleJzV35zxAH9idmdecnfSfnSs64t3Tnf+591Ri1chf3JvpXW3uuQ2k7vG7HlmQefznhhex/YqszJu3FgbQbCPeN1YzVvG/kzPv812gfrbuz7bEUBNPR4wrPtV6YghorGZ/31YsZM2bs6ALltVy1ucdmv+ofwX2SpD0uIJzfHkj917q6wGhrZO6DFH0V85YewFHejIVP7eWC7VNUob2le+DGpAL0BM+4P5fEm4StatNTAznhQLzBva4O9b5N43G/uxRLmxaHMneK1laewHaNfZnbhmfo9otVjw0is/jlLD0qzm3Xf/H8Gtgo2swnWOrzLQXhNB5Lm5qaplDUO82Zmv7pMzm3mf4/VhXF5/9DTDUuoKhvSxDcJylesYLwQBMqcw13yZRCZSP/fbVZrvpaevI/IgrtT7f09Cf2qWVs68G9f8nMf646LMnHHJcynw8qvWtxZH/vfbs2I6Bayz3SC0WHOZijxnjqGeV+cTJDZLIkuWsT0rzTf336YfaLb33hDqku1NwaT9+grPnoo4/ezz32/3HXvplxvwvt+1D2wz3mCW48SVznM5Q1jgfBfZIicznhQeZZ0WY/wF0ypYBgtQU3Ojlqa+7pn0YU2ntaFg4k/onCFqfKdOV/Gd9IKunHLNPRt1e8zGPVgU3lZnrdvs0IqNY0j8yDLBfjzi3e/XIt4X5xUoNlSUi1chf32Ld4rm1Dqm7ClTTmkPorrrqnT5++p3v8x1IQ1EePfx155JEsc87cm4Vj4jBNWW/8mBy1DkNwn5xQ2p/RHWSsERl9BHfNZDKLdyA5cEfmCxzlxYHae2jvyf/p+HvsS3xsf0tP/ozxHnNWV97/snMudAdSPzGp5z4yC71v5zjcPuNGon3GeiFzbyOvLzI/p9snJvD7Ly398rqRPdl/bfohn3dJZccVUuOLRblrH5o2wx3Wh8f9buzO2Q/3+O+irLmpqcn/0mhbgOA+OW4H+Q+6g4y+py4vMtqcjHkzzYGb/qzk7J7+Zv9n2gdumbqw4O1j8nGmyjzifWpMZ2GbUJlvuOctkYseRVv2rV63dxxhpL9LFkozJtFFLrYq6j3cPe46un3i5Eco9bXxGXDKNrnH7fRc13qhzOcoayLHFFJXuLEXd+0xF6q+m4LQro877rhXcPci5sL0T6jqji+O5awVwX0S2u1+AeFyZy6w/Ji7ZFKDc5cJws3iHahLi8+Eew7una0Fv2/yRgf3Wd35X81Y0Lujz8cTavn+QWTuTfj5/5fXbR5Pm72Aap8hlKY7MdTZuQ3JPReSH13xxbRkfVLZme4xBzzX9BDHfo0UU1Cdw133sHh1lanMU2ZcWE7NTWXi+fVTB2/wRFE765JdCO6TENn3uwPV02QH4Uhfyl0ypSDSvs9KxaOHuq45/xx4vefQ/g/foT02FNyfbe7u/5Dvx4rPjLvnao2X3yupm71v/2iRPdU97gqSfQblXZaVPiFI6JMQ4tEv5i0jO2kYn4DxXM96EWVZpv+RYgiqP+Cueax43XjG4M42z39zpg7euIqi9iWcdSK4Vy+M9Lx4uS2qA0x8wOeumVIgddZ3T0NpJHVd8ZrmHkN7/+y7Vr2Soo744lqSVWPm9u4RbP6GSgkMfYf3GkaT+nXuMXsp9hmhyn2NpKbW3h3jpWqp9oWJDmXXi0zuVSR9Ki4fbD3fUE4/xH43WAoMQXVf7prH47Yrx9CLtfEKN9y1jxU/R1Q94KwTwb1KHQu3CyLzN7oDjDu4RKaJu2wy8bQIgr6KjD6bsqyT73v65S5cb/AV3Gd2DZxCWQ8ZZc/1+jpwrzeyWlyoco/5fxSv7zAyEUlN8dKG/k5ixMtner1XhlA5kkUiQmnmen7O1wvVIJ/MEgfVedz1bo7btqsYgvuV3HVvjtu2PxH1gOXmLzEE9yrduGJnF9ypbl0ejyVkZ4XSYHA6gfe+irbl/s8Yj+LC9UW+Qvus7nxdr/Hvnq/bvb0OpP4ScS1dFK/vUNmfeC+meCMhb29ENghl5vg+SSIifbr3PrXb6e6xlvt9znU8t30377WkAWVQnT59+qu5690ct33HUQf3tFyQOh63fR+j6EFTU9N0rhoR3Ks0b+kBAeF8zniJtYb4+HMIzQ1c7ErqumZ15R/2Etx78stPXlyo74vRMo+/PPB3Ud8DlKUEyvyZaN9xi99KCoGQ9mMet/+u+CLLUJprffaJYk54/OmH5/3ZOvcG9Iu+60gNwqD6B+5at8Zt4xrCftzMXe+WuDcVryLqA9uFygjuVZJ6NtGBd/DAoswnuUumRDINKdKkd8+c3bP6GF9n21u6+0mn/LBR9ix/4a33cKoyXBD9BdG+43avhcQ3wfJ1LUpk1onIzig+jjSfioOprz6556NNXPfIrt76pHLHuMfJeX6uF5GujsONKqi68HIud61b47bz91T9aGpqOo273q1x27mE4HVxBld9CO5VKh5ISA688XhRyOzx3CVTcjU/57uv7s3Xlylrau7KX+3pbDvp2WJuLig+4iW8RforVDUQzHUeHn/3VkR8TwlpLvO37foPxTP6MWlOdH/3vMfHuiP+RMdXq/x/gmjXcd1Ijg1VUJ2a0otSR3Pb+B2iXjwbL0PJXe/WuDcXvyUItR/nqg/BvTpuR5whOvDGB5U1Qub25K6ZTJueStFXd6A7ibIsX9Nk3M9NzdLCJCLzXk+viS7CGi4n2Xcoe2+8vrqXGor3sfC2QsrzIpOdMvJYqnefwO+b+QFv1xDNN68PvM9tN//n841HKhEF1ce465wIF1TPJurHAu5aJ8IFzm/47oXr+SWM9SG4VyqT383tKBeQHHgHx2LukklF5pMUfXVvEF5KVdKcnvz+nqbJ3EtVQ2oUCkHg52LIjfHSkyQ1KHMO0b7jP6JjIPm7kbcWtg2Vnedru0OlfzL28QKpn/LXp3hJSHNw4n0S8dx2+22/z7HbduKLq1OBKLjcyF3nRLgQOYMouH+Pu9aJcP04jyC4f4WrPgT3Kkjd7HaWhujAW4gvZOMumVIozQ0EfV1EWVNz98B5Xs629/SfQ1lHaihzpo/XhVD2PSTbL7OnUNynYHCVEfPmxLe/Tb8m/iTQ03Y/J6K+Ta43cPvcf/vslWizRyXep/begwL/Z9sXiciQ3LshVYiCC90dzCbBbevBFP2Iz+xz1zoRbjvfgeCO4F5mcH67x/mW5SOeD8tdMiVX80MEPf0RZU0uuN/sIbg/W/cryWzONfYlgYepE/HqJSTbL5cfG5Cs5a6zLtS9K9Ftv76wY7zKlZftVWbj5p6DMNI/8dkrIXXy15pJc0Xgd/WxDSKybJ/YsyIKqu/jrnMijjnmmD0o+jFt2rQ3ctc6ES5wvgHBHcF9NP/Leo05oETmw9w1k5G5PUl6qnLnUZblQvbqxIN7V7+irCFtXMD7mYfXxn9INr61EAbS3k3zWrdnJbrtkX6T23Zf01ae3uyUFWUvdf//RX99Mp9PtE9zs/sGkV7h9/nVj4j2xw9KdLtrBVFwSf7jKk8o+pHGu6WOx72ROQTBHcF9NLfD/BPFAXdoLI1v3MFdM5niFAKCMNO+fMrWNyYZM3pW7uNjmky8vCRVDakUmXd4eG08LzoLfi7mHINqLXcXtC9IbKOvun/nwNeNsJTZ6La1dbOPHd+dVZpnffUpjIxK9F4ZUn/R/dz13p7buF9Jv9moJRTBZcqUKTWznJvb3gGCnuzFXedEHHXUUXsjuCO4jzi9c5tAWktxwB0af4rP3HCXTSVeko+gp89Q1tTSnT/JQ3Dvp6whlVoXbe/jgkWq9dzdfuTXFPsQIXPJXbjYljvd/cy1XrY10iu2uLKL7DvQ7wWq5tZ49ZpE+vTdR3Z1P2+p5+f2oXgOfSLbW4sogkutTA2Jue1d7bsf06dPr4nl7RDcEdzLtK/YO1CeDlzjjFDa+dwlU3K9/V//fdV/paypuXvgkuSD+0Cqb15HJYjs75N+fQilSe4v4n63Jc0+xHwzkQ2+ccXO7vfzTl/budWzx50F90bN251z47FKRNlk7myv9Hk+bxhV7FcjriQzGkVwceHsTdx1ThRFcD/uuONewV3nRCC4I7iXUdk3Bj4//tw0RJDOxebmau73HmSU/TZlTS3dAzcmHtx78o37EfkoLpR+3UOAvJJk46X9MsU+JIx0ezLba84P/M0xXyQ6tv7JYuD1gt54SUh9xKT71Nq7o/t5iz0/r0bMbeCz7TEE93II7iUI7gjuZSJ7AcXBdiRESHscd8lkVN9riXr6bsqyXND+u4epMjUz9dIrqc9I+vXhgu73SbZd6XMpXu+hMr+c9LZmcq8KlFno73fSnD+RzQik/h+v+wZlpk2+V/rswPPJnXj+fPHOtY0Mwb0cgnsJgjuC+4hMfjdvy6CNP9ZR3iSIHdFNaeI7PlKW5UL2I0kHd8rtTzWZOzTx14gyNNOQouypgceLLUvD3jbpbfX66YC9e6J3hnZvqrzezEhE+vRJ9al4oyjzH7/Pp16R2JSeWobgXg7BvQTBHcF9RMYc7HacD/g/0I6MZSKzuGHW6Q6laSPpKTEXtNckHNwfp64hzTy8Ru4i2fDIzggi85j313xk/ja57ew9PFDW23aKNvuBCnr2ARf0n/a2LdJO7n470r6bYG47zrbHENzLIbiXILgjuI9Qy08IPNz0ZfND/y6+vTt32VR8fhQ/PNybg19Q1jR1YWE7D9Nk/k1ZQ9q55zXpuxg/SrLhc3v3cI/1L+/7kcjcO5nNDJVp97h9t8V9mPDGZPQRgccLVN3+QVbdqMG1+bv9Pp92pZDLDqx6G+sJgns5BPcSBHcE9xFq+Xu9H2RHH0Qi8zXukskM3gnTe0+FMp+jLGtOT35/D8H9dsoa0i5I/oLFVXTbbv9C8Lr/V9Vr00emKZD6CU/b9WS8NntF21PcT3jbnnhJylurXn43/gTF99x2pS8Vra042x5DcC+H4F6C4I7gPixU5msEB9nhsUYo+x7umslEvTMo+hrf9ZGyrDnda17tIbjfQFlD2rnnNemznHm6bSdYy12ZB8VVK3auZvtCqX/qb9vsr6vqmbKPeNumyGgxf+khFW9UoRC4f/tHz8/lgJi39IBqelaXENzLIbiXILgjuA8LIp34mtFbGItF1EdyI5hUiOwlBD3dKDoWbkdZlo/gPqt7IENZQ9p5OGtNdsY9lPYHBK/7R8V8W3kYVWaO+7drPG1TXmR0SzU98xyQNwjVW/kdiaO+psDfUpnF4Z6Pyxtp6uRWIbiXQ3AvQXBHcC+K75iq7H0EB9nBocyfhWicnbQLX78h6GsXdV2zu1YeknRwb+nJ/4i6jjRzr52ElwjUT1BtexhZr6ukDNXTK6Q9pdJtc//uD762KZTmuqp7pozy2S+h9AmVbVHxbPvNnp/DNWLecpxtHw3BvRyCewmCO4J7UZR9tQvTOf8H2aEDm7IRd8mU3IHPeu8pw11om7tXHephqkxVUwzqVXzxZcKvlRVkGy/1Zwn2Jy+ISE985ZaYMmcGvi7Ej3TfpNZLV/YzXleWyWQrm6IY9R0e+D7bLs0VjXQiZ0IQ3MshuJcguCO4Fw3e6IVgzeXhHbX9GHfJZOb2HkTSU2XPoi5txr2rD0o8uHfl/5e6jjRzz+2yhF8rdEuGttn307z2zScnvE3F1VHMXb62JVTmmkn1TJoT3c9Z5a1XkfnChLelUAhCqW/0/Pw9LX6Qe9WkelaPENzLIbiXILgjuA/unM33AmU2UhxkBw8e2VncZZPxcPfLcXtazTzfSXrTXat2TXyOe1eeZp3xGhEkf7azm2zjpZ4deF6JpPjaL56xneg2mfODyPhai9wKufTQSfUss3g393O8ffpZ0ZKQgycdvC4RHEbmG5PqV71CcC+H4F6C4I7gLjKFHdwOdIHvg+uo8bxQfa/lLpuKO1Be7b2nkaab/jCGC9svJBzeDVctqTMY4pJ+vdxKtv0yeyzFtTMu/F01oe1p0y8NpH7Y33bYbyfRtkB6XFlGmltEZF651Y2IT+goO8/zc/ecuIb2Ts81A8G9HIJ7CYI7grvbcb4sUP4+mh1nLBKZx1/OXTYV19s7CXpKF8bGcEHbJn3W/aR7nnwZVz2p0maPSjxcSttBtv3zlr0iIDgpMOGLQZW50tt2KPNY1Wukj+HeXPhc//6B+G6xW90IF+7ddjzl9XlTybzRqUsI7uUQ3EsQ3BHcRcYc7PvAOuYg+yORWbwDd9lUgki/4Lun7iB7OVd9zd399yW+ssy9q2Zw1ZMq8bSOpH//iG985h7zJoL9SudWN+Qau58Loo97+x2U9uKkehZK7XMZzQ0iY6dvcQNaW0O3n/6W3+dMrxUZzG3fLAT3cgjuJQjuCO4isicTHFiHx0YXMj/MXTIZd4Ck6Gs8l5irRBe0b/Iwz/2zXPWkiY8bBLnXyodoazDX+f8d0H/Z6nZE5hpvjx+ZB+NpOIk1TelL3c9d629/kWve4uMXpxT5/RR2wtObGhWCezkE9xIEdwR3oczn/R9YR8Zz7o3Ckdwlk1H20xR9FZn8blwlNvfkv+phZZnruepJE/fc9ib/WslOoazB/5nb4tjyPQza9GsCj0saikh/PNGmKfse93MHPG7v6Zt97NZC6B6/1fPz9dyE5tk3MgT3cgjuJQjuCO40Z8SGh35CqEW7cNdMJZTW91Jqbtj7OWts6cmfkXhw787nG/4uisU5xom/XjZQ313XhcTPEOxX/r2lTfC8j+sRV63YOdGeDV4bYHxts5D2i5t97Lm9e7jvWerz+Yov2E+0X/UIwb0cgnsJgnuDB3d3wCG6eHJ4/Iu7ZEqu3kd99zSeD8tZY3NX/ggPwb0wu6d/yx/n17vIfMLD62UReR1Sf9D7fkWZB0Xrgm3HffxMdor7Hm9L3boQ/O7Ee9baGnpd/Uaats0+tjKf8/x8PSPUkv0T71m9QXAvh+BeguDe4MFdZWe6Han2fmAtHTB+xV0ymfYle1P0VGT0udyl+gjuzT15utVPUsg9t93J//7pn5IX0pZ9q//fA/uw6OjbabyHd//vDm+Pq8yd4vreHX20zesJlUjfKn5oN1256epH93L/f5HP5yqMdLuPftUdBPdyCO4lCO6NHtzNJ90BwttFUJvutO1XuEsmI/XbKHoqMsuO5i7VBe07fUyXOb2zsA13bSxk7lAvrxWlzyOvRS1/owvPWc+/B0uFWrnPJo8d9c7w+rsX2Rm+2hZKc4PHbe8SKrvpvTQie4HX5ykyz4i2Fa/x1bO6guBeDsG9BMG9sYO7Ozhc6/mAWn6gk/oM7pqphCr3NYKePsldZ6ylO/8VH2fdW7ryp3LXxsHXCijx0q/kxUj9ukDqezz/HmghzYllj7ugsG0cUD0+5m2io+DvegFpv+xx29eJ+dk3lj1eR99e7g1W4p/yjB7x8cZbv+oNgns5BPcSBPfGDu5uR3235wPq6LE0DWeHqQSR+aP3nirzZ+46Y7N7Vr/Fy3SZ7vz/NdxFqh19OwVeluKzWZ6CCkGg7O+9/h5Epk8oc2bZwyp9mr/HtOtcsD7Oa9si+4HA60o49uSyx5P6Q573VWtE27LDvPasniC4l0NwL0Fwb+Dg3rpg2yDSK7zurMvHLULm9uQum4qrd7XvnobSfJO7ztiMBYVtXche62mu+3u566MURvorfl4rfBcxu9fp9b5/F+KbVY08oFq5i9eLOyPzS+F7GlfGvDnweP2RiPQHRh5rcG773/3uqwjv2FsPENzLIbiXILg3cHDvyO7rdqjrfB9QR3bcynwjXi2Bu2wS7eb1FD11YeWd3KUOcyH7dk9n3R/hro1Me3x3T19BzbJNO3LB/XsEvwuXxWf3iw/o4Y6zo8bzIuo73HvT1CL35sPfhaJC6i+NPFZk3+/1+YlMPp4y5b1n9QTBvRyCewmCewMHd6mbA+VvmbRxDqzv4y6ZjDQfIenpeBfkMWnp7j/bU3CP76TaEHfb9bju/zPk67ePFulLfP8uxDd6Kj5W5vGXx/eL8Pc4+gaq6VuBxzn6ro5rRWdh++JdUiP9Z8/PzXUU/aorCO7lENxLENwbOLhH5gu+D6ajR3wWmrtkKu6g2EHQ08XcdY42Y8HKXbxNl+nOPzmnJ1/faz8rM81jcOK9KFCZc3z/PrgaZTFQK32pv8exT4uO5QdQtc3tR37lsWe3ikzuVfGndl6fm/hsu+o9hqpndQPBvRyCewmCe4MG98ziHUKlf+L7YDpqPC2usS/hLptKfCdHgqDyM+46x2ru7v+pr7PubtzbWijU51SrjqW7Bz7nM8vc8az1ReYdBPuYW8Tc3oPifY2/3zk9n7JtYWT8rUyl7L2irXgB7K1+91P6Rsqe1Q0E93II7iUI7g0a3JX9L4pwWTpIxHc2bJD57cUL4/z3NL6VPHepY83qys/xGNwLLT39V3DXmLhCvOqK8TlVYRl3iULpE9x2POt5H9PneS79mnjJRNK+yezHPO9HnvP88/MiY6eT9qxeILiXQ3AvQXBv1OCemxkvz+V5pz0y0nh22JsoN4uip6It9wbuUsfT3N2/xGN4X3H8PQSf3Mjsse53hObjfb/rdRfim6yR1LElmdzRQWQWUu1vPO3DvkXeN6lnu8c23LVX3bN49R2oDoJ7OQT3EgT3Bg3u/s/kjAkP9hLukslI/SX/PbXrRGs6p43M6h74hKfQ/o/mrif871eluWjwNWvmeH8spd/u9XUSr2+eBh0Du7vX7F+4g+Qkxkoxt3cP+r5l93XP4YMpqL+asULMM9PIe1YvENzLIbiXILg3ZnAPlb2KdAceZU/e+lbVB3egvdl/T+3d3HVuzumLCtu3dOcHEgzs6+MpMt7ntxdX1yjdKEhE5iSvjxdl409mXvD5OknTdKpQml+kIExWPpTZ6N7MsU3RcttwF3sPqhju+b6Bq2d1AcG9HIJ7CYJ7YwZ3t2O9ne7AZ+93oeg13DVTcTUv939Q1HO569yS5p78lQmFdtPSlfc/Jagt94b47PToHnsN7oNzvtd6fp2sStMF4S7IzeUOk1WOx+PrVrj6RnMiIOGhTJ/7/Wni6lldQHAvh+BeguDegMG9s7BN4PHGHuOMW0ZujFLv3BsUip6mfU38k+558mUudD89uQtRB25tWTiwu/eNjczl4/dYz/byeBQXag6+Rj7lZfurRTKFLOlh15XdkZVBGOnv8vehshEq82O36Y2xz/cFwb0cgnsJgnsDBne59FC3c32cbCcu9Xe4SyaT6T2Toqe18AmGC98XVRfa+59v7ur3Hzo7+vYKpP7rZnvs44y7sp8O/J9pjwPnw/Eb9MS3fzIi82HuQFn50I9wnm0f6tsn+PtQUc9WCJV9I2vP6gGCezkE9xIE9wYM7ip3WuB/GbCRIZQ5k7tkKkTTAZZz1zkRp7vg2NI9sLjC0L5kZk/e/63R41WVpFmxxddtksFd5vZ0P/M2st+5SKfveCztu/lDZUXjeRFl38/dNiH129y25FLQjwmN+O6/qXvTWIsQ3MshuJcguDdYcG9tDUOp/5tyR95Icx3ji0a99zQyN3PXOVHNXfnZEw7tXfnr376wbyff2+TeXH19Qq/bpKbKDC7pR/cJl0rpEnxSN3OHygpHTyquEWg3r3fb8kAK+jGBfZNeIdqxbnsiENzLIbiXILg3WHDv6NvJhcs76Hbm+qn4bobcZZNoLYTxnFjfPRXKXspdaiVcKL9pK6H9qeae/Hu9b0i8tJ40/5h4nye5HORg4CI7yz40ni7exj6NZPZYtz94kT1cTmw8537P3sPdsmFue/6egp5sdYSR/rFoXbQ9d7/qAoJ7OQT3EgT3Bgvu85a9woXLlYQ78574du7cZZOQ2eMpehrf4Im71Eo0dz+1pwvnuc2E9v/MWrjmYO8b4UK4691AZX2ucqpMe+9BYWR+7n7GRurgFE9HSbhzyZG5Q11wr5WlDW8TnekJoIGqhZVl7BON9Omqdwju5RDcSxDcGyy4ty0/jHJnHiqjROuCbbnLJhHpz1D0VKhFvBfLVWFm16qpLqSvK181Jj936sLCdl4fuGPhdi5EX1NVnysJ7vGc3sG5yLe44f1Tl3F/16T5kcdOTl673S+IzG/5A+bWhn6K5OZbFQiVTf3KMu71d53IFHbg7lXdQHAvh+BeguDeYMHd950ay8eLLvz4nwKREu7A9TOCUPFv7jqr1dKd/1wxsHfnB2Z15f0Ho/beg1zP/lltryc0x11mj3XP+zcDgrX7tziUeSyeBue9p5PketXG2qcJDftr7j5tQtoL+fuyxfGke7ODu6QmCcG9HIJ7CYJ7owV3eynhznyNyBj/0yBSwtW72HdPXfC5lrvOyXCh/Suz71r1Su8PFNlTXb+emUyvy4J7+5K9RSY7JZ73HCoT33U4nitPtjLTVsZakckd7b2nCQil/WoK+rWl0S/U8hO4+7SJSJ8eEKz9X+2IT1qk4kLeeoLgXg7BvQTBvbGCeyj1DXQ7dJ1tmAuV1Mp9KHoqpPkId6lpF0b6+8n02z7svmruULT114T+EHfPJyzSH+fu15aGe1PWzt2iccne49z2Pcrdn82M54S0x3G3qO4guJdDcC9BcG+g4B6ZVwYVrKqRwPgHd8lkpHknRU/FfPN67lJTa/D6Dco7ArOPeOoJd9srQvR7UtVQJhdPfeJu0bhaF2zrtu9O9h6N+xrUN+JsuwcI7uUQ3EsQ3BsouGfsWwJps2Q79Eh/n7tkKkPznH33dDV3namlzDnBJKfG1NyIzL3xxbfcra+Iys5k79vm9lfSfIu7PVuSygt7I/0C5rZ7guBeDsG9BMG9gYJ7ZD5JuVMX0lzEXTKVQJk/E/T0du46U6ejb6dQ6p+yBxj6YeJP0LjbXzEX8gJp16egf2PHYhH1Hs7dni0JpZ2fgj6VDfdm5wasJOMJgns5BPcSBPfGCe7xhY2UO/V4eTzumqnES8h5P0gq8zXuOlNF6te5vizhDi8MY1lNhvaY6nute5Pbm4IejtlX2Yu5W7NVynyOu09jxjqcbfcIwb0cgnsJgnvjBPdA2XsJd+qpP4OVmMyyo2nCReO8EdoqVfz06PkUhBfq8X/FFW5qlew70AX3P6agj6PHIqGW78/dmq2S+owU9GpkhJH+icgsxtl2XxDcyyG4lyC4N0hw7yxs73a2q8h26vEFS5nFu3GXTULZcyl6WtOBLSkdS3cPIvt77tDCNO4Xc3v34H4KJqcQxPuGFPSy9HslzfncXZkQaU4M0rME6QasJOMZgns5BPcSBPcGCe4Zc3Ag7Qayg2FkviAKhYC7bAqhtD8g6Omj3HWyy9jprg82BaGFYei/1ssb4TCy3+bv50hf7xEdfXtx92RCrrWHxBck8/esOLf9F6LD812PGx2CezkE9xIE9wYJ7lH2ZModu2izJ3OXTMXV+4D/A6W9kbtOVu6NoOvDi9yBhSUkKf1d0VoIuZ+CxCj7ae6ejuynZK521sB3r4FA2t9w98yNjfG68tztqHsI7uUQ3EsQ3BshuBcCF9y/QLpjVzbF/UhQPHWDImC4sMNdKos2/dIgSt2caKKhnxJRHb4BHrwLaAr6a/8irl9dU1OP3Bt4yd23UJpfic7CNty9qHsI7uUQ3EsQ3BsguF+3atdQmR8T7tz74zn13GWTkHo2RU/jaSLcpXJIy9QA8hGZB92b7Vdz99+LKDeLvb/x75TMvpu7FRWT+ousfVNmY6Pui8ghuJdDcC9BcG+A4B7fUVKZxwh38N3cJZNR5nL/IU6/wF0mm8ziHYZubtUo02SeFtJcVterdUSmKQV9viW+BwB3Kyqmcqcx9+0m0dpaP9O20gzBvRyCewmCeyME99xbKXfuobINc8dUV++t3nuqzJ3cdbKLeg9P6y3fk/u90T8RHdl9uVvtXUYf4epdy9lrMT87k7sNVZlfvPPsRra+qeVv5G5Bw0BwL4fgXoLg3gDBPbIX0O7cG2c+diD1Cu+BTpqruetMDWlPCQguBiYe3fFZaO7Wkpm3/IBA2ixXv93v089qdipfmz0qiPR9LL1T5o/c5TcUBPdyCO4lCO71H9xDZeeR7dwjo90bhRncNZOYbw+h6Gl84xXuUlNH6g+53izjCn8JjZ74jQh3K8m1r9jb1d7J0/P4gt8afpMkc3u6Nz3/w9E7nG0nhuBeDsG9BMG9/oO729EvIDww3iXa7X7cNZNQ9iySA6bsO5C71FSKl0gcXKGkhycEVjkic6977fw/7vax6ejbKZSmjaP3odTX1vr9JcJIf5++d/YO7robDoJ7OQT3EgT3Og/uHYXtXJgmOzPpDsg3FJefbAChtPMJDpiGu86aMHhXSaazuBP+3fhFvAoRd6tSQeovMTwHT9bFMrXSXEbdO/cGuWbyXd1AcC+H4F6C4F7nwb1NvyZQdhXZDt4dkLlLpuLq7fLfU/0b7jpryjX2Ze41eKHr3X8YguF44wEXej4j5vbW1Hrh3il9NvVzUbyRVY2fbS9S9j20vcPZdhYI7uUQ3EsQ3Os8uEvzThf+nqfayYvIvIO7ZBIdC7ej6ae+hLvUmuXetLrX/0fiu866Xhqi34G8G78Tkb3EPf5U7hakFtH9D0aNVSLz+Mu5y05E1DuDsG8bG+aapbRBcC+H4F6C4F7Hwb21EIZSf4vyABkv28ddNolIv4monzO4S60b8VKL8Z1Ipf5iPG3F9fefbqyexPOzxI3bw8goofR57ue+jrvEmpHJTqHcL7k3b191j1r7Z9tj1+aOJrsvB5ai5YPgXg7BvQTBvY6D+3WrdnU737sID5CrxLxlNfG6nzRpLyxOC/I9rrEv4S617sU9brNHuX43F1fwifTH3fN7sVDmSiHNRcX/juz7i58mtdm3iIw5mHuTa15kXun2Fzmi/VKurm5opXr3cTX9g6BvG4XMvY273IblgtMMN1pcuDjJfT3ZfX2b+/pO9/Xd7utp7usZ7uuZ7utZ7uvZ7us57utH3ddzXSj5hBufdOMCNz7jxkXu7y92X7/ovl7mvl7hvrZOmzZtf+46Jyp+kzHUE2+Du8ZK+O7FMccccxBXbXFwd9vwPt8jlcG9I14vWa+hC+76rzV5N0IAoNVZ2Ma9GTrVvTE6Xyh7rrcR//yMbuEuN3Ft5s3xtRze+haZT7g3ru/lLhMAoLHEH6lShXZlNobS/jduhw0AAAAAUKnBNa6ppsk8K5R+O3fJAAAAAAA1J4zstwmDu43nXnLXDAAAAABQc4ZWzqAK7g/UxRrJAAAAAACk4pUHlL2bMLjfxl0yAAAAAEDtUfoEF6Y1VXAPpfkmd8kAAAAAALUn0hcQnm0viMh+gLtkAAAAAICaEyrzY7rgrp+Mz/Bz1wwAAAAAUHNcoL6f8Ix7t5B9B3LXDAAAAABQWzKLd3Bh+mmy+e3KtIvWBdtylw0AAAAAUFtUbibt/HbzCe6SAQAAAABqy+md24TKXkUY3DeKttwbuMsGAAAAAKgtHcsPcGH6n4TB/UXxQ/sy7rIBAAAAAGqL0qdRTpMJlMmJ1kLIXTYAAAAAQE2JLxQlDe5S38FdMwAAAABAbens3MYF6SxlcA+luZq7bAAAAACA2jK4msxGumky9ikRZd/PXTYAAAAAQO3oLGwTKvNL4vntD4po6ZHcpQMAAAAA1A5lprkwvY52fru5SRQKAXfpAAAAAAA1I5R6PnFoj+e3f527bgAAAACA2iHNiYG0/dTBXUTmHdylAwAAAADUhtYF27oQ3UMd2t0bhfUiyr6au3wAAAAAgNqgzBfoQ3tx3C9aF23PXT4AAAAAQPplet/gArTlCO6htF/lLh8AAAAAoCa4AP07prPtA6LNHsVdPwAAAABA6sVnvJlCe7x++x+56wcAAAAASD9l/58Lz3R3SB0zhMx9lrsFAAAAAADppux7AmmfZTvbHunVIuo7nLsNAAAAAADpVVyv3TzHFtpl8aZLbaKzsA13KwAAAAAA0imyH3DB+QXO0D44TSZ7LHcrAAAAAADSp6NvJxGZz6UhtLvxL+52AAAAAACkTyb3qjDSP05BYI/HBiHN+dwtAQAAAABID7V8/1CarwdSr05BYB8ckb5PzM3uy90aAAAAAABehUIgZPb4UJl2F5QXswf1MUNE2VO5WwQAAAAAwCdeoUWZOS4c38Idzjc7lLmTu00AAAAAANVp0y8VcvnseF11IR9/nYjMK8U19iWbfN9VK3YWMrenmLf0ABHZI0WbfUvx3yjz+VCa64fOrq9jD+ebH8+JSL+JocMAAAAAAJPkAroLtDe5sT5QdmMg9UPu6/+GkfmhC+Xnikz2rYOB3nwqlPa/3d//OD5rHUQm7/7NhhSE8QrOttubudsNAAAAAFCdyB7pQu2Lmw+8Ng7nG9lD9+THSpExB3O3GwAAAACgOsp+OgWh2vdYLyLzDu5WAwAAAABULVD29ykI1p6H/TV3nwEAAAAAqje3dw8XbJfxB2uvY2nxQloAAAAAgJol9QeDyLyQgnDtbYjIfJi7zQAAAAAA1SsUAhdsb+UO1h7Hi0Kai7jbDAAAAAAwOe1L9g4i80wKAranM+36Eu4WAwAAAABMXmRO4g7XvkYozde52wsAAAAAkIhQ6q9yB2xPof167t4CAAAAACSjTb80iPSfuUN28qHd/kCIQsDdXgAAAACAZEg9O1B2FXfQTjS0KxvFF9xytxYAAAAAIDGhNN/kDtrJnmk33+TuKQAAAABA4oLI3MkdthMa/xDXPn4Edz8BAAAAAJJ3jX2JC7wDKQjdkxnPhpH5hujo24u7nQAAAAAAfkh7SgqC92TGShGZd3C3EQAAAADAn9ZF24eR/X4Kwnc145lQmp+50P5K7jYCAAAAAPg13x4SRHpFCkJ4hUPfISJ7smgthNwtBAAAAADwL7Kn8ofwigL7v0WUPZW7bQAAAAAApEKpb+QP41sdLwTS/kFE5iQhc3ty9wwAAAAAgJwLxUtSEMw3N54OpblBqNxM7j4BAAAAAPDKLH5VGJmfu5B8vxvPMIb0DW4sduO2UOpviaj3XaJ9xd7c7QEAAAAASJe5vXsIlTstlOZHgdQPDYZ4/VR81tt9fT6Qdp3780b3db376obdMLmgrl90X+OLYheEylwlpP6QkNljRSa/G3crAAAAAABqR2fnNqK1sK24vndH0TGwu1DZ18brvRdXcomyJw/+2Xw4lPqrQ2fs/+XGmqEz54VAxSHfPOcC/r/dn28Ope0Q0lwhlD7b/ftZot3uJ0Qh4C4TAAAAAKAxtC7avni30mvtIUKZaW7MceNM0ZZ7q4j0m0TbssNEx6p9i2f0AQAAoOH9f8bCn/Bu0O3uAAAAAElFTkSuQmCC;" vertex="1" parent="1">
          <mxGeometry x="98.81" y="190" width="190.91" height="70" as="geometry" />
        </mxCell>
        <mxCell id="rKb5zj4-AGq2TKSWBkBP-7" value="" style="shape=image;verticalLabelPosition=bottom;labelBackgroundColor=default;verticalAlign=top;aspect=fixed;imageAspect=0;image=data:image/png,iVBORw0KGgoAAAANSUhEUgAAAj8AAACnCAYAAAD+Bj0wAAAgAElEQVR4nOydd3wcxdnHv8/s3p1kyQ0X3MAGGwzGdLDpYMC0GEIN4QXe0NLoJBBaCCH0NGpeWgKEkBAgEHqMAYMxpplumikuuGBhx1XS3e3uzPP+sXdywRhbupNO9n757AdLupudmZ3d+e0zzzyPqKqSkJCQkJCQkLCOYNq6AgkJCQkJCQkJrUkifhISEhISEhLWKRLxk5CQkJCQkLBOkYifhISEhISEhHWKRPwkJCQkJCQkrFMk4ichISEhISFhnSIRPwkJCQkJCQnrFIn4SUhISEhISFinSMRPQkJCQkJCwjpFIn4SEhISEhIS1ikS8ZOQkJCQkJCwTpGIn4SEhISEhIR1ikT8JCQkJCQkJKxT+G1dgYSEhISEhHUXBWS53zin8V9UUQRZ4e9FRAApfGLlH0n4BhLxk5CQkJCQ0IqoKqDk8pb6JYYliw3z/ivMnafMnRsxe4YwfYbw3/mG6dNCQpta7vtGIgA22dinczfYeOM8G/ZP0bmjped6hh7rG2o6OTp3NKRTOZA04LV+QysY0fgqJCQkJLQchShyTJ3WstfQ3r0ttbXJu1lCe0ZRja0zqoAI2azjy9kwaZLlxZcM776jTJni8cU0G3/QKWoUnAc4inafrxl+VApnEMBhREBBRHAipPyIvhsIgzZx7LC9YY/dDJsPUXr3NqRTxe86BENseYKvn2TtJhE/CQkJJUSZ9oUweBPXolL+/bBy4HcUSYzTCe2QeLkKGust078Q3ngNnhzteOEFw+LFShhKbP1Rg8jXXW+bOy3LMmtfqg4RgxIhBtJpWK8z7DvSsd8Byo7DPDbo41FV7QoKTZb7/tpO8mRJSEgoGYoSBRAGzX+nUol9HhLhk9BuUFBxCEKk8MmHjocedjzxuMdbb4JVQD2K/j2CQcShhd+gDhFB1YJ4GGOpqjZUVSueDx0yBs9fKm6i0JHPQWghl1Ma6uNKxGVJwSIkKBbUoNaRzxm+zMK99/rce6/i+8r2Owb8z/94HPIdR59+4HspEBvXVTS+GddSPdRiy8/ZZ5/NzJkzS1WfkrCsel1//fWprq6mT58+9OnTh4EDBzJ48GBqa2u/8TsJCQnNwxEy9XOfTQa1rJzHHneMGpX4KCRUPqoWJ8rCRY6/3ulx3z3K+x8a8oErzCvLjmNt+r8CKd+x8aaWrYf6bL2VY6OBHhv1d/TuA+mMR1WagtVGMWbpHBVZRxSCcxDkDbkgZNo0w5ezDB9/6vjgA8d778CUz1M4tfGym8aCaKmlKa6LI6K2xmPLoZYTToDjjhOqqh0iqYIT9do5N7ZY/AwZMoSPP/642Wa61mBlwiZW2coWW2zBz3/+c0aOHMn666+P53lf+7yqJuIoIWF1UJjyBQwa0LLnwWOPK6NGJZE4EioQdYDBSYhGysQ3fQ47RPlqrrBs9BiHjZeSUFSUtB/Rpw8cfrjjtFPTbDRw5UteJa8uER98bLniUuXFFz2+mmtR9XBGIDIIFvCXmeMsg7eMePCfGTbfNA/qI76HKLFVaC1xnC6J+Pnoo49KVZ9WY0Ux06lTJ/r378/OO+/MqFGjOPDAA/E8LxE+CQlryBsTYdiwloqfxPKTUJk4Z3EuYPTTVVx3Xcirr0Iu68WaqCB+jBEcjaRMNTvvAoceoey1p2XgQI+aGouIKTgbQ/ktKxo7UqPMWwDTpgnjn4d/PJTjzYlViLWI+CxVAhYRobo6Yo99Hef+zGfv3VNgvr4lvz2zTlh+1pR0Ok3Xrl3ZaqutuOuuu+jduzcAxiRvogkJ38b9D0Qcc3TLhEti+UmoGLS4uSpCHYx+RjnrNI8ZMxxh6Bd2ZCmow3lCynpsMlS58kplp2HQpQtkMm3tTLyscIn/3ZgNmD8vxbgX4YLzQ778MoVzAZAGii/9Qipl2XRz4b6/wZChEC+dOdq7BSh5uqyAiBAEAV999RXPPfccG220Ef379+fWW28lm80CzffET0hYF3AluT2SeyyhMlAFwTHxdcceu3t8d5THlCmWMPQBFy9r4Vivq+EXP4dPZoS89TYcerChZy+oqjIVsHogX/t3h+oU/TawfP9Yy6fTfCa9Dz8+KU1thxxqwqbPBYHhw0mGrXdQDtgr5N1JeZzz2v08mIifFVj2gqoqYRgyc+ZMTjvtNAYOHMgdd9xBGIY417KtvAkJaycOcaXYpdXWk0XCukpxDlCFIFBy+RynnRaw++4+r7wiOKs49XBiERw1HUMuvDjiixmOa6/1GNAvRcaPd0mZip5iBfDx8KnyDZtvLtzyF+H9Dz1+dpZHVVWIkQgxEr/QBB7PvZhmj13T/OH6iHwETiMcEe3xZaWSr0yboqpfU7Zz5szhRz/6ERtuuCEPPfQQ+Xy+jWqXkFCZqBreeacULwbt72GasHZQ3Axjg4Dxrzq6d4fb/y9DGEjBB9SQ8oX1ukTcdlvE3DlprvxNiuoOPmjQ1tVvMX37G37/R585dY7Lr3TU1OSRlOIEnDjqG4RfnGfZcnDIK29EOBu1y7s1ET9rQFEM1dXVcfTRR7PvvvsyceJEVBXnXLs3AyYktBQB8nlbopISEloTRbE4DZldpxx5jLDfCEe20cdCIVig0rdfyFVXKLNnpTjphz6ZagHx4iEr6bZuRIvx8BGgtjbN+eenWDA/zRk/cXTtGsR5xBREPaZMS7Pn8Cp++EOYM1uxWor7vvVIxE8zUVUmTJjAbrvtxlVXXdXkD5SQsE4jcZDDlpO8SCS0LoolDCIeecyyzRaOxx/1MXiIxAH/ams9fnB8yMQ3HOeeB5kqkHbu9LsqRGInbfGF664TJr3vc8z/hFR1cEtdp1X56z0wfLjyyksRkW0/7iCJ+GkBqkoQBPzyl79kr732YubMmStdLktIWJd4+20/kS4J7QpVR8MSww9PSXH0ET7/nV9w6FVAHDsPg5dfd/z5Lz49e1SBMcTT59pvoTSAGEOf3oZ778nwwosRmw9RMA5wGFvFzFmw154ef7w+IgjjuNVa4ZagRPyUiDfeeIMddtiBCRMmtHVVEhLalI8/jtq6CgkJq42ifPyRY999I/7+D8Xa4u4sS6rKcvtthnEvObbczEO8dXvKFDHssE2K8a/AxRcFdOikONE4ZpEYLjwvxXf2t8yYGVW8VWzdvpIl5quvvuLAAw/koYceIoqSCSBh3UMR6hf768D7cEL7x+FsxBNPBhxymGHi6z7Wxr49GMt22/qMe97jpJPB930QiTOsr+OIZ+hSm+JXv/J55BFl8KYRiEU19nt97gXDiH0tH31M7AxdoQagRPyUmPr6eo455hguvvhirK3Qq56QUCaEiEjaz7p/wrqJqhKFcMP/hRz7PZ8pn1lUHEYgkxLO/bny4gTLjsOSZ/hKEfA9j7339Hh1onDiiRbxFDEWQZj6ic8eu0fc83eAyuzDRPyUgSiKuO6667jwwgsT/5+EdYaij0QSCD2hklFV1MIll1jOPzdFQ6OgLs7p2K2H5a/3wVVXKh2qPJBUBQQoXJbYp1RR1ClOo0KIxQgX/xWHQ5f7L45Z5IpZ3+Ni0Dj7GBS+uSbE+U4FROhU63HTn+DWWyypQogvVWH+fMOZZ8Affm9wNirkRKscShGNLGElhGHIn/70JwYMGMBPf/rTCruBEhLKw1fzLVGUIdmtlVCpWAtnnxNw6y2x6EFARBm0acQD9xmGbu0wpKhEZ2bnYO6Xjll1yudTHB+9b/jsM0fdXMfCBRHZvGPhfEOchRRQ6FgjZDJCt+5Kp85K/41DBm2cYujWHhv0DunbD9Lp5kmB4rxWlUlx0snKxhvBMccHzJuTAWDJYsell0UsbnBccomQSpWkG0rCWil+ihekra0ujY2NXHjhhWy11VbsuuuuiQBKWGuJY11Znn8mgycWq4n5J6HyiELHry8Vbv1TChWLwyLi2GqI8MjjPv37g4hPWwufOKWGEmqEzQmTJgljxwb865EU06cpixZ4hKEW6hoHFwXQgpOxQCHn2PLtiAM4xt8xBmo7Grp1D9jvIBh1oMcO20K3XornPJqmq9XoCsEgAnvtHfLCuCyjRhqmfuFjxCebVa6+OqRbTzjzVAvGVITvVEUlNk2lUiVNHhoEKw840pqiSETo3bs3EyZMYMCAAa123oSE1sUBEQcelOKFp4V8CxN8JYlNE0qJqhJFERecJ1x3k2BUcAAacvhRHrfeKnRfrxjBuW13Kakq8+YpY/7juOOukPffrmJRA2jksLJUaKhzTXVd2Zz2zeKnkL4DMKKIEdQJIhY/YxmwseHAfS0//mmKQRtHeP4aLv1pxMLFIcOHhXz2aafC+RzpjHLJLx2/uEDwPb/NjQEVJX7OPvtsrrnmmhaXUyQMQ1577TWeffZZxo4dy/Tp05k3b16bRGMePnw448ePx/fb/qKXivhBId/al8u21zlXUoGbUBlYC0EY0m09IZtt+ZvdY487Ro2q7K2yJUdDIEUkYWGb8PI+Eg6Hj4+oQS1Ik3+FrjXPlLLh4Myf1fOnG2vjHyQCjdjvAI9/P5Imk6IN+zDOjeXw+Wyy42fnKU//J8LZNKrLZ4NXtYh4iDpUDJgInA9G6VRjqaqJl/Fqqh2epzQs9nBelnzOI78kTWMQIfiIFPJxqR+XA7jCOCrIQhSld0/h7n8Y9twlwvMtnu+zOtncFSWbtey3T56X3/AgzCCiiDhuuUU5+RRBTNvuCq2YZS8RIZVKkclkSlZmKpVin332YZ999mn63fz583n22We5/vrref3111ttR9Zrr73Gtddey0UXXdSuH1TFII6qirWWbDbLF198waxZs1iyZMk3CqFu3brRo0cPNthgA2pra5uihxpTCRmPE1qKmJDrrhFyWYh3d7T00bL2jwnVgiOqi/8/d4Hw1Uxl+jSfMHS4FfajCD61NY6+Gyp9NhA61xZ6yYBXiLe39vda87j1DsvNN1YhajFGsU45+EjDw/cLxrTdIoxzDud87nsgy29+5TNtikdERMpkWPFRKgLGCJ27Og79LuyxR5bBm1Wz0QbQs7eg+EvFEVLwuhOgGlXBqLKk3mfmF8KU6R7jX8rz9H9SfPhh/PJSdNNTlcI3la++Muw/0pGptpxysnDFZREdO5mCr/Mqek0d1dUeTz9XxYH7Bbz0kgIGVeXU0306dYv43mGubXdHaAvZfPPNVUTikI4tPM477zx1zrW0St+KtVattdrQ0KDnnXeedu/eXUVEjTElacfKDhFRz/N04sSJrdLGlhJFkTrnNAxDnT17tr755pt66aWX6uDBg7W6ulrT6bR6nrfSay8iKz2KfzPGqO/7mk6ntaamRocNG6ZXX321vv322zp79mwNgkCtteqcq4i+KkUdytWOYrnOuaZxHYahLl68uOlYtGjR147FixdrPp9vcb2sWg0ipw88YjXlByq4EhyRPvlkVq11qmpbfDhVjUuK1KltUXvXvIOcqrUaWdWGhkg/nWr1kSednvADp907R1pdHaifDtV4ttB2q8ZECoEK0fKHFP5vQhUCNcap72U1UxVo185ODz3E6V13B/rhR5HOXxhqaBtUnVO1lXEftQUusvqXv0SaSVv1jaoQqEig++y7pOkZ0+p1KlyTMFS9576cdu1g1Ygq5FVwakQ1hVVPVI0fau8eTr9/ZFbf/SCr+VykNrIauXw8tpp7flXVKFCNnEah0//+N9Arrszr4E3z2qEqryKBGhMqxHWLx2agvp/T7x+V1bnzc2qtqtNV18G5UJcsqdc9R+RVJKdGVI2o+n6oY8dGqpH91jLKRUUte5133nlce+21rW4JaGxs5IorruCmm26ioaGhLEtixeWh4cOH88ILL1BVVVXyc5QCay0LFizg2Wef5dFHH2XMmDHMnz+/6e8rLnMVf17V8teyf1udf9fU1LDvvvty6KGHMnLkSHr27EmqjbcJWGsZM2YMjY2Nzfp+p06dGDFiRBwsrQUU+zoMQxYvXsyHH37I+PHjmTRpElOmTGHGjBnU1dXh3DdvKxUR0uk0Tz31FHvvvfeypRc/8a11CEOlsVH55NOQ317j89ijEFlYHZP4t+O46CLD9tvztbff5tBUhCgdO8F++7bO22YQOGbOtjz67xSj/xPx4ngln2/KioQYD1RQLY59R8Gjo/DmvvLGOwBxoIKIQbCggsMVrD+CELL5Zj4j94845GCP7XcwdOxoCk6sa799SFFwyrjxjkMOdtQvMah4GLHstKvw4gsuXnZRIX4va50+UZQoVEaPCbj4Fz4ffOThiRC5+N1RCoEUe/YKOPJ7jhNO8Nh2a4/iVVUpOjPH46BFd5uG8dqpCk5cvJyqjvnzlYceNNx6a46PJqcJAsGIFHaqR6jn0SHtOPcCw1lnKF27GBBZqY+ROkAsCxcp++4d8c47hXlPLb16wtiXLZsMdBjaYD5sqXpqj5afFSlaGKZOnap77rlnydqzssP3fb3jjjsq5k2s2PZFixbpAw88oFtuuaVmMpnlLDXl7I9vOornzGQyuummm+rdd9+tCxcuVGtb+c29QC6X04022qjZfTFgwACtq6trUR3CMNSPP/5Yf/WrX2m/fv20qqpqub5ak35Np9P63HPPLTcOJ050ut9+Od1vP7fSY+RIp/vua3XQxnldv2deO3ayKsaqEatGnBophdUntn6IhColK69weKFus135rCDOOQ1tpPO+snrXX0PduL/VVNqqkajQN3aZo7RtK75RF69D02FCFbHauXNODz4w0DfeVo2sVauBqmube6k1sJHVGdMD3XCDYJnxaXXjflbzebeMVbF1cOrU2lCnTs/rvrtb9Uwutq4UrlvKhJpJWd16aKj/eTrUXC5QDVqtenEdmyzt8RGEgU6fHuiRh4Ra3cEttTziCn1qtWe3UJ8andcwn1e3CkuUc1anzWjUvn1zakzY1O7NN83qwgVRm8yHifhZgWw2q1dddZWm0+myTPoiokOGDNH58+e3aTtV4+W/jz/+WM8880zt1q3bcst+bSF6VlweW/H3vXr10lNPPVU/+eSTVh0nzjnN5/M6YMCAZretQ4cOOmXKlDU+r3NOFy5cqPfee6/utNNOy43LVV2fb/rbqsTP00+rCrGpe2VHceKGUDFR088GFx9N5vESiB8ihUjBlfCwus02ZViCdFajyOnnn+b1rDMD7dol7iMjhX6TYJm+K73wWV78LH+IUUWsUpi0UqlAtxgc6G23qS5cFOrShYvipNfeidvQUB/ozjsH6oktLOFY7b9RqDNmhRqpqnNRK9WlICTyod5yS6g9ulo1xirGqohTY6z6fqh77R7p8+OWaL6gSZ2zbXg5CvV2hSNSnTLd6k9+EmrXLnG9RZwaIjVi1ffz+v1jAv3yS6fWhStfWnZWrYv0rbdD7dFj6QuTsFiPOyHSyFpVDVu1lYn4WQlRFOlNN92kmUymbBP8I4880iZtK06on332mZ5zzjnasWPHr/nlVOpRrGOHDh307LPP1rq6ulYbLy0VP4C+/PLLq32+ou/Oww8/rDvvvLN6nldSn7SVip9nYvHzbRMtZZi8W+NAIt1m29KOC+cCnTkr0ksuzmrPnqF6YtVjqe9TJfaVkUiNn9NddrL64AN5zWYjdS5qJUFQXpyz6lxeL/1NoJ4XNFnA0umsjp8QqnW5VhQVVp2zWlcX6Q9OyGk6VZz0VUWsYnK6w/Z5/fMd9RqGTtXlWqtia4xzToMwr2+9ldVjj81qVVXRohYLIM+EuuWWTseOXbUPj7N5/etfc1pbG6mRUEVy6nl5ve76RnVR646/ihM/lYJzTv/2t7+p7/slFQXFsgYPHqxLlixp9XY1NDTo9ddf/zVLT3s6iiJo/fXX13vuuUeDICi7CCqF+Ln77rtX61zOOa2rq9Mf/OAHZbNAtkT8tNcDrG67TalGhNMgCPWJp/K68aBAjYmW9l1hgjMV0OZvFEDEb97pVKQHH9Kgk94L1Fkbv+m3YwuQdVafeybSrl1zaiRSEaspP9LLr8irc61lWbDq1Kqzob7zXqhDh4ZqJCgIhVDFWO2+ntPzzg910aJInXXx5yu9351T51TzQaCPPhbpVkMb1fNUjVgVseqL0w61of75Dqv5oLjh4GuFaBSFes7ZeTUmWxDjVqvTef3w02yrDr2KEz+VYPkp4pzTG2+8UT3PK/nEbYzRxx9/vNXaoar67LPP6rBhw0ranrYWQMYYPeKII/Tzzz8v69gphfg5//zzv/U81lp95plndMCAAWUVp+um+HElW/b66iunJ/1voNXV8fLWcsJi2WWnCmj3NwogUfXEqZFAu/fI6e9/G2ou11gQQO2TOXU53XjAUosPXl5PP91pPp9tvZ1+TtVZq3fdFWlNdRhboCguc0V62GF5/eCDSJ0LK2q+W13i1QOrC+aHeuU1ee3aKV/ob9V4t2JeDzssp/WLV94+55zms3k95OBQPVNYRienGw/MaS7Ka2v5YlWc+Kk0oijS73//+yUTDMv6a4waNUqDoPxebc45vfbaa7W2trbNRUu5ji222ELffPPNsj1MSiF+jj766FWeIwxDfeqpp7R79+5l7691Wfw0F1eY1GbODnWnXRvU88KKtu6svgiKLUEp3+lPT2/UbLaw/NCO5mWrVoMgrz/9SRg7eRNPrJtunNe5dVltncbEy1xR4PSSixq1KlMfO/cWwhTUVFu94kqrSxry7VpgqmqTn1hk8zruhVA33jhYYcNDTkeNcjqnLlS3Es9t56xO/iir6/doLDh+O/U81Ssuqy90Tfn7p+LETyUq4Vwup4MHDy7Jm/iyvjXpdFqnTZtWtnoX4/QcdNBB3xiTZ205RES7deumzz//fFn6shTiZ6+99lrltXrhhReadtqV2wdrXRY/zX3GOBfpJ5826kb9QxXJx8sqFdCukgohE+jIEY3akMupajvyAYqsvvpqXo2XVWMiNUSa9iN96eXWs64459RGef3NpTkVk2vaYYaf1861oY4ZG6izUWFXVOXNc83BuUjVRrpovtOdds2r52XVM7EFSPxIBw+t13lzV3bPxctid/zZadrYJktpbZd6nTYlKPifldcCVHF5Biox2m86neavf/1rScrSQnRkiNNv3Hzzzcv9rpQ0Njay//77M3r0aKy1bZ7otZyoKv/973857LDDeP/998vWpy2hrq7uG/82Y8YMDj74YPL5/HJRtBNKT3OeMYpl4XzHPvukmf6FAU1RgY/PlqM+z42r5nuHp8llBaetEwG/uWhBzi9qVE46QcFlQD3UOM4/z7DzcKXcMXxUHaoWa4Uzzkjx6ysUXBrVEDGWTTeFDz6K2HcvDzEecTaJypvnmoOIB8ajY1dl3Fifn57q4yQHCFjh0w8z7LxLwIyZjuXjVhnAcNKJyncOtKg60Ijs4mqOOwGcFtJvlJGKu3sr8YEvIuy4444ccsghJS1XVfnnP/9Zltw8YRgycuRIxo0bt8qAd2sbCxcu5Oijj2bmzJkVJ6TnzJmz0muRzWbZe++9mx1AMWHNaM4zJp8XDjjAMWuGaQr/vzZSFBP/GS0c/X0FAqxW8vPD4jTgr3/L8/GncZBIgA17h1x4iRbS55S3BoJBCTnz1HpuuyMHLh0HbcVju60jXptg6dM3g4hp+sZahwrptHD9H4Tf/k5RAlQt6gxTpwj7jnAsXBJ97d4zRrnpNo+qdJzrCwyvvuLxyMM+zpVXnlSc+Km0CWtZbrzxRnr06FGy8jzPY/bs2Xz55ZclKxMgn8+z66678uqrr65TwqfIRx99xPHHH9+Ut61SBHUQBMyaNWu536kqJ598Mp9//jnOuaacZwnlY836N0K1kYt/FTLxXYC1+/o0tU3hicc9Lvu1w4gp90t4sxE1LJrnc8G5KUQzGBxgueF2j+oqoTQRx1dNpHku/43j9jvT4KpxahGFkXtaJrzq6Ny5qqLGTPxUdPGhukwUdVdYFF/zix23TzAp5Wdnezz7YgrfS2EAZw2fT4URe0JDNlhhLHn07Wt45BEwJo9zFmeFU0935MNiAvLyDL6KEz+VMlGtiIjQr18/jj322JKVWcwuP2bMmJKVGYYhJ598MhMnTixZme2RcePGcc8991RUxuswDJk2bdpyv3v99dd58MEHm35OlrvKz5r0r1PHo084rv89EKbW+PvtjRXb9ptr8kydmsURtFGNVo0TyxV/zBPkU4DBmpDDDoMD9gHbChYW5xz/+pfj8st91KViK5P4fO+4kEdG5/D9DhXz/CniObBWCYKIIA+5fJ5cLiCXgyDIk9Mc6po3xgUfI2n2Hm6476EASWXBgKph0tseRx0O+fDrL+T7HCj0HwAiijqYN9dx/fUO1bBsurvixE+lDZQixTfyk08+ucX5mYoUHzRXXnllScpzzvHnP/+Z+++/v6n8cj2oV3advs1qsbK/mzJk9S22+ZxzzmHevHklL7+5RFHEjBkzlvv5lFNOIYoiYO2eVCuJNXrGRGlO/6FBXRr45vx1LcEYaapXXDdbWBlZ3k9d46xeZbcOLudzFnRizxFpFjd4zbIIlA0Xx+yuq7PceoMUsqM7OlQ5rrxSyWQyeGWeShSYPDnitNMMauO8Yap5dt4uz513+FRnOrbRfKYFi47FaUg+b5k8OeLB+5WzzoDthimDBip9+3n02cDSo3uK7t19+vazbNA/zRabpNh5D8c550Q8+VTE558HBAE4DbFETeNwVUjacfjBPjf9KYPnOQQPxPDssx5/+G1AEORxGi79vOZ5bowF8WLfIE3zp5uEmTO8pvz0paY0s3gJqaQ39ZWx2WabcfDBB/Pvf/+7ZGV+/vnnJWn3lClTOP/885uWe8pJcRLwPI+amhpqamqoqqqiW7duAFRXV5PJZJg/fz4iQmNjI42NjeRyOerr62lsbCy7lWPJkiXceOON/PrXv8bzym/+/jZUlc8++6zp57Fjx/Lpp5+2YY3WTVb3XlO1XHGVMGteVFYbgnPF+hQmFSNUpxRZYfxmsAcAACAASURBVPbO5ylsXJCmZYZy4xmfWV9Y/nxLjnPOrcZohbygmghwXPO7gHzQAVBEHIcdJmyyaeuItPkLA444SlkwL75+VmGzwR4PjG6gKpMCaZtnjlplST28/7FlzNOWv/wpzeyvDBhH7AVh4uehSkHPxi9fDQ0+AszDY/pUeG1CyA03OtR5bLZZIz/6SYY99lA22TSgY00aWaXtxGCM48cnGz79ULn+xhDUx1rhsitg6x2Fg0bSNISFFP0GGPbbJ88zz1bhVJk923H334VLLjJlGekVJ34q4sZaBb7vc8wxx/DII4+UdOJetGgRXbp0adZ3VZVcLseZZ55JfX192bLSQyx2unXrxvDhw9l9990ZNmwYffr0oVu3bnTp0mWV1y8MQxYuXEhdXR3Tp0/npZde4qWXXuLdd98tS72dc9x888389Kc/pU+fPiUtu7lMmjQJiOt2ySWXEATBchnt25K2r0GZkTgP9mo9YxTq65U/Xm8QV1vaaogiKM4oNRkYMtSx1VCPQZuHbLxRip7dLbWdUvhm+SuyeLFj0QLHZ1Mtn35imDzZMHmyx1d1QhRFKCbOzF3CujqngOHq36b4/tHQb4MSFt4CnCozpvn85XYT77qTiG5dPa68prADqYyoKvms4+dnC5M/NE2OzL365HnyiRR9u3Wi7F7WX6tT7EJRV2e452/CvfeEfPSRh2o8xauAFAaG4HBOUHWFLOxFEVMYQxhU4yUsNG7K5Mke557j8HzYakiGk3+sHHWUY71ucTZ4MSsT4waVkMuvtMxbYLjnbw6DRxR4nHJCxEsTPAZuFAFxHwqGa68Xxm4b4gIf1HD7TcJpP3J07Qam1Ne1pXvl14U4PysydepU7dWrV0naXOy7e+65p9n1cc7p/fffv1oJL5t71NbW6j777KP33Xef5nJfz0HT/NgpTpcsWaIXXnihbrHFFmWp+/3339/svi1Sijg/IqJbb721Ouf03XffLUvuuNU9VhbnZ/TaHudHotUPcuis3n13vhC9ubTJSGtqnO65V6TX/T7SxfWBRs6p0zBOH6BR01FMEFA84jzkLo4grE6tVc3ZQJ99zurxx0U6oL9VMWWKPSR5PfHEQJ3La0XEqIkiPeFYXSZXVqSnnBCqjaxqmXOUWRvq3XdlVUxjHEWaSDNVOR0/Ib6WrUkx2vL0L/J69ZU57dSxUTFhIZWGa8ojJoUI07VVVvv1i3ToFjndcw+n3znY6UGjikeku+8e6RZD8tqnb6CZjFWzTFJewRbyeFkVyWvf3pH+6U9ZnTMn0m8cEy5SZ60uXBjq9ttGSyOfS6MeemhelzQ2xElcC4RhqId8N9tUf88EevufA7UalnzUVZz4aQ+EYaiHHHJISdpdLOP4449vdn0WLFigm222WcmFQzHQ3q677qrjx4/XqMyJ5xYtWqSXXnqp+r6/XN+05DDG6JAhQzQMW5bXpxTiB9BevXppY2OjDhs2rE1zq61M/IwZoyqSb8ravEYHVo0pBMorSVqHKC6vOXVZ4aBYN8/pdtus+hFa7I8osrrzNqUSPbaQ3iDUbbbJ6RNPhhraVUwYzcFZnfWl1fN/EWnXzvk4cWZJBVCkvXsHOnuObWPpE0+UDQ1Wq7ylwfHWWy/QadNtmV+e4+CEU6dH2rP70uS1RkL9zeVZjSK73EReTlwhB1sQRvroI5FusGG2kKqkmGvLNSUe7dG9QfcfGejNN+b05ZdzOmd2fpX1zOdDnf1FpONezOkVV+R1l10Cre2YV+OFTWlDim33TKibbRbomP9YtVH0zZGrndVXX4+0ujpfEFKResbpY4+Haq1tapNzgX7wXqTGi9NeiFjdapu8LlwYlfzaVtyyl1a4z4+q4vs+3/nOd3jsscdKUqaI8MknnzT7+3//+9+ZPHlySepSRETwPI/LL7+cc889F89bzeWCFtCpUyd+9atfsf/++7PffvvR0NDQ4jKdc3z44Ydks1k6duxYglq2jGw2S319PW+//XbFhSHI1EQMHAixPlpTDELEzFmQz7X0saL06hdRm0mj0py6rLxMFWWDDSIg862fbswZ3v0st1qf/XYExHL8MZabb/PpWOMRO42W8H4SoVfPiKuv9jjuB3DkoZZPP/XQkp1DqJvj8ei/I37yYx+krfbKGFQtN98SEFDV9NsR+yob9jM0b+yuPtY6fnmRY+78pf263faO887LYIxrvblLLIsWOI460jJ2XAo0jVNHcQkrnYrYaSePc37uGDEiQ8eOHoiNl0WXWQJbGemUoVc/Q6++ht13h4suEhYvdvzzn5Y7bg959z3B2RSqinXCJ5/AqEMsxx4fceMNPrW1qZWWO2x7+P0fPc463eJcClU4/pg8kz+vokd3V9j8Yhi0mbLlFhHvTUqDWj6c5DP2eceh3y1xH7ZUPa2Llh9V1XfffbfJQlGKo1+/fgXlu/rq1jmn+Xxe+/fvX/LM89XV1fr000+3yTKkc06ffvppTaVSJWvTk08+2aI6lcryk8lk9OGHHy6LNWd1U2KISJPlZ1mstRrknYaBbd6RDXX77a3S4rQPVv/9SKRh0IK6rOTIBZHmglVbL4tv1E88HjRZslq+ZBTpASMDXbykGLK/vNYJ55zOnh3qzrvkC0sepbMAbTk017ZpqVykzqr26lXIJSWRVnfI6viXQnVlskwXn4HORTpufE6rqpeeu6o61DfeKX828mXr4FxWRz9ttWd3jXOHSWx9MibSqnSo3zsq1HffDTT4lrG+plhrNZuN9OVXAj1wv1C9VKjStLzm1JhQN98s0A8/KC7jfr2MbC6ve+wRqmdCNVj1vEhPPS2rNrTLjCuno58J1G9aInN63LGhBmFpl1wTy08z2WSTTUin003blFvKvHnzyOfzZDKr/6apqkyYMIFZs2Y19Zu20HFWRPB9n4ceeoiRI0c2nae1r8k+++zD6aefzvXXX9+iNhXrffvtt3PQQQeVqnrNJgiCZqVKKbaj2BfFn7t27cqGG27I+uuvT79+/fA8D2MMvXv3pqqqaqVlqSqpVIqBsZmnCWMMJq00OwKGZwpOxS1F8D3wU6Xd0bR6DzsBlDvvFIwWA8I1HxGlUye4+lpDx9ryWybiIIywfm+P++6L2GcvmDqNEu1SV6ZOM8ypc/Rav42CPQq8+WrE/PnxdVJV+vb02XkXC1peR+d8Hn59sU+Qi53KRZSfnwPbDF25paMcqIOb/8/jogsd2UYLeAUzjmOnnSKuuDLNbrt7+MaV3OnaGKjKCDsPNzz4b+H5sZaLLjJ88L4CguDz8eSAffYNueoq4YT/1a/VIZPx+ON1Efvv77Pgv4pzwl13pzj+pDzDt/FA4pASuw5XevdTZs2Mr/Ojj8LUKYZNNi1smy8FLVVP66LDs2qsxLfbbruSva1nMhmdOnXqGtdh6NChJbceXH/99WX371kdFixYULIM5/37929aW24OpbL8AGts0RIRramp0c0331yvuOIKff3113Xq1Kk6b948bWxs1Fwup/l8XqMoajra5D6yqtvvUArLj9PHH2+j8VfIOTlki6DFbYiPUM84PdTI5lrdV8a6QJ96ympVdanaYtXznF57bdBqvi1Fmiwfqnrc8fUqxG3C5PTWO4KyjveoYMW49+9Rwdk39lcZNCh2WG8NrLXqrNULL4w0k3FNjt54kXboEOpf7gi0vqH1krjGFsZIFy0J9Mqr8prJOEXCgg+UalXa6j/+1RA7yC9TJ+ecWmv1nLOKyV9j687WW9SrjfLLfCbSX14cqfFySqHPr7gijC1KJbqTEvHTAn7wgx+URGwA6vu+vvXWW2vU/iVLlmg6nS6p+DnssMM0m82WsddWH+ecHnHEESVpVyaTaZHTcynFz+reL8YYHTFihP7rX//SWbNmLVf/irxPrOoOJRM/rTu5Fon7NdJ+/WIn35a2w/Py+tzYSFWjVt4kFau4MHB6+NGNJVv2Mlg9/HCrobbOpN/UmsJ4r2/Ia98+2XiZR1Q7VAc6f3G+rPeD01Dr83nddFCgqYITfcq3+vf7Qm0t9+98Lq+XXOQ0lYrUsFT8bLZ5VidODDSKAi0uebbOs6F4fzp1VvXFl/PaveAEHm94sNq5Nq+/+2NW1S59kSnWbe7CSAcMCJrED+T0rbdjYeSc1dCpfvRxTruuFygmUmOsbrVNo4Zh6dpWcRGe2wuq+rVlg+aWA3HwssWLF6/REs+ECRNKtuwmImQyGX72s5+t0dJbudl7771LYl4PgoCFCxeWoEYt59uusTGGzTffnKeeeorRo0dzxBFH0KdPn+Uii1fq0vDqj97WK2lNEHFY65FtXOo82vyyBM/A0K0hXp4oRQ1X++yA4KciLvi54PkR2sI+FRHEGD77PCLK+616iYrj/f3303xVlwJ8VJXtdlA615Z3Cc45y0tjlc+mgBNBjGXH4RGHf1eQMid9dRribMDdf/O56nc5otCACE4CttlmCeNe8thhuxSel6KYd651ng1Lk7SKgV12tox7KU+vPo04jRAxLGlIc+lFwkOPgdogjh1UXK7v7HHKD0EkToAKKU44LsKIRcTgCwwcmGKH7QzGKeqEzz/1mTKtdAF8E/HTAvr27VuywaaqNDQ0rFG6hwceeKCkO4a22mordt1114qaWLfffvuS9e+yqSUqjeI4SqfTXHbZZXzwwQfsv//+pNPptq7aGlG6kdM2Y1AxfDnbEUWlOX+HaqhOt+FjVlPssKOhWzdTCGjXMpxT5nyZYubs1s71pSh57rgVXDFhMTlOPjmFKbPrqpEMZ5zlo85HFTzj+NFP0mSqPKTM9gMBnvqP4ZwzI2y41Ndlyy0yTHy9I+t1cWDafteop9UM2bSGDydV06PHUoGSD9L8+ET4dJq33A4zcXDGGT49ejk8D3zP8NEnKZbUW4oRp1Oe4cCDHcUdiw0NHg88ZEsmuhPx0wJ69+5d0hQNy6Y++DZUlccff7wk5y1yySWXVJTwERE6depUEgFgjKGurq4EtSoPqkrXrl0ZPXo0F154YUVdhzWh3Vt+ANVvt86tDqoKoq0d7Hf5OohFMeywPfgtFD/FPpk3T5k+xW+xJWnNzi2ghrHPR6j4OI3IpKs56kgo3Xb+Fc8ZT8QffwiffRY15V3bfIjl2GNz8XU15b2406YKp/3UkMt5GEkjfp5ttqvn1ddyOFF8k6EipnEBROi8nuP9j3NsvGmECDgHCxcbDhzpWLDENY0hY6BTR+HgUR7qBOfARnDSidC0NUHgwP2FqqrY6dmI8uA9HmFUmnFXAb3WfunWrVtJzYxRFK3WQ1dVyefzLFq0qCTnhThtxTbbbFOy8kpFKpUilWr5bgrnHPPnzy9BjcpDdXU1zzzzDCNGjKiIPGTNpb1bfkpNkPcI2zAhuqiH4DFyf0dVJ0ttR23hAbW1jknvAmVe8lmuHaLM+sJQ91Vh8vRgr/3rqaoWxITf8u3mnlRBLddcHWDUAxyI8pMfe3haZtcAVXL5iLPOsMyYrVDY4dSvV4pnnqkhk6nCL3fm1mYg6tO9c2deHe9RW2sxJn6ZmDpNOOdMW0iXspQbbkjRoSZqSs/x/EsejQ2O4svP4EGG/hsXdzILn09VFi1yJXk5ScRPC6iqqippXqZinqdvQ0TIZrOEYVgy4TVs2LCmpKSVQLFP586dS319fUnKjJNCto1FYVUYY7j66qvZdttt27oqLaa9W35iSnNPiQj5AN6YmEd16QO9NVEUdY7TTxUWLnQsXCwtPGD+QsMZZ7vW1acqPPSwJZ/zUBXUKf97dDVGFCjPVnPBx9oUf7svAvFxKD17KwcfnCokVi0fTkPuvEt4crTBYFAsHWojHvtPRNeuildmi1OzkViYrtcjyz1/t/h+HMxTgAfv93juuWA50eylAnbdwyLiMEZYPFd4Zkw8pyoRGMcuOwkU8txlcx6vvu5wJWh+In5aQIcOHaitLV3Sw6lTp672Z8eMGVPSJbctt9ySDh06lKSsUlAUdePGjWvjmpSfww47jLPOOqvdLnUty9pg+TFeqSwa8Rv7rbem4ge5tn6bipZp4/sYMRhciw9PwCP1LVm9S4sCzz9vClnJFUE49MjSOb+uDKd5Xn0tj2iG4uLa8B08+vZxSJkEFwAKM2bAVZfHsYtUwU8pv/+dZeiQb8umXhkoKUYdJFxyeYh6AYiQC4Sf/ERZ1KBNn0p7HuedmwJRrAuJHFx3nRb2u3qAcOgRbqleUsczYzxwieWnzWg9r/qvo6o8++yzJS1zq622Kml5pSCKIh5++OGKtNaUguIYuuqqq9q6KiWj/Vt+lF69PFLplt/fqrGD8BNPOm67VXG2bRxT44zZEC+dlOIw8czRSs8/VSUIHW++KYUM6kptjZLxbXmfwZriZ2engNja5PvKccdGZU3toUSELuBXvzbMnuNT6Gj2H6mceKJfuRafFTCkEPE569Q0QzaR+GZAmDbd4x9/E6wLQAVVw87DDN17hIj4iBjefc8SRFHBX85j2y19eveOv4/4PPWEJSrBWnLFiZ+14e233IgIzz//fEnLHDhwYEWJDGstd955J2+99VZbV6VsqConnngigwYNauuqlIz2bvlRNXjGUtOh6PDacqLA4/xzU/zlrogocgX/BoDSWW7XXuL+mTUrYsFiRTXOAbXLroJnq8t6Zusckz9bKljX76N89whT1jlK1TDzi4j7/+EVNnFZOnZUfv8HS7q1AkkXhqRzihL71yxZbPn0E8snH8Onk2HOHIcrjuOmHcfLi3sRobZGufMexfMUsOAMV18Bs2YpSuzLU9XBcdo58TKXqlJfb3j+eYXCTrpevWDQpooUtot9PsWQy7a8M5L0Fu2UY489lsWLF5esvCFDhlRMvzvnGDt2LOeeey7Wlte03dacdtppFdPvpaD9W37i7e6duwbMmFEKx3NBgfpswBlnePz7X45zfxGy6+4pMikved59K/EOq88/E3KN8WSoCsf9QMFreSymVTHpXZ9sduk4HL6j4pV7ynSG3/3RIwwFRFCJOO1UZeBA02rvAxaHWsuXc+C2m2Dcy44vpvs0NLiCBceQrrL07OGx5ZYRxx6n7LmXUuUbMMuPZyeGrYfCId+N+PdDHiKGWV86nnkeTjreAj4iPkeM8vj1hYpIvLT517uVA/aPy/BTyqaDhJdeoNAHSi40dG5hOytO/CQPgtXjsssuK2l5lfAGqqo0NjZyww03cO2115bM0XlZKmV8iQh9+/Zlk002qZg6lYL2bvkRYtecrbc2fPy+h9X4ty27PxQ0TRA4Rj+rPPOcz/BhlkMPh733VrbdxhRWUrTgzRJP6qrxT2vJxrdmEk+4E183uIIriDHKbrv4ZYxv41A1/OfpHFGQLghUw1FHeZgy36uNWcdtty194VtvPeF//1fw/TTlfiHQgiXy/UkhN96Y4h9/CwjCNODFo1KXtXoJc2Yr770H9/0Dhg+HX5yvfOc74PsRRSd0cZDJGC640OOpJyLyQbyMeO1vlGMOF6prYrG06WZKh9qIbH38vdffsGjhvCAM2jQAiXfYqTrefkc5YGTLhG/FLXtVwiS8LtKWE3BR9Dz44IPstddeXHLJJSxZsqQsY6FSxpeqMmLECGpqatq6KiWl3Vt+xCEIP/qRKSx7leK+KJShBpzBWo9XXvW44HyPvfcxbL9jyG8uzzL6PyHzFgUEgUGtjV1qlokMV9zgUMqNDpVPPPlNfFMLEYItitCxVsvre6OOF15IYzT2/fJTIcN3siDl3eX14gQLWlW4vpbddrFsMrh4rcv7jHZWGTPaccCBhrvvzBGEVRR9jpQ43MCyuxZjXzIf1RSvvKL8z/9EXHxBniAfC5g4zhUgwtZbwRZDXVMbpk03vPnu0usnBjYeIIg4FGXOjBR1dYWXDoWhQ3zSKVP4rOGRh1p+7RPLT0LZWda0X/x3FEVMmTKF119/nYceeojx48ezYMGCsj/YK2l8HXnkkWsU0bs90N4tP8XzDtvBo3MXx4KSZ0SJA7ahHk6VxQuFd972eeftFCKWlC/06p2j/wDD0KHKjjsqmwzy6N/X0LOPJZX2UI0wpJr0oQqIKiqCUBRsxaP909joMX26Lax4+NR0UKo7QLnapyhRKLz1hqCFUCZdapVePQVKlVH86ydFFa6+0oGm4q3fHpx6agopt5OzQhiFXPtby+WXe4R5A6RBQowY0mnYdlsYsoWwQV9HfRY+eN/x3nses2eDQzAYclmPP/wxzYRXQx6+X+nZJ910iVIpn5+fpxx7TAQYrDr+9S/YdSeDeA4fx3HHOc6/OEJsmsBFfPSBR6/146XhbbcV0hlHPojH9djCdviWPM8rTvwka+DtnxXFi4gQhiFTp05l8uTJjBs3jscff5zZs2fT0NDQqm+xlTK+jDEVGVSypbR7y0/haZ1OKwfsq9z3r3JYC6X47hz/2OT8bAgCmDEzzfQvYPw4+D8EPxXQodqnQ62wxVDH8B0NW22Ro08/YeAgn17rE68voKjzy2kQaRMWL4avCsHZFWWzoRbfK9/UJXg0Bko2C04VCNl5V5+qqjJ2rATYwOfNiSaOrajC4IGwx16xX0w5cRpx++3C5Zd7REExPxj4JsdJPzZccLHQp3sGLyXxDi0Mznk0LFaefMJxyUUh02b7qIuFycuvpdh/1CLeesuAek2x8HbfXcmkIR+As8K452BJg6NTR4NIiv85toHzz8+gxhCFKd5+S9hjRIhHmt59DF3XU+obBKfKwvqiv1zz211x4qcSJqaElbOicPgmIfHll18yYcIEnn32Wd544w3mzp3L3LlzCYKgzU32bT2+iufv2LEjXbp0adO6lIP2b/kpYCxnXRhw30NpjPhfi0xbTtQuzcIlgA3TLAlhyWKlbrYwdgxABpHY/6W6g6V7T48+6zv23tvx3e/6bLd9HJdGncZiSCyqhQQXYimbBaPkCPWNjrlfFX8KGbpJGlPG6ivKokURuZxfOKdw0KgAqCrbOSN83n7PkcvFW/lFInbbHTJpv7joVIazKqrCu+8KF5yvRIEhHhcRfXpFvPRKDRtuwPIhDcRDiAMZdu4qHHOscsTRPr84L+Sm/0uDdYiFSe/Vcu01HuedH+AJID49ugl7jYh4eozB4PH+BzB3bpZOnWJfnvV71iAmQp1ixPHGOxbjDGriXXAbbhjyxRcGwZBtVJyL02Q0l4oTP5XyZr6uUxQoK7sWDQ0NzJo1i9mzZzNmzBieeeYZ3n77bZxzTSpfVTHGNP27lJGwW0Jbj69iH9TU1JQ0QGal0P4tP8Wze2y/jc/QwT6TJi/1VWhblq+DKlgrNNQLDfUw9XPDhFeFq66KcGoxGDbaIMX3jo0YdbDHkE0jOnWLkDJO4qVH+aouIAyLMYZ8Bm3myrpcLAjjX1iqrhyGHYaV7XQAeFhefikFxM7OToX9DizWoVzLe0I2n+fIo1LU5ywGH4gYsQ88+kiK6mrBEWBYRW5FA2nf54brhL69Ay7+ZSrO0+WE31ym7LGPx847moLfFIw8AMaMtriCL9EXX1QxaGDcvjgVRjFTm8/770U4MYWQUkq/DUzh+Slk87FwawkVZyBtL8Jn2Ym8VHVua3FQPH9RsARBwKJFi3jsscc45ZRT2GWXXejVqxedO3dms802Y++99+aaa67hjTfeaEod4dzSvCvL/rut21akrcdXMbDhbrvt1qb1KBdri+XHIBhJ8/wEpcpIIYlnZYzhrxMHwxMEcRQsPBmUFJ9/oVx9tceuu0Z06R4xcKDhhycFfPgR5IMQdcWdRY7ixFtZCPMXehjjA4IRpXvPMp9S4eVXYodzEcEXoVu3cgfZEf7xgMMUTFqdOytbDClvEEdBeeIpw7QpBrEpVEP69PG55x6o6WAwBoysOqm04CEGVJRzLxAO/m68zCUo+UC54OfF7fHxUv93DhRUlu4ae/u9ohN1LH7W61S401RpaKxi8UITG54U+vQEHwNEOCvMXyQrhhZaIypO/FTKJLk6WGuXm+BbSls4vxYFSz6fZ8aMGYwZM4bTTjuNjh07Ul1dTZcuXTj00EO58847efXVV6mrq2sSOm29hNUc2rq+xT7bfffd21yIlYO1xfJTZL0uETfeDCJ5xEiTeK0kVrwPV3pvqgFSfDFd+PNdPkOHODpVGY76nuXlV0Ma83naKAD1KlEc2XrTNEFahe7rlbf/VeCjSUut1g6lW+fyjkdRn7feEJyLLdPduin9+pS3ndmscusNSxd/RJRrf2vp3csv+JCtCR6GNHfelaNz5yyxtDC89rowe+7SvltvPaFrZ6+pb59+DNQtnfe22n7pkm99vWP+f+PdXiJCt/UNItqU3mPRfFr0jlRx4qfSHiyrIpvN0tDQULLyBgwYULKyVmTFbbLWWr788kvuvfdejjnmGDbYYAMGDBjA/vvvzy233EI2m/3ad9cGKmV8DRkypK2rUOFUxnVSTXHiKXDhJR6YoPC79ngvxL4SzvpNsVNCNTz0kM9uO/sMHuhz9RWOujkRtni/V4DVVjAsWhL/i/9n77zD4yjOP/55Z/fuVGwZueOCMQHTjTEONXRCwKGX0DElgQAJBAgm1ARChzhAgISQhPojhFBNKMam2TGE0Jsb4GCDjXGRm6S7292Z9/fH3klyA1u6k87mPs+zjyyfbndmdnbnO++8876AGKFL5yJlcc9hraVukckJ3ViMdKrJFvWaiMXZZkvPwI08qjsX95Jz5yrjJ2ZwOWG5zRDhoAO9nIvPmjlVxeU2dKqp5LgT42VVVSUMlTv+2Gzdqa6GmtpmC+PEV0NcC4Pj5ptqzicNGuthSX2A5iySnSrjAIxgMCrM+qJtYQdKTvysLS8WEWHRosLug62oqCh6/RcsWMBDDz3EkUceyeDBgznxxBN5+OGHmTdv3kpnj+sapVAnEWHYsGElI8RKk46/TwBiFM+Dy3+V4OijA6C4cV46ilmzhd/8xmfHXSJG3RRRY24MdQAAIABJREFUV5fB5dYUOrafOqKg+V2k6qjuXFxXVXVCGETkBVeXLg40VdRrWvWWyXs7cGAcSbmYzPxccLZ5WesHw5XqTm0z/3nA+WcLnhdnaVcsL41tFquVFUJNC1GXyfo0ZvP9DHr2cU2PfiarNDQkyLdDt16FbZOSEz9r04CQFz9tKXPL73qeV5T6Z7NZXnvtNc4991z69+/PcccdxxNPPMGCBQuWKUeptH3LchS6XKVSx1IQYWVWh9hKkqpw3PXXBCecHJFIupxFYO2/h/lFBsFHEWb+L8WvLhS2/67HE6MtURSgbXGsaCOqhsWL4yUUyAXWE4rc9kIQQC6eNMlKs0ywyWJhnN/0XujX36FFelepWlRhxkyba0/FiGW7bfw2vx8F6L9hSJ9+Jt5pKEkW1yXJC0kF+vQV8s46Rh1R1Ny2fXvHEaABbCREUYvxMRd+XVCcRCxYVI7w3GHMmjWrIBaS/AA/cODAApWsuR1feeUVDj/8cPbcc09uvfVWMpnMSn0CSsnS03Kn2YABA+jcuXD231Koo6rieV5JlKXM6uJRlUhy5x997vyTY/3eFqQ0fYBaQ/M7IRYc//ufx1FH+Pz4tCQNDR1Yv5yza3viHGQDv33fidL8zlNVkl/vZ1wQ5sz2cGpBhVSFoXdvbXtTKxjx6dc7FlQ4JR20kBnLPS9ODI2Npqmda7uv3sYCEUP94raVt+TEz9r0Ipk5c2abz9FyK3hlZWGyFKsq8+bN45xzzuGAAw7g2WefJYinMiVN/t6LCD179uTss89m9OjRdOvWrYNLVlhkHRo0vzUIIIZU0mfEST7jX4XDDs1Q2SlCc0th64IlCPLWFQ9nDffdF7HvXpbPZipoR1mAlp2kFf1qThDN7/DLUeSqC2CXcbMpYhDH/HuWlpY/wZhmi0zrTw44wfoRUS4vnmizoFnhjafx501lanl7W4wHzSePt7qrCkjbgj2VnPhZW2bDzjk++eSTgg1iIkJNTQ3Ota3zWWsZP348O++8M7fddhv19fVtPmd70rt3b8477zxef/11fv/739OjR4+OLlKZMssgIgwc4PPQwxU8P8ax8y6KnwwoFT+lQtBk9XDxjp39980ye/ba8x5pC+JZjNfs89NuqGuaCLfHO7uiKpcfTSCTdSxY2CyGWo2CNY6FcxMY8QElkVg+PlULMYuSTDV/HjYtN37dJeLPvYRtU4TnkhM/awvGGN5+++2CmUZFhO7du7dKSOWvn81mGTlyJPvttx+ffvrpCg9QRwjLr6tP/jPP8zjmmGN4/PHHmTJlCjfeeCMbbrjhOmsdyS97lVl7ERE8I+y0o8dLLxhef8PnjDOyVFWkwbOoF4uhfKyYtcnat+wW+TidwdRpPgccZFmyNN20O6g9ECXnhBtb1wwexXqN5ettxFBZlb9PDo00FyqgeDgNoYUFZNbMYroZxX5Tm26e88PReKnvgw9oc+BAFViadvzvsyj3e0hNF4fmhJ06Zc6cFo7LIiRbhFCa8mnYwuJmm76XRyTOXSfq6Le+tmm+URY/raSuro45c+YU7Hye59GlS5dWvRxFhMWLF3PQQQc1+fWUEsu//Gtqathiiy245ppreO+995g7dy733nsvBx54IDU1NR1d3DIlQemLBIiXiPyEMGRrYdStKWZ8keD5sYbdd4moqXWILDs7XQu0z0pRNbz3rs/ppxpMO9+bVCU09wdHGBZ7DUoRY8mPrPMXgJribq/3RDAtRvL/zdRWxNpZMwb0A0zzWPHC85BOt+2aonDHTR5h6CHiEPH57nfjiNwiQhApS5Y0XyPlQVV1ficfLFmQQHIOz9VVHuut17xktmBeiNMC+CXlKLn0FmsLkyZNIpstXOyHTp06tTrXU11dHYcffjjjx48vqrl0VSkqWmZsX57KykqGDh3K9ttvz7Bhw9h+++3p2bMnVVVVTUEd14bZcJn2Zm1ZQmq25iQ96NbNY6/dHXu/nGJJo2X6pAT/etbxzPMh//2v4sJkbkuzw2DaPNNuLwRBnfDk6ARPPBlw0EEGY4od9RhUHNWVsXcKgGrEggUp2prUcmU0WaJ9oWuNaYqH5Jxl6WKoKWIqPnUJnGbjiMkifPKxJUz7JArjBrpS1l8/ZLttk7z1ZlzP8RMiJrys/GA4kEs/sbqoxlaZbJjhzjuS8e5BFbyEct4FXtO5Ghosixc221yGbe9yy2MxU6d4GASHUlkVR5rO35eGxgSeKFFOAPVev222m7L4aSUTJkwoqNBYf/31WxXhOYoi9txzTz744IOClWVNERFSqRQ1NTUcc8wxnHDCCfTq1YuqqioqKyvxfb9pG3/LPF+rI3qstYRhcWdd7c26LPbWlfQWbcEYg2LoUu0zZBhss53yq4s9shlH3WLlg/eFu+4UXhlvSTd6BNmV13VV/WT5vHvtuZwdhRHXXuuz//4BqVSccqKYCEJVJwvEQksRFswv6iUxKmy6hcdr/9VcCYTFjX5RxQ8CW26RZPLkuD0X1vl88aVl4EbFG6Irq5Ocfrpy2pvx79YpZ//C8PZuSlW1rJG4jFNQGH59eZLPF0TkpcXgTR0DBzQv8S9e4lG30DX13T2/L8skqX3/nQxKEhGPzp2Ubt1zlh5V5n7lcBonflVxVHdum/guL3u1gnQ6zejRows6iPXv33+Nv6OqHHjggbz//vvtsi0zf/5EIsF2223H2Wefzcsvv8zixYtZunQpc+bMYdSoUQwdOpS+fftSW1tLRUUFvt8cP2L5n9/E0qVLCx5MsqNZW5z6W8O6lt6itTTtTxEwRvA9j+rqBBv09fjh/sITTwh185XFSxxf1acZ/UzEry6CHx4gDBqUwfMbUUKcgJMAD4dqtEJ4ivbGapJ33nE8/5y/TGTe4iH06CZNO+kEj/nziz8Z2n6n2P9FVXEiLFpY3AjPgnLI4c33s67OMnWqX9R7LCg/OtLQu7dDjcNIkk8+gXPOtQTpkNV6BjUOPIlTHh0d8PvfO4gqUCKMF3LZlfndXnF/femFCJHmMAI77xQ1PSuq8MWXCVzOJ6miKqSmJt55BzBnXpSzmipGfHr1sG3S3mXLTyuYPn06H374YUE75s4777zG33nqqad47rnnClaGlZEXKTU1Neyyyy6ccMIJ7LPPPnTr1q3pM+dcUZawVJVZs2bR2NhYsHOWAmXLzzeja7HlZ2W0vOd5q6fgk0wYuid9Dtgf9tsPPHGIqyCyyuQpEe9/4Jg6FSZNcrz3nqNurkdjRgmCvHNq+wugKPK48y8RPzyoPa7m6N4rTmhqFRDL5/+LM4cXa8+AE9hxx1gcKIK6DJ98nGDrLYtzPQBE+P5ewrVX5X+Hl160/GC/4tknDEKnzo4bfqecOiLCOgE8/vYXRcMEt95uqap2CKu2sKhY1DmefsZjxPFCFOYTkWY59HDDwQenEHGAh7WOceMMTnKWIYH+/V3Ot8ngHPFNtQ6njk03F3wT93AVmDUzbgtjDJUVgueVl73aFVXllVdeob6+viDnyy8BHX300av9Hecc6XSaY489FmNMUfx8RIREIsEuu+zCZZddxg477EBVVRXOuRV2rRQrIauI8Nprr61zlpJ1rT4tKVTNVF28w2bd0kBA7CQNgFl2Y7EvAAYVxfOFrbby2GorxWluWUGETAYaGy1zZxvefDfk5ecNH37kMfUTR7rR4KxDxeRC8hS+8fJ9d+J4YdFCS9euzf4cxcFQU6107Q7z5iqoz/uTQpxLFE38GGCD/pBIkov0nOCxRwyHHlKc6wEIju2GCsYPsWECxOOFcUIYhST8ZHEc5UUwIhxzbMT7b6cYdavNBRvyuPvegKdGh9z4hyoOPihD58pUrFc056vmIJMN+ODDJJdfFDDuZXAugaJ44ujdP8F99yTIRxMCR11dxDP/8hD1UCwbDVT69EmhCKJQtzgDLhlvvwe+O9SAiUAMBuXzWfHzohqRSvmIieBrhNk3URY/a0g2m+Wee+4p+Hr7xhtvvNp/KyKccsopNDY2FnwgzQubbbfdlquvvpp99913mbq2Z+Z55xwTJ05st+u1F2XLzzfhmDWDphnht43m/hGP7l6sfFCFqgqoSiXoVuvYYosUJx4XC866pSHPPWkY91LEG28In36SJJvJ+9VpwRyrYw8MZWm9x8svWw47VHJ7sovXp6urHT17CfPmCgpM/sjH2hXjxxQKxVKZMlRWClEITmHMmIAwSpLw18wRePWv6aiuMmy9jeH9txTrDB9MUt55F7YfVtznwNMEV/zWsXip5Z6/GkIFIcH8RYaTjg9Yr4ty/IlZttwyRbdujmzWMH0aPPU0vP2uw2kFRhXB4WMYsInj6ceSpCryYkVRgTffMCxtkNiMI4bd93DxshYOFcfoR5JgQnA+xovYdps42KYqLFximTfXi3ufetRWkwvK2HrK4mcNUFVeffVV3njjjYKet7KycrUdgAHmzp3LY489VhQLQm1tLZdeeik/+9nPVsg11t6DdhRFvPvuu+ucpWRdq08TbQu70QJDow0ov57y5JeUc78KCM1WMQG61aQ47oSI445Pkc1a3n034vbblGefcyxamMJqYQbQvK1KnfDCC46DDwnxpLi7vjrXGPr0CZn0QQpw1C3yyGaVioriiC7BkKpQvrNxwHtvpQBDujHF/PkR6/d2tMXasOpr+uDDqSMifv6Oh3EQho4//8lj+78UeRIgQmWlx823eKy/fsT1N0I2o+B8BI8lS4Q7blMcFpFE7JyDQ0gBikGbYpdtO6yeJ59I0KuX1yR84qCNyh13ONCcuU4iDj0cPOMDHqoef7m7HuOqUBUSns9mW+b/VvnoPSEbaNzvUYbtqHGbtYGSm1aV6qxYVXHOcdtttxX83Keccsoa1fuqq64iiqKCB03r06cPL730Er/4xS/wfb9drTwr46233mL+/Pkl2yday7pWnzwqDtECRIlFmfVFHB22zJoQJydNVRh22NHnvvuTfDAlyS/OcyQrHFKwHA2C4vjv60pk48GoeCiiyrZDk4g4FIc6pX7p6uWAah1xW+2zj8GaOCBfJmP44P14F1+xUFWOPS6B0diTXPB5foxj1uz2CYiaqnD8+tfCE49ZBm9JzlcnttooLn6qnY0nb2JQcTlLoKVrreOqq0MmjK+gV++WCVLjnzNnWl5+OS8ald5dhe99r4UfHPDJJ6kmP7auXR0DBuSyvSu8854lm43bXsVy4GFt97YvOfFTqrNiVWXixIk8++yzBR+8zjjjjNWqt6oSBAH3339/k69QodqrT58+jBs3jq222qokItGqKrfeeithGJZsn2gt61p9mhF8rzCRab+YSS7J5rraVsVBcn5DOfMQvborN94gPPOM0KW7LeBzbfj042TspFrEJS8FxBh22SnOci7EQRbfereY6Sc8EJ/99zd4fuzj6BQe/Ht8zWLtrBURajorBx4Ukq/bF186Hv67w9qIYk8GDPEy0777+vz37QQvvAQ/Ohr69w3xvVwgRgO+B75x1NZYdt4l4pZbPD6YLFw4Ukgm/aYghXGlLGGk3HgDNGai2GgkjvMvUrp0bpYfM/6nLFiQ658iDBvmmiJ5q8DUyX5z9dVnzz3abhUuObtyRw+6K0NVCcOQM888k2w2W9COX1FRwcYbb7xa9RYRpkyZwpIlSwpahmQyyQMPPMBmm21WEu2vqnzxxRc89dRTBT93KdSvFMpQaOLe6Oja3WCAts7LZszUeItrkadniiIaz2BFCue8q2rjQaCDb7XgoeLYcw/h6X8p39vZIQLOtd0+l84qixZDZc/i+fwIsZ/PZps7KiuFxgYBE3L/vcpB+0fgFW/JbcedhMoKpT6Il24mTIi3aJsiPr/GN1x9jWH0aEVdvAR3/Q3CUcdC3/WlXfqTiEfSg913g912c4SBYd585bPp8SKXKHTtLgwc6JNMgOcpsWBcSeEUPvnY8re/Crh4ZtSlBg451GteQlXLv54LEeOBKp5Rjj/O5Ja4wFlh2icgojlBFFFVZYC2WcRKTvysie9Le/LQQw8xefLkgooOEWH//fcnmUyu1t+rKjfeeGPBy3DYYYex6667FuycheCee+4pyhb3Uuhf66o1Q8VhcrPzts1ShYULYkfTYpumBWF+nXLyCFhQpxQqcVQiZRnzHFRUdHwON8ntINtxmGOP3RwvvVKYJUVrhcalQM8iBzoUoW8/j+oqR2ODj6rPuOfjXW3FvHIiIfTrDVOWxL9/8XnEK6+k2GP3fJC+Ylw9ZJNNfH7wfcvzzwtOfebNc1x2qePPfxX89lqskVg4C5BKQd8+Sr++K/mjZX4ui6oSRoazzgwJQz/e5SiWs88WBgyItzCqKs7CzaM8jMbLtpUVygEHKyIhqj5z58LHn+SFj9C7p5BKRqxz4qejB6aVsWDBAi688MKCiw6AM888c7XrHEURL774YsHKAHEHPeOMM/D90ugKqkpdXR0333xzUc5fCv2rFMpQcFQRPGpqNM4B2Ub3koV1HkEIxdcOSjKhzPlKePsthxYogaWfSPDGf4VdvucQMR2e00sQ8Co574IsL75SmEYVUVw7peeoqvDYemvLiy/GPjhL6iHjIiqLmGJDNOLyKwOOPboCEZ8o8rj77pDdd/UQUxwrjJAg4cFV12Z543WfusXxLr+HH4YjDxf2H54bg9q5Q63pOyvvC/SPh0Im/DvesWXE0bU24PQzE3jkrKyivPU2zPgsQNRHRdloY6hIenGQSWDqtIBZX8T+VkaE4Qd7JP229+Gyz883kE6n2WOPPZg7d27BzpnvSFtttRW77LLLan+vsbGR+fMLG9t9vfXWY9ttty3oOduCqnLllVdSV1dXtPN3NKVQhkKTnwlXVpiCeCYsXBgyc1ZQgDN9E0JVtWGDAZoTPlKQw0YZnnveIhIVxgmqQOy5d9uXu/LEgSiL6Xi8LHvu5udDwACWF8cWObeYJDnskE5AhHOKqs/ECT51S5Siaj6BbbfxOe2sCIg3tmQyhh//NGDW7BBH6ftBinO884Hj3PNSWBdbgj3P8ZurfNbvaRCTyxOpcPsdIWorURE8A2ef42JxJ7HAHP2Eh4sScaIR49h7nyymAGEOSk78lMKsON+xVJVzzz2Xjz76qKBObvl4OSeccAKpVGq1vzd9+vSC5rkSEQYNGrTay27FRlWZOnUqt99+e9PvhaYU+lcplKEYiAibDIK2D4aKkSRjnvWwLiz62OoZYcjgfAqFwuyIUk3xyCOKqN/Rbj/LkPCS+TGlzcQyr9hBDnMo/GA4JJMWcCjCw49lsS5O+1EUBBKpNDt8twI1sdSbMcPy739TsOXRVaEijDzfY+ONYn8qdR5zZqX48akJMpkE1tnS3AypcbmyGcOhwxMsXCC5Z0DYaUfH6T/xyStYESG0ytix0rSBp7KTMHx/YmspAi5k4sScJUkUQdh1ZwrS/iUnfjpa0eZ9Qqy1HHnkkdx11114RQglmkqlOPHEE9doIJw2bVrB26d3795rJMCKyZIlSxg+fHhR+0BH969SKUMxUFU27F+InYLxS/GFcYIxftEtJyKwz76CYpucLNuKAv/71PDZFwYo0uDcChRXsHFbETw/olCC8WuvJbDdMKVb19zE1AmjH0sRRbLs7qICIjiESq66LsRoPtCkzx9ujoPyFRMjQs16cO+DEVVVzdsHxowN+PkZimNJca1PrUUgnXEccqRj5ixt6mu1XUPuecBj+egpN14fMOerWECLCDtvH9K7d84qhDJvgfDRJJMzPsCGAzP06F4Yi1/JiZ+OnhXHAZkcJ598Mo8//nhTfJ9CX+OKK66gZ8+ea/S9efPmFbQcEIuwUhiMrbVceOGFzJw5syjpOvJ0dP8qlTIUHoeIMmirAJW2x+AQlLfetMz50lJ8y4Jhg/6OzjWFG0QFIYqEc87VeDt4Bz9iSmwxnjHFxEtxbT6f4iUcNZ2K5fi7PBbnLJtunEA0wohhUZ1j7IsBSKZI14yHx712TdC9VhGJDQ7jJygTJiiqNk7DUhQEEZ8dvmv41YWCEQdkEU1wz33w64tqiYIO71YtCEFDXGTYb7+I559zxAGYHVUJ+MMfPAa0mBg5dUQh3HtvErEeoqCectW1ccBDEQEVnh9jyDRC3Mcihv+gMo4cXYB3aMmJn44ciPOJNIcMGcKDDz7YtNRV6DLV1tZy1FFHrfEN/PzzzwtaDogFlbXtkp55lTjnuPTSS7nzzjuLKnygNKwupVCGYqCqbLJRAmcL81qZNRsuutjibPHbq3dvn369XYEHE2XcsyEfTqLD/X7yySkfeEgLY6gRoboiost6xU1t0YyHMR7n/4p4SzSCZ4R7/5YErSj2pfnlBbHjcbwqYLjldxSsn38t4nHxJY6fnGZbxHAyXHdrwC/PcYTRUrQdLG/fhGLIZIU991YmTAQ0ARh8I/z8PDjmGLfMeCdEPPxPZeaMMPYaMyHdOzm2GTq/yZdbiRj9GNhc0Mdk0uOkkwpnnS058dNRs+J0Os0tt9zCoEGD+PDDD7HWFiVvljGGkSNH0q9fvzX+fqEjLqsqs2fPJoo6zixvreXhhx/mhhtuaJfgiqVgdSmFMhSeOEBadSeHFmDjYLzmn+DBBz3uvCvARhFxNB4HOFQLK9g9Ixx0kICJCraRRsSQzsCpp0K6QXEdMEg1vcMcWBty70NZnBTiPWIZso3Q1u3Gq4sQx5/ZdWdHbXdHvAQlPPtMSDpd5AmFgbN+7ujZOwRxiPo8/azHi+MULfb7Ch8xCX7/e8sRRzqUWCyYIMVtdxr22SfB/K8UdSFONfdctJ/QVrWoC5kzy7D11sq/Jwjikog6/ITj9NOzXHVVFiTZtENNVckGwvXXWMIwFb/3gX8+4uHTI3cvQ2bMECa8HqexEHEM2MCy1daFiyhecuKnPWfFqkpDQwOPPvoo22yzDeedd15RkoW2ZPPNN+eMM84omQFw+vTpLFiwoEOu7Zzjuuuu48QTT8Q5V7TIqS0pBatLKZShWIgIyQIM8vm+YEM46wxhxAkwbVqAc0FxYjUJ/GC4gJMC3x/DO2/6nPnzeqKg/cVPU1JiyTJ2rOOL6RWFWTJQYegwQbz22+0FUF0j7LJLc5TldKNhzNhiX9VSVeXxqwsNqlnAEYXCRZdnCDLtYzVPpiq4/94ExxwlmBbLlhPGK4O3crz4kkFdcVYqVoVzjjCChx+3bLm55dNPm53fTTLi8suVW/6QwpgVfUpvviXkw0nNz0O//padd8/VSwRVx2OPOuZ9mY9sLRx6sMFPQcEsjdpGNt98c5V4m0SbjwsuuKCtxVkG59wyP/NYa/Xzzz/Xm2++Wfv06aMi0nQUoh4rO0REk8mkjh8/vtX1ueSSS4pSrr/+9a/qnFuhnYqFc04bGxv12GOPVd/3V6uMhajrfffd1+oyZ7NZ3XDDDQvW7ul0uoAtWjpYp9q7R6hgFawKrk2HEW06UpWR7rR9qPfeF+oH71udvyBQ65yGNlJnrTrrcv1Y1TnVpn/kDudUrbOquY9a4lR1yRKrAwem1Zi2l7tl+T2j6plQL7kko5lMqNa5+ILtcj+c2ijSz2Y4Xa9LVo1oAepl1fcCfe7ZQNutIk04fXZ0qIlEpEacesbpFps51ShUl7u3xWLJkkAHbRKoYNWIVWMC/dOfI3U2UtXiXjtPkLV6ztkZ9f1ARYK4HKKaTAZ63LENOntOVp0L1WpYpBI4tc5qZLM67dNAhx+YVd9EuX7uVAg06Tu9+KKMOrti33A20plfZLVv37jsnlj1TFaffrZBrcs2/V1jNq1bbB7XTcRpyg/17bdCdQWsV2lEtmuBFnhWl06naWxsZPHixUybNo0xY8YwYcIEpkyZUnQrT0tEhAsuuICddtqp1efo23eFEJttRlW55ZZbOPLII+ncuXPBz78ypk+fznHHHcdbb721WktuhbxHhe5fZZZFcPzkLI+rflOY87W890FaeP0tx39OUlK+wU94VFWGdO1m6NZd8HDUdo/zMcGKceBELBtu6LjxhuRKl7aqqx0nneLxm19HCImC2DPy5ReU62/w+Hia46YbHf02AKF4ISZaXnfGbNh33yxLlhTuep06wY47xlfIz8zbix/s79OlS0Tdgjhb+IxZlskfK5tvWtwyVHQSbhwFhx/qUOejmuWSCxPsvU/Ixhum2qUJEknH736X4DubRIwcCUHO19uGhr//I8nYscqZZ8FPfwI9148DbBYSp/D5ZxG/v9njnrsjliw1cQISiS333XvB/fcH7LOnv9L3bGSV886Br+bEViIrGQ4/FL6/TwKVZjny7lseUyZDnHYG9t5X2HIrQAsXXLJkxI+I8Pzzz7NkyZKm31uL5hKALl68mIULFzJ79mxmzJhBNptt+rw9aFmH7bbbjpEjR7YpkvLAgQOb4iEUkg8//JA77riDX/7yl0XZ1q/5JQxrufvuu7nqqqv44osvVrsePXr0YOHChQXxwyoLn+IiAkcd6bj6CgUMWtD9uILa+PnJBvHR0JBg3nxgavx5/u9WhuIxZMjKnz8BEI9TT7H87iZl6eLCDehxLDcfieCfjwjvvOu4cKTHMceFVFbE5Sl4v1RH4OAf/wi59soEn0xL0ixUWkdzGR1DhkCnpt1x7fhMqYCnHHlEljv/HOd/aqx33DJK+OOfdLlyFpYEHrvvlWGPPT1eeDFCNMXCRXDZxT733Q++1x4TKx/Ph5/9FDYcEHHBhQEfT61A1aBWmD/fcOWVlgf/TzjscOXwIyxDtgHPz+3KUyXemfkN8ZnUEbv/O4QEVuGVF0L+9S/hySe8OISDSwIudvtylt12hz+MMmyxjcGYZccRp7Gj8pgxytNPC9bG/p2+b7nmqhS+F8cCiscJuPEmyflTKYjlR0cIiWRzPrCC0FbTUSGXvQp5tCxTR5Uvf90+ffro5MmT29rU+vHHHxetLslkUu+55x4NgqDN5VyedDqtL7/8su6zzz7qed4alSsbC4A2AAAf+klEQVSVSumVV16p1dXVba77fffd1+qlvfKy1+oS6dJFTo2ETSb5wiy1tP0Ap0OGrLgM3hLrnB52sFORwi19tVwCEyIVIk14oW47tFH/fFeks2anNZMtzLKJs6rzFmT1kccadK89M5pIhGq8qGDlN6JqjNO//CVecmxvnHNqrdWv5llN+laNxOXq1y+r8xdki7x0b1Wd1f+8ltWKStX80q7v1es/Hw/U2vZZ+lJVdRqqc07nLkjruedbremUVZGw+XkTqyKhdqoKdZedM3rjdaH+579ZnTsvq40NVp2LVl1L67R+aaBffhnpiy9k9bLLMzpkS6cVqUBFckt+uefDiNPaLoFeelmoS5cG6pxd6fKjdaqfTs9q374ZFRM29afrrktryz93zunMmRlNePH7QyTUDQYGOmNG4celdVb8lMIhIlpbW6tjx44tyENZX1+vtbW1RStrIpHQk046SSdNmrTMg7w6ZV+ZX1VdXZ3+5S9/0d13332NRU++TMcee6wuXLhQ11tvvbL4WQtwzqpTp1tuGapHusWgv3aIH+ecfvSB1dquGfWkMKLh6wWF1U41TvfcO6tnnxPp3X+1+ur4SL/6MtIoilSti9s0yvkJOVXnQlUXqbOhNjRmdPJHkf7ryaz+9gqnhxwUaf/+TsVEOaFVSBEXi41NNol03vywXf0EVySjB+9vVYgHSSSrvxqZ1chmtdh+SGGU1ZtuChU/yA3QTmuqMzppSrrd2yMvBl9/s1FPOiXUyqpAjaRzk49lnz0jTtfrEuiQIaEOH57VESc5Pf8Cp788Pz5+cZ7VESc63ff7WR28tdVOlVaFYAXxK5JRMZF2rQ30Zz9L67SPM6ts8lgIRdrQGOm+e6dbCOhAd9090sVL69VpsxALMqqnntKonskJWy/QG24MY5+9At/Xsvgp4pFKpfRPf/pTwR6IKIp0iy22KEpZ8/fQGKNdu3bVc845R9955x1taGhoesktX4+W/xdFkWazWV2wYIE++uijeuKJJ2q/fv3U87xW948uXbrotGnT1Dmnm222WVn8rA04p6pWr7gi0+Q4vDaJH6uRqlM95Ih69UxxxU++XSBSkfzM3Wmn6lB79gy1X79Ih33X6m67ZfXQQ6wefEikBx8S6QEHBrrDsEA33SLUPn1U11vPaTIZKQSx4BGbEz6FL7MngZ59dkatjQo+GK0JkYv03Xci9T2ba79QN1g/0iVLMqpfY9UoBE6t1tUFusfuGfU8pwargtUttop00fxmp/v2xDqrQTbU//4n0iOPCrWmU6jG2OWePZsT9FEsYCRUg1MkUiQvlMPYukOgxlj1aLnpwKpnrNZ2yehpp2f0gw+zGkU2194rr7BzTsPQ6m+vSavnZZvOVdU5rf/5TxAL+Rb8b0a9VlTH/dhIoJ2qI53xRVaL4VBeFj9FOowxOnLkyILOBKy1etttt7VL+UVEjTHao0cPHTx4sI4YMUJHjRqlTz/9tI4bN07HjRunTzzxhF577bV6wgkn6Lbbbqt9+/bVRCLR1B9au4POGKMionfddVdTvffee++y+FmLmDPPqpHGtU785Jm3KKNd10u3c/msstxgY5qETEsx0/x7y91wxS6fEdXa2qW6eElHWnxinFpVTeuhh2XVEAtHz1i9+JJ6tUUWP3k+/axBa7tk1IhTyYmHQw6t13Q2Hqzbv42cOhdqZAOd81Wgt94R6YA+VhPJQCW3M84QW4CE8BvvNYQqklHIaKqiXjf5TlrvvT/UeQvCWPx+bf2sqlq1LtKnnw3U9wP1jMb3yc/q7X/KrnCfnFM99/xQPclbmyI9/aeuaMurZfFTJNFw8cUXNy0dFfIhmDdvniaTyXatkzHma+vb8u8K0ReMMXrYYYct034//vGP1xnxIyLrvPgJI6eDN8+sdeKn+TOnd9+dVc+0n89SXvy0HIDiQWjVYQPaU/x4RvXaaxvbTVx8Hc45tS6rU6Za9U1WJWd96VKb1TmzirXNe1msszpm3GKtqEyrEau+Z1VMoEcdHmgYZTpQIFqN1KnaQMPI6sI6q48/EenpPwl0xx2cVnf6hqVQcVrbLdKddgj1vPMyOnZcoIsXWbVhVq0L1EahfrMlJvYrmjg+0qqKUI0JY/FlQj3phFDr6xtXsI41NATqe2mNrT6qtesF+t57UdGCCJTFT4FFgu/7OnbsWA3Dwj+A+Ydp11137fC6FusQER04cKBmMpll6n3FFVd8rQhbnaNUxA+s+5Yf1UDfnZSJ43+0g+9MocRPHutUo2ip7rhjRjFLlxEZpSLm2uswoipeWrfdrl6zQZALm9Sxlp88mcjpMUdmcj4usTP2GadFatsh7o86q06tXn9dWskt6YBVz8/qb65aqpFbWtC4NG3FWtUgDDXINOjSpZF++VWks7+0Ov2zSKfPiHT2bKdzv8pq/RKnYSbQKO9ntmZXUeciDSPVd99zWl0RqHj1CpEayergwVld2rCib5SLVHf5ro2XxkzsC3fBeVady6hqccR2WfwUYLDO179Lly46ZcqUQtyXr+W9995breCAa8uRb8O8v1FDQ4OqLhuk8oEHHihbftYinKpam9G9v59VKWDQwPYSP/k6RJHTwVtlvvXip7ar1RkzGlU1ijc9lYj4cRrql3OdJhKReib2E0klrY7/d6adLFROI+v0xBFZ9UyY6xuB4gX64xGBRu23AewbcTYWYi6/JGVX4quTd6qPbUdq17AJnYvU2lCnTs2qEae+serndp9tMiijCxcFaleiqP7zZqB4ocYiyWq32kZdsMiu9G8LRcmlt1jb0FzcmS233JIpU6YwaNCgoscRGjx4MJtssklRr9GeaC7wYOfOnXn11VdJpeJw6PmYGSLCBhtssM7E6Cl2/ygFBDAmxe23e3StUQqTTbN9EcDzlJdejeg3II1qAHw77l+TUvczeEnlqadD+m1QCXgllRRJ1KNH90YuuKQRdQIkCEPDL84w2Kg9CioYgXvuMeyzj8FJBsXD0wR/+7+Ak46PCMI00LHJowHE5GJK5ZKjGrOSWD+5cECCFz/DaxT2zaIIz/wrZJshBie5vYaEdOse8tw4R5caH9PymqosXqAc/sMQcQYjHsbA5VcIXTtJUfMBl1A3XjtJpVKcc845vPHGG/Tq1asoQQhXxiuvvELnzp3XCUEgIvTs2ZMnn3ySQYMGrTSBa//+/deJusK3K9DioI0M19yUoQ2xPTsYQ23nCia+UsF3Ns5XYt0XPzGKb5L8332WHbYH06LapdKHVQXRSs76cYq+6zvy9+bdSZb774lwrviiQ3CIgyeetHx/X8HPRfVQm+LBf3ocdZiwaImibt3tN4rFWcN991iOOtaSzUYYdYhAj56GRx72GNhvxajP6uA3v7HMq0viqQOBTQZZzjwtgSty0Miy+GkF+ezs2267Lf/4xz8YNWoUlZWVTTeq0NnXV0b37t25/vrri36d9qBPnz6MGTOG3XbbDVj5i7WqqoouXbq0d9GKwrfBcpDHGscpIyo47AiHMdmOLk6rEDz69He88FLI1oNDtIUKKBURUEhEBJGIyoo4cvLhRwieJNs1kPPqIiZ+3/ZeP8GV1zmQkNjKUsGFl1qmfuwo+uMmHhifipTlqScT7H8AOBfG1hMHo581DP++MvnTxuas6+vMK8Chakmnld9eE3L6T4VsuhNCCiWiV+8M993r2HU3w8oSSrz+pnDnX4UoMjjxSSVCbrstwkuyrIWoGLR13ezb5POT903ZcMMNddSoUbp48eJ2jeq5PFEU6WmnndZmR+CObM/hw4frZ599pqpf70dQX1+vAwcObNP1yj4/HYBTVQ10aX2gp58Wqu87/aZttqXi87NCVWygs2Zn9NhjQ/U9q0Yi9URzcV463jenkD4+vXpl9OmnQ81G2ZyPSGljndN0OtLhB2SbHOx9iXTvPQOtX7LqODSFJB+GL52p1+OOyjZFOfdN7PPSt4/Vfz4SahhGcSjuDoyT1HbieF7WqX7ySajDfxCq8SONg05GKibUwVs6ffutbC7x6/Jfj/TL2Vn9zkZZ9XMOzkasjjg2iBOitoNPWVn8rOZgJSK66aab6siRI3X+/PmFaPs245zTIAj05JNPLtg28/Zqzy5duuhFF1202iLAWqvbbbddm65bKuIHvg27vZbFqdUgG+nV16S1S5cgF9CvfXeBtVX8qOaCtgWh/u7GQHv2yqgxUS7GS8eLltYKndhJ1+aypAe6y85ZnTR1FYNWiZIPuDr9f1bX79UcTA8T6m9+G2hk63MuvMXHRqrZbKS//W2DJpPpXKymWPB7XkbPP8fqF7MjdXYtFkBOtaEh0n88nNHePRubJgBGIjWe0x22U523cNWiOQwCHXFyLBAhVGjU3j1DXdqYibeltQNl8bMaomezzTbT66+/vmREz/I0NjbqpZde2u7xf1rTnsYY3XzzzXXChAlrbDXbb7/92ix+WkvZ8tNW4jQNNop04sRQhw5Nq/FCFWme9RV7F1Ve/LS5HurUWavvvh3pvvtmNOHHQeSkKaVAx4ua1T7EquSCz1VXhvrLXwa6eEmQE4hr38DsnNM7/pjRilSkXq5fde6k+vTToToX5ba/F7teVtU6DbKR/t+DjdqlJlBjoly0ZKcigW6xZVZHPxVoaFu081rQ3C73HE+fEeqxR2c0kco9vzg1XqTGD3TEiEgXLrSrqE/8/Pz1b4FWJMNYdOMUyeqY57NNu8zag7L4WW5QgjheT3V1tR5//PH6+uuvazab7eA8Nl+PtVattTp69OiC5MAqluipqqrSUaNG6dKlS1V1zWfgp556apvFT9ny07G4XPqLTCbSR55s0G22tuonQhUJipJMdGXipzDPsVXnQg1Cq08+HurmWzaomCiXUqD4Qq4QhxFVMVn1vVD3+0GkH01Oqw3Dkghi2Fqci9RGkR5/dGxZzFuAOlVlddYXcT6y9hpd80k+P56S1o0HxRGoTS6An4hVLxHqEYdndfpnWXVa7KSsbSdyGW3MWL3xplC7rRfFltsmwW81mbT6tzuzGrlwlXVxzup/3wi0e49Mi0SsoZ48okFVG9q1Pt8a8dMy5cLKflZVVemQIUP0/PPP14kTJ+rChQs71J+nNTjndMaMGTpixIhl0kzk67l8nQvZritr0/zRs2dPvfLKK3XOnDltesAvu+yyNpW9rZafgQMHFqTtvp2Wnzwul6TQqnOq2WyoH31k9cYbAx082GqX6khFAvUknhUKubxDEmqTP0Fu4DbkD7dah0ioQ4YUeGDPBfxrbIh07LMZ3WP3SBNJmyuvy5V3RVFXTHGUP3dz7jDbogxRbKUyGa2uCPWIw5y+/lpGM9lorbX2LI9Tq1/NC3STjQP1jYutC16ow4aF2pgO1Wo+91Zx65q/hnVOFy2O9LzzsppKhmo8p55EuaSoVjtVBXrqSaHO/DytceTkwifxbA3OujjpaKRanw71ttvS+p0NI/W8fP4vmxNAgQ7bLtKPPorUukBX1a7WRvr5F4F+Z2ALC6kEutfeVjMZp7adfcvWafGTH/BbBtEDNJFI6Pbbb68//elP9d5779W33npL6+rqNAiCpiy5aytxIrlQp06dqscdd5z6vr/C/WmP++V5ng4aNEj//ve/66JFi5rK1pZ63X333W0K7nj//fe3+vqZTKbNDtdl8bNqIms1CK0uXJjRN98I9Z77M3raaaFuMzjSpBeqMfGAjXHxv3MZy+MBJFitAwIdOrRYNXBqXaBBGOr0T0O96rpQe/VszC2H2RWWwooZMHFZ8ZMXPkHsl+E57dmzXm+62ekXsyINwnCtcGheU6zL6rtvp7Vbt1hkgFXfBLrjjg2qLt1Oy18tcRpGaX31tVA3H2RVyDYJACOqnme1qsrqYQeHOnlyNmc1CjrEGtR8zbRmGlUvvaxee/XKqDGB5tOsxGlfrFYmQx01KtT6xkA1WrV4ti7UefPSus22afWa6u20d49AZ3+ZUe2ASNii2vqNgKrK2LFjaWhoaO0pikrPnj3p1q0bxhiSySQVFRUkk0kqKyvxPA/P8zDGrJPbVVUVay0LFizgwQcf5LbbbmPGjBlYa5tiEbU1JlG8Jbb5HJ7nMWDAAM4++2wOOeQQevbsSUVFRcHqM2/ePCZOnNhU9jVl6NChDBgwoFXXd84xZswYMplMq76//LkOPfTQdgmJsDZjrRJFirVCJgOZDIQBZANBFbJW+WRyiJJYzTMqXdaz7L3XivFGCo2qkk7DV/PSjH48xf0POD6ZDksWCqAgBlXBSPy7Q/HUw+Fo1Z5yAVUXB7ATBXWABwKVlbDhhiFH/whOGGHo1cuQSgnGrHvvvZaown33NXLa6Uls4GEFPCwHHuF49O8hmOp2j/Wi6ljaAH+7J81VV1SwcIEgEqKazP8FqZSy0UDLeefDQYf6dKtVFA+VONaSiAXWKPrgN+MUNYpgyWQckz5KcvHFWf77hmHJYh9VUBXywUr9hMfBB2W4aZShXz/wTP4ZXL5PKU6VbOA4/EDDmHFxFEWRgFQlvPSSZfthFZB7DtoznkKbxU8pCwfnXHmAyREEAfPnz+fNN9/khRde4JlnnuHTTz9t+nxNuoExBlUlkUiwww47sNdee7HTTjsxdOhQamtr8bz4wSxk32hrX+vo75cpAs7FkcrWNFB9u91GBQWH4pzQ0BAy60ufDz8M+eCdBP9+VXnjjQYaMtWARSI/N5loxZVEEYn76QYDInb9ns9u31O2HmwYtLGjpouHnwQpxWA9RUQJuPpqwxW/NqhzOFU8z+OMnwb8/pYKvAJriNUqk8Zid8H8DDfeBLeNShDYRNNnAJ4oKhGVXSKGbulz0HCfo0+xrN/LYUhQyBB9ah2BDXn6X8JjD8Mr40PmLPCJIg9xXtN7z6lDTMhOOwm33ypsNVjx/eTXn1shk13ML85Kcte9HuLivzdexF//Zjj2WMXz4lha7U2bxE+ZtRNVxTnH4sWL+eyzz/jqq6/4/PPPmTdvHtOnT0fj5dBlvlNbW0ufPn0YOHAgvXr1ok+fPvTt25dEIlEWmGXKtALnQJ0yb2GGuV96zF3oUzc/y+xZSZYugpmfg40UXYXo3ngjQyIhDBwU0aO70LOHo29vpXNNEpGyWIf4XReGEaed5vPA/Vmcy6XOMY7rrjWcf0GAEQOrbT0scPkcTJ+pXHaJ8MTjEZm0wYjFYhDNW0lii4vvwyabObbdWvnhwT67fC+gSxcf3zdUphRVg6AIDhWHunhlA2vB83DOETlLmE5QHymT3ne8MEYZP97xznsejY1eLLxz735FEZQ4FYZly63ruea6FN/fs4JkKmdZXAWhgi+WKIq45KKI3/2uEjA4jRBRRl4UcdWvk/jJDlCfOcripwzAMstgK3tpOuealrla/rtMmTJtRENQHyuKiEJu0DP552sVb2gnFiEesERBxMX/6IBZdKmjajn8sIjHn/AxJkS1ApUGfvFzj+t/55EwxV8KXRXOxsZLAR78p+N31yjTPvRodBbRZrcMEUVdhMNiSMWiWCI855FMOPr3g179DL4X0aOnR2Unw6xZWTRK8tWcgFmfJ1m8ROIMXCYWSbHESeQET+46uXKJUWo7W04+3Wfk5SFdqjwSanCq37hk6lSxUZZTT7U88HeD2BRgUAIuvjzBry+O8BOCSMflvSmLnzJlypQps07jNKBxqfDDAzwmTIgQif1Y8By/uRwuHOmRqoj9WjpyTpcfjl8an+UfDyYZ/XjI/IUGZw0qDtTPWWMEVUfL5a+W/pdKC7eD5f8v/7u4nGg28U4MtRjP0LnaseXWhp+cJhxxaER1pzURhg7FEYUexx0b8uijyXglQRyewGFHWO67xyNV0fG+tmXxU6ZMmTJlvgVYMgHst49h4kSHc+DEIF7ASSdZfn+TR02N16HWCMgJIMmJiED4bJbHH2+3vDxOmDNXWVrvkWkENPYlg2ah01L85MlLjOXFT5y/zSdZHdKjq2HIVnDyT+F7O1s6VaZQAw6Htwb+RaoRdXWOM0+Hfz5pEVuJqmI85UeHC/feB37S5sRnxy7NlsVPmTJlypT51hCGsNdeEa9NdIgKET5GHLvvafnHQ4YePfzc0lLpLR86jXj3XeHtNx2TJwmTJikff6rU10MYClEEYRB7/uTxEw7PGFKVEUnfo19/y8abKIO3TLDddx07DDNUdRJEWu+7qViwwozPIw4Y7vHRZImd68XieYYDDoz4+98NFamOFZYtKYufMmXKlCnzrSII4KQTAx7+p+ByjsEqIZttEnL3vQm++12DSOmJn3jBy4J6qETEmdIjshkIsgarkGlcdunO9xXjCZWVUJkSMFkg2eJ8eX+f1lthbBTy8r+FY4+EuXUhuBSC4Kcsp58i/O5mSCahlPzRyuKnTJkyZcp86wgCOPeXGf78J4O1BtQgQEWlcvutcPyICM/zS1IElQaKOktg4bZblIsu9rBRLKJUIyoqPX51YZZLL0li/NLbEVwWP2XKlClT5ltJZDP88Xa47PIEDUu8eP+TOjxfOeAA4b57lc41ZfGzIooqzJ7tOOXkiBde8IlFTyxykpVZnn4yye57gSfSnrELV5vSk2NlypQpU6ZMO+B7FZx5ls/Dj0D/fhEqURzOw3o8NRqGDIUJ/7aoVVQdqraji9zhOA0IA+XB+yy77Q7jXkjgnKBOcGLZaIAybqzPXns5PFOawgfK4qdMmTJlynyL8Tyf7+9teP5Fx267a27bt2IVZnym7LMXnPVz+PLziG/7kKkoM2b4HH9CxMk/dsyYLrm4VPF29uOOcfznTcdOO4G2wYG6PSgve5UpU6ZMmW89qsqiRVn+do9w4UjFRV4cA0cNSES/fo4zTlfOv8DDS3gYlt1mvu7igJBsJslVV1v+8hf46iuT280VovhUVATcdZfHkUcakgmvw7exrw5l8VOmTJkyZcoQp5i1Dj78AE44yTH5PQ+rEUY8VB2JhLD1EMtvf+Px/X3jPGGlPsi3Fesc/3hQufRSZcbnsU8UmiB25XEM3V65+26PLTYVxDTHGir1dimLnzJlypQpU6YFqhGZrHDayY4HHgowpgp1uQFdQnzPZ+/9s9w2ymfghgYxpmR9W9aUOMhilsilmDZJOf20Bl77byVqc47fOTeeVNJyxlnKVdcoFclkh0bGbg1l8VOmTJkyZco0kY97Y1GFjz8N2GmnFIvrDM4pCHgoVhwA2w0NePSxJP37rRtWIHXKtA8jDjnSMO0TC84jzsuVQ5Ttd4x45FHo2ysJJsxlZS9tH5/lWbtKW6ZMmTJlyhSVvIDxEPHYZKMK5s0NuPf+gL79ItAAh0PUR9TnnXcr+c4GPgM2inj6CWhMN6KEoOA07NCafB2q2uTY7dSxaGHI3+6N6NrdsdlQj2kfC+oSKAZySVQHDLA88ljIfyYm6dvbQwwICdZGKVG2/JQpU6ZMmTKrwoHGGUDJZJQ777RccYVlyWJQlwQsYEAsokKqMuBHRyY462zDFptZKivjxKClZhWykaMxrbz3Plx9dcT4VwzptGCMh7MWEQ9V8LyIbt2F60cJxx0OXioOZCgqIMsmV12bKIufMmXKlClTZjVQVYQ0QZDiz3c6rr8B5sxx4HwcAhicOoRYFKRSylFHKz/+CQze2lJV6WF8n/aN+2dRa1AT4KxH4xKPtz5y3HxzxNNPJHAap8mQnIhRIsAhEjFgA4+LLo049ZQEIgZRj7XOuWcVlMVPmTJlypQps9rkhkwVspHl6acsN1wrvP2eIYoUwQccThXBxb+bgIqUYfsdhD32gL33itjoOyl69gTPy+fiUlBBxcXbyJFm96OVliH3geYydIlF8JrydanGSVznzXVM+Vh56hnHhBcSfPRBRBAJGAEXxy4SSaAoglJdLWy3Y5YLz/PYd18fTBz4UfBQlXVF+5TFT5kyZcqUKdNanIsIsj4vvxLx8IPKM88a5i8EZ/NGkvyykMTbxMUhntKrp8cm34FBm4QM2gw229Sjd1+lX19D125xWgiV3LdXUByCoFgXD9+RU76ao8yd65j5ueXjaSkmT1WmTYLPZijz5mpuC3oiJ6ziLesiguLwjNJnfccPh/uccLJl6LYeiaTF4K8zlp7lKYufMmXKlClTpg0oubQXqixpEB74m+WZ5wzvf+CYPcs05byKhYTLh0fMBQP0+P/27qU1iiAKoPCp6h5NfD9QExdudK0EMagg+gM0f1mXCRp160pBUZyFoBlfSXddFz1OHqKrEIh1vsVAQ8/Msg+3q6sjOlLb0NCTWzg6KlxebLm0EMzNJxYvBXPzw3cANr4Gn8aFbz9axh8K7973dF3LVimUkok+EbPnszoSLSn9ngkVoCHlwpUrPcu3Misr8Ohh5sSpQk4Jopn+1V9HT4ee8SNJ0j4ZgmbYMPH9uy3Wn2ZW1zKPn/Q8WwfKEYaBTZrthLx3R+Tty3JMP3dfptMsSNLsHNi9qHr6og6IQkotQceobbhzZ4v7Dxpu34abS3DhYpByAup6gavxI0nSPopgOmnZPv65mXj7tmNtrWFtNXj5ovDmdfBl0jDZGG5jRepJkSkRBHn4jcjsvUjPEieVHetwhj2IUiRyhmMngrOnN7l2reH6UsO9u8HycuL8hYa5o0yXZA8rff7P2c6/GT+SJB2AiDKb1SQSnzeC8UcYj+H5eubFy01evSpMNlq+Txq+bRW+TxJ92Z0nQ64UTp2B0Shx8nhw7nxw9WrhxvXgxlLDwkLh8uKI+fkCBCnn6YTpcD6avt+MH0mSDsT2Lao/j4cntAC6PtF3QddD3wV/7qUznDgaQc7QtEHb7LztdXj33zkoxo8kSaqKaShJkqpi/EiSpKoYP5IkqSrGjyRJqorxI0mSqmL8SJKkqhg/kiSpKsaPJEmqivEjSZKqYvxIkqSqGD+SJKkqxo8kSaqK8SNJkqpi/EiSpKoYP5IkqSrGjyRJqsovZEuJggXZMfAAAAAASUVORK5CYII=;" vertex="1" parent="1">
          <mxGeometry x="98.81" y="120" width="206.59" height="60" as="geometry" />
        </mxCell>
        <mxCell id="rKb5zj4-AGq2TKSWBkBP-15" style="edgeStyle=orthogonalEdgeStyle;rounded=0;orthogonalLoop=1;jettySize=auto;html=1;entryX=0.5;entryY=1;entryDx=0;entryDy=0;fontSize=19;" edge="1" parent="1" source="rKb5zj4-AGq2TKSWBkBP-8" target="rKb5zj4-AGq2TKSWBkBP-1">
          <mxGeometry relative="1" as="geometry" />
        </mxCell>
        <mxCell id="rKb5zj4-AGq2TKSWBkBP-8" value="&lt;font style=&quot;font-size: 19px;&quot;&gt;Remote tracking server (artifacts &amp;amp; backend stor&lt;/font&gt;&lt;span style=&quot;font-size: 17px;&quot;&gt;e&lt;/span&gt;" style="shape=cylinder3;whiteSpace=wrap;html=1;verticalAlign=top;spacing=26;" vertex="1" parent="1">
          <mxGeometry x="65.66" y="360" width="284.34" height="210" as="geometry" />
        </mxCell>
        <mxCell id="rKb5zj4-AGq2TKSWBkBP-14" value="" style="shape=image;verticalLabelPosition=bottom;labelBackgroundColor=default;verticalAlign=top;aspect=fixed;imageAspect=0;image=data:image/png,iVBORw0KGgoAAAANSUhEUgAABd4AAAOgCAMAAAAULpTrAAAAPFBMVEVHcEzYoHjZpIPWU0cHAgHepDri3doAAADAQTYAAABsmujw8PBMjPX/zkPXRDfbRTf0uztFfONblvbk5ecfZaFNAAAAC3RSTlMAQsX+Zv71i/4tqCnp8VMAACAASURBVHja7N3BctxGDgDQzMUHFy/o/P+/rtdeSexugKTXwxEpvxfJHs1IrkqigmA0GvjnHwAAAAAAAAAAAAAAAAAAAAAAAAAAAAAAAAAAAAAAAAAAAAAAAAAAAAAAAAAAAAAAAAAAAAAAAAAAAAAAAAAAAAAAAAAAAAAAAAAAAAAAAAAAAAAAAAAAAAAAAAAAAAAAAAAAAAAAAAAAAAAAAAAAAAAAAAAAAAAAAAAAAAAAAAAAAAAAAAAAAAAAAAAAAAAAAAAAAAAAAAAAAAAAAAAAAAAAAAAAAAAAAAAAAAAAAAAAAAAAAAAAAAAAAIDS9x/aX+fHv/TD/3vgy3r8hYG9C/JCPPAl8/YfAe7bz7f2797b5vutI7zvA+ALBncEeOALBvcDiffy8+2elo1/BHjgb8nc3yPf/95+vq8+WD3765WVnZ8Pb+9TkP10Ajzwxfyqtxd57irF7Z9bRf9LhOnYe/v5/vHL+n2K8A5Zgft7HC1ivOXq7ePB8Er3wtvzv51Dn/sjYIjn6xe6AC++A/cvzHzbie1dvr5K14cw/xH6+1pOmz9ps7jzqlx/yN9jCPAKNMDdo/tWbM+Dehaw17+/1+cPpuTtJUE+kkf5J4nvwBeI7t+66D5X3KvqTJ2ZD9n7+jh2Ltu0s/LxpPa+epB8Tfer+A58ldz9PbYnh6pFXSaptHx8YpqTtxeW2Q8dxNZlefEd+BLRfdk8UG1D5b2I8n1S3pa+/N7l9evI/7L6e2SlmbF35uNj8R24rcdbZeZIdE8q7kUOvwrtbUzU2/j4Wel82eqYxvjIavCRdMHrnwHuqK/LpFeNksaZud19CPxF9l6H8xPy97TyPqXpU/4eXdnmv/9xfJcAN47uLbu6lKbxU7d7W6bSzPp8tfWRvJ16tvr/NM5MT66jfhPfgTv61TSziuhJx0ydpS/zkWvf974O8Z8Qwg/U36OI7KtTV+V34JbJ+zKn7dvlmSKfH64oTSE+q9Lk+f4zYnvMgbvri4mNYvz4ivQduGPy/nGo2rL2mDzGZ+eo46CxsfQ+FWm2o3l7RuIeZQdk1UOzrGfTrK6wSt+BW3nszcjNDk2z+QRLNogmLb0PSfr5xffYTNOnhD6t0eieAW5XmjkU3+tD1iVphl+mGJ9ebWqnRfg48nJkp6tR/THSd+B+yXs7FsjzrvcxXW/jMer0uAv1LemHf/psgu3aevJkzIevTleBr5m8Z1MJhhtMbdrv0boj1DZV1tsJVZnYPGythgFnR64xfK7TVeA+vh/O3ddbOrJgP/W/tDSOt61u9/akGTRx/POmq05RntBK34G7Je/7UX3JW+HbulFmHhg5Zu91Y8wpLfGxVLMJYvPm6niouh4v5jsGuFHyfjy2V/N/09Uc2blpelW1nTE7Mspqehwtwcf41dJ34C76c9Wix31ntUcylmB9nam8rjQPoGnPj+ux92rkfZLDXPhV87vmSOA2pZl2LKan9fZp0NiwqSm52FQUYp56yBoH1qrGgfVNkWxv8l0D3CV5P3qhKQ3lfatMv2O7a3pPonk7p3Nm73w19kozWSflR3ek9B24R/JenJtujZgZW97ni05JcM8K78sZxZnNW0xRNc7EVJ+PtFle+g7cwHtT5G8t8BjuqM6d7W1e1jQ3vA9Pt7SZ5o8vM8Uft05ODZNOV4F7JO9HbzQl0yHXVfY2F2m6Vat9UWeu5pyZu89t7ZEX1mN34mRI34G7JO9Lvl2vmBi5anQft/Eli5p+O2i/aqZY3TqTN9KE9B24kcd6eXbR7p63vmeP21SfmSrzc3P8eYerkbfMxM7smbzOM21edboKXL40s/x+s3sX9Zci9V8l5G03V2/j+Pf23EQ9ttdo791VXe1p1RwJ3CZ5rxZll80z3Xz3abb7PHQsqb53k+BfuJIvtrok8+aa9FqU9B24QfK+t5OpbJvJlzpNobvVCXkrcvcnVmbynvY4VpyJcnCN9B24ru9Z4T1vgs/qL0knzDAssqu1TJ3vfdBvp56hxpE5wbExCTiGg1ejZ4A7JO9VdWbooMmOXucKTSsC/JG5Ye2MqkxsPF3t5Duw6En6Dlw6ed+8nnp4eXY3BT4b5j6Me+9m0RRbV5+dyR+ZQVN3TcZ03ip9By7qsaq8H6rOVHeb5iPVYVhkW+ZfsmS+nVaeiQMNNEN1JnYPZZ2uAlcuzbQiYre6OpPdfhqLMn3HTMsifL45+6l7tGMvk4+dWn2S5//6c0NzJHD10kxxo6kaGTn0RG6t9xj63fvD1CPHqu3MTD72G25iGF8QQ6xXngEum7xnIwg2au1ZgSZd4tSF7tYXXtrGxaZ2VufMzr2muTZTjIIf7676PgKumbznC/eW3QPX6eLqeKqaZ++tz9/buROBI7uKurW4YyPDj/79/e6q9B24ZPK+js5FQ+Tmx8P033mrx35vTHvqJOADw35jd09TbNxo7V+VvgPXTN7TXXobW5nqi019Nb4N6XkS6E+e/7s1WybteS+2fJTzaBbpO3BJj3XXTDpKJh0L2Te419n7UHrfvsPU8p3afxTP48gS7TroR91/E92nmhwJXLE0k1Zeivb3qcV9Fdbbku/wSKeJTa3yL0vgYzkQ86NI+6uzV+UZ4KKlmf0bTEmHTBuPT6fd2l1u3na3d7QTZxLEdoqf1GZi+pEQ9SJu5Rngcsl7XnRPOx6LJXwtKayM+1bHMQXdzaeXLGk6HPE3Bxgk02jC5Ejgmsl7Ul7furY6jw3bOoPNWiPn3pgpd39S7X0M5GM5fuPWatStldmmVpMjgcsl7/n09ryJptq8mva8D6G6VS+8KHePI/Mkxwuq/RNZJh8GvwOXTN6L3UzpfdSxttIdsGYLmPqAnyXr49D3l8T1OHipaf66yKYEx1v+Ln0HLuHR71cdMvfqJmtLuibTknqbaustmSOWHq8+5epqHIjgUffUxM667bT6rjkSuEppZrx71PL7qMUQsWLQTJs7YFrWFbMb7k/ZsDoF66iidtTzC6JL6N1dBS5XmknOVZfqubbsx/WhIX79hfNr2ZCZdl6Ij+1ZNPXW7OhLM1PzTLi7ClwteW91TaV7ON5Pzcruc6tj63re28ZgyPa6A9Yjc2j2OiSrr5O+A1dJ3pe5qb1fdt36tRwb95zyhR5dpj5ecJpK7c8cQBM7W/eqvU1R1uGTgZFjo6X0Hfh0j35F0xjFh016Zf1lnAzZpgkyY0QvL6aeNFxsY5deDAv3Iq/mzEv5qt+NngEukry3IVPPx85U2/iWOptfNz7mZZnhwPVFM2d+tzoTO9v7ptgvfQeukLz302LqUcBjsWa6pzoMEiuz9+7vBHm4f24JfqqqxH52PyftxfzJyMo80nfgc33cVy16HcuFHTvD39MhY+XV1LTw3k7Nz/NmmUhaIjca6GOqxLu7ClypNJNNFkgOR49eYu0OUtt8VanVre7tvApMHL+VOkf/SH4gRLXQyegZ4CrJe+vicrpWL7mS2pJnuqpMPym4SN/TyTNtOW0KTaRDfvMz1b1J8dm4Mek7cJXkfYrQw1LsefBAGufnYs4yrc2e/0qQhe52+hlqHOywia3kv2i2ef9Q+g58mrdhM+lypnQrX3GTdS7SpK2V2ZFpK8bMtOWMynscuMO67KzWLu63zvHf6Srwqcn7Rolljt7tP+xd627jvBJDa2BhfBEczOj93/U0sWxLc5HkxHZOALJN21za3R8FzVIcjtEQw7r00VioKqIyXLVi+FjdTs3dHSRUOJlVM+TzPRk/CPIdAIAPi3f20jLi+NRomfEiNSLuzq4L4+1quijvTpWMu1UUSaV+r/0YyHcAAD6GokpMJ2DqrWHKcxeHqKoXzPgDwT4/ZaNg7JSAJL0YqPTjOFS2jKF6BgCAz1kzwvXWsRiD+6vqXeRkbCrnEEx75+ypVLKnlKQ544ZrlBHjd77DngEA4KPiPVjrsD19zvoqwIqkOcgBWGHEsF/4y6e0AVPdf9l7eVB1Y+RV10C+AwDwQfFur9RTp6TG6aueSC2NmYy02ewJu9p2d3sIyLoakHN9ICcGT+bzkO8AAFyOn6WOQDGt0y8gDRr1rNUhbARkWOUfud44czCh++v47GQ7ORXBVN3dSvPWDzRHAgDwIfEenIoBmYm03Bm9H5vNZUscfPlebwHmgxi+2R9G7lwr+Z3x8g8AMq8gkO8AAHyG3QsNzcGacQpuaIbtq0DQI05GWZg3v8SXeTONWVRP+ttjTU6vJKpnAAC4GMu5qtUXZu/UMwW85GqjKqwZq9Gqn0/idfJ9cjI3OJGVfVdf6Mr3/EvQOwAAnxPvzuGpOe7kNMGXk6hOav3ylR20a0NqLfeok+5kEb9xB/IdAIDrxbs0UMz9qF4yUrnuxVImP4cTjC6DsxbwdY6t9o8+UdPgJ3VJQDgSAIBrxbsKL7KccPKi8Ko2ho2lTJ1dkPqVB+dmqJlhJLOLgKR5Q0bC3V3TTZDvAAB8Aqlshont00+nNIzdLdoiB28lb7y/A5rnqkdu4utyZ6iRsSFzxomUIU+ongEA4BPifeZaKm0Zccqqa36N0jCt3nnnJj0+5US1Yp+LLgI7QEmm09IM2BhuDuQ7AABXsjs9tHtJ6mYW3d+TXZYQWI3tXnK+q2zmzIBkY7kHNRrEyGqrEQtXKRPw4HcAAK6j941FSahyFouaROZFEbqoieS6+95y4flw6U69Ho0dayevb4D6/xeongEA4FJ2Z7FnQ2/IYxmFUUxcKPUgy4DtDXxyP9P5iUlzhSoZmz6atb8kj06VZDeseMh3AACuwRKKJGcNntTopaku9jYJy97ams3XGS9dw6cdaUdqq3PqUfK07m2CfAcA4BrxTg9yn9332aEpcjDqnFTzf7A3pdrVYayzkzLszhfQPTnHpE7+RQ6tGgv7yM7P6HoyyHcAAE7Hz/NYNedqYuGvZxkZNip9He+dHQ+dawb7qd4MtU3yWiVwS9732PAL0aM5EgCAS6wZloTEwqFhU1aztcaDRcgmBH9u9UK13mGpULfgl9cBveDJSc5k/xDsGQAAzhfvTBvXUrDkeEnYeXE7W5uVDC/HEu/q6uFrdz5Yutv9juR5M1RrrqF9LQfL6CrkOwAAp4t3eqp3Wj0aKvxwbkQcubRvgjF/Krc3Vdj6ei1P9UJgs12SjNIwu+ndy8ZDvgMAcC6yUCTPxLNY72xb40WwMdfmrD+zviywqgp26gj4TNvdlN+0y0qnbq/dW96E01UAAM4X77N2r1SAKTvGqhywMjWhWgKv8pKnanfq2s/huzNGOzxZzvvWMENVlwfyHQCAc8U7iYHVYFC7YGpjTEm9WFYEBxWe7CuR5EusGWq7M+3BqNDy5Mt5J8h3AABOQ2qKpC3w7njgXBb+6rlWDuasK4cQTAOGreD8Ne561zCTn4wk1S0jPHk3Pa+exOkqAABnivdVv+bavQzQsOyBL6ZTTdMlBG9gla2eMueycALJkxubMTmeOoW9dGlEH7xN9phdBQDgVGuGV9udSY40ufLbfF6/lvOWydtXgEYB9cBx+B0g3wEAOAPJmpknVVNb7fOrle/tUmD2vPnKRg7+Ena/xfFCDAN+CwEAOEm808zsvhEuKx6LA1Mud/eVe/zKOaX4JfR++72U3iHfAQA4RbzTmpZJc015jEZtTLVkudUZbKr329fgUnoHvwMAcI54Zyq2gFaYnMVWPmP5HlsvTo/E76H3fxn9Lh/X98P5/Re/iQAAHIufxO5JsCfhnit4buQX2czCmBFL/iLxvsr34cno0zQ+3v7eh/k2v/899vw0rffG+ZXzy7ve/l4L+Q4AwGniPd2yrhlOzgyJkGO5JpWt+khh1G+Xhm9i9+10daHhmcYz8n6+L7eN0bfncsIvGH0UPwnyHQCAk8R7vkcoZeBJTK9yrf6LVdrdeN13iffldLUk6wfFC6ovad8h+OI2jfIFkO8AAByMuQf4yeornRPrRhi27HTWdb2sO8L4G89Vc3tG0nTO9NbXk63dS+ovH3jqd/w2AgBwqDWzMfvi0WzWe0frisP0psSP30bvv4V6n5LNnovwldEVs5cXBfm6UtI/DHzYMwAAHC7el7fKauuHCV8GZthidEPa5xUDt9v3yvfcmFFOiyT4SXw1ygvBJF4zEzx+HwEAOFC8z+o9VbyH7Yh1C9AUFcE18c7+9eG7JppUOPLBz8PkkvtUkHbG5uXDU/4TxtKIh3wHAOBI/MzszuUeoYWSydzMUSp4e3eHfcr6heL9dksR96r2HnN1Pk6a5kvT3VPvE05XAQA40JqhpN6JM+d9/sx9zjtbfe567+r/KbvH5YO8leHI3EPJ/HRXno/G45OW/8WP+JPvsGcAADjOmtk4PUUhded7IA7WLGpll6rxFF9O27H1vqN6ZsoZvjgqNe6O8tFRXQbKU9b0AfIdAIDD6J1W9b4SfBmfYcr3N3E9+W778tfOqwr13Sfdnafy2aY1NqP4O2P20RDl+grg6HrIdwAADmT3uf93+VRsly5bgJmMYhkOhs3u7OmIBXVuAvqN28uK3L8oxEr1zIOAXWo2PRhtsU+exl/cd5yuAgDwNn6e7L5o9020J7LPwjNdS5DsNdn8GWvmdnuD6sW35tUEa/R9WEpm1rsmXTcseCno75DvAAAcI96TN7MkZ9L4qtq4ujyQPrMp4UO9TCx+gtdbfwGY9kyUP2aV74MVgpysBLx3njo6p7GZPwP5DgDAAeJ90+6r/55J9nzUiWQ9pL2NT6zctp336JgisaTbKOk3Ng3zd6V7bBS/J5numTAG2TvXApPtx1m+43QVAID3MIciaeskoKVJbCkU07EZNg9TWRK84bzvPf+M9v3WlSG+yuaxy55Z6r+eFb7T4sqMQ4cFX9H9xcOwZwAAOEC8P533LDuzrPRI3nsKz6wOjVdYIBjemGfKxHs80TI3rJnaZ/thi/N/M353WXysui7TVA3VLIB8BwDgCPFO65KmdLS65CJDGaFJlQXmiakh7PUOVm5QcdyVcYzHMHzccYUZHX5v0f3U8tr1k5DvAAC8hRR5f6j3nNu3ZoJ8dVPuyZB1fsp+LDLosploU3AWbLStEunDmwOnO/8IiOq/0NzLtzHy0MXXo/uC0QjF31E9AwDAAeI90Ga/h/V9aRibfZksGEky+aju8st1BHHn/d1mTdz1g6K4YIyjOF8dNoYfXDIfzTYCOxif2zP4/QQA4C3xnqn3TL+nxPtiwa+anclYxST3ftjByFhPzTQOPONOMo9dl4TofmNsyPfRbo9pW+89Uh/yHQCAt/CTrBlaHJrsXDWILCQFs4aGLfnOIinp7Gh6WZnHmw6td7jzsXaI2vmPDyW/j4VqHxqsPXbEKQuCx+kqAACvWjNPcp+1+yrdwzLVtBk0vJyobmY8925frc+rxtpJqhd5d11zo5IgtnIxJsP7V4yM3h/++2bODNOxuKN6BgCAN6yZZLknJs86CVIAnjdGr6/kc8uAPWsm+oTe46FfNf2qamx+x3Fs5SMP4nfIdwAAXqZ3SgiZ+x7kCSu7zM6h2RC5kf7b86Nx5/fFqhZ3JqDaQ1Gj4Hct3IdKnAbyHQCAS8R7ZrlTGXxfy4DXrEzqJsirxdQeJyv4boYizRPT6HBsw0KvnLzG7inZ2J2q/zcKf6ZwZwbJ88MbJ6x3nK4CAPACfhbnPen3UOZnVD6y5qybM0zFc1zn2Nji1eg56dFPMd5abWHNsarYlO/ji8GYrhdjdhUAgJfF+1oVWZysZs1iyX5nKduJax6NLieI+6sH4lsme+zP39QfVS7OP8Hvw3sSvbbbA/IdAIDXxHsOprw4cm0FVjHJztr3UtebO5qiP4xqc3TsfKrHgIlv2DODqd+HN4PuqJ4BAOAYbANNhfculvJtq1cVsROrmVWWxcBG2UzsTat0n6/Gis0jo5XxiOPbaND7UByqFk788ObxKn5XAQDYac0U6j2oydXSdqd5jQdZnZGq8Z0b56rR5uTOauCYvz7uXq4aa11jOqdptcv/jtqfOSkcCfkOAMBe8f7fYsmE7Fi1GHAqbqJkbIcx87jFLpV+a6YZ3+kDft2MqTVHjoM4Xh2myhAr5DsAABeI98J5L85Wiw8h7wWmZRnfc46VdO+Anaupc21Po0zcxcDxpX9jx1mtOF1d9LvF58OrGUlUzwAA8AK2c9XMeqdyKV/ZTrBWR5YWvOZz1j00vL+m3SqTiTZfx1rDcD0CGQ2vJlaNnmicrg4qHlnh8t1uPOwZAAD2ifctLbOI96Tdi/HVVb1TsE5XQztGw868qmPM9MUZ32wkiL2PRi8oqeX7WOh0Q7q/0UwA+Q4AwH7xvh6qbhv5tlmmMkOTue7UWqFdtonV503jq+UyFZ0eb61hp1rMMnbk5PPT1ekh4EserxL6/aHJ+/kd1TMAAHSD87KZ5VNS7cTCowlb+H37ivNFfWy2vxvzqr1RyNjaqlF13aN35Yg9Ln3nhpFYeDPl/GpWVPBH5cPf7fE23B+knj6kx3LCn+b7d0u+43QVAIA+a+Y/NgaarJ0eRb1YptmpaJypOzT7+LQtow84JXWuJVGv4/N7hMvmyKeEf3L3PTH3/NWwsPh9Wj/es7vL2/LMff2I5kgAAN4R7zo8E8hrjgyh9Go2aueq+V7fphF3Nc/UV+zFbp+9m+4rf2eMSr9v1P3wXnKmvg8bjf99GO6axFfdbst38DsAAB3inUtOX6PvK7fL8ExY4zMh7E2/x90aPTq2TXT6C2JD3EfRGxNfGY1V/5PydHVY6yMTs99nX2ZKOv5/7F1tc+M4D5tEU0+f1nHW5v//r09jWxIpkRKVvtyHAO21abd3183soFgQBHdSPy33+/kBE++M++8Vwe/uO6arAAB0cTHEe1Lv5dHVbeUBmm11HvjQnHcaisMMtQU8l8N5IqpDenPkmY/cyT0cr9FyZ0r+fg5VufV+l/L9rhe/Q74DADAk3rN+X9f6pIdw3s/l1VK+r0+I9y6j+45f0zNODNk/OahTk0DFZUBG7Iv0Z6ph6UHySbKHhXP8XTxSCB7yHQAAl3ivdXsMy1QzVu68W+67V7xTWwsPSndytsc7/XyyLJjW93WV4v3IR+5mzP3r7eM17M7KPT7eP3m83O/xMbNn0hvFnYF8BwCgg2m1Ic+usvD7tmrhmT7Jb0NZFrIqH4eWnqj/ycE6G5JHupXpamAPHrx9uDMFd6c8TZCiXXvhzs395Hf82QUAoIXrbVW8mbTcdG43Fc2RvBy45Pkmzbe6eh2tX91YZEvD9/18oz3SdQlwfzyV8n056mdO8Z6S7jkvmRnfQe5Jx9+xuwoAQNeaud2utnqfZTWwWjCW76/qxvvWDEX6LnaQp4aABiemNO7mk+G819PVwEz4JfN5pvl9yFoYNDa9s0jlIfR39/1/+PMLAIAt3qfb7V1h9U3GIq35atbya7dpRp2r0oDB7o6skzcbQ7Y1Q/3Dq8rXT2K1aYkUH1TWjtI9dAk+jWQTxSMcCQBAV7y35PssyL4KzohuYN5Es4467+T0X8gI1TTqv8iotnniJ4f4AVK8nm+CkO/LkY585CP3ierxutwZpYc7e3R8+viSINk9E/z9tGewuwoAQEu8P+i9lu8Na0acW63l++qdq1JDMFMrEEktnvan4alTUWM5SJ0T4FQUix0FBe9SjR9mfIgPIrencSsLzsSxq8xI3uG+AwDgEO9fWA17JqciFW9mLY56dIMzm0e4P1MeQ/1ymrGqMKMynmwJn35R3uXbDZpdwYdsu6eY5P0uSmliKiZb9YE3F8geGsh3AABaONm9Jd9nk+M19Z7XV6vm921rUjo1F46Guh17KXdyueqjk1plurrE4eqefw/JdonK/XzDGD5Ha8rRKndm9odojgQAoGXNTJZ8L2hep3ZRL1YY8f19VYfmdpTTkCsj+Tls2jQWZ0mR79lPmpj3fiZnjpdDce9m+716aEPuPC1s/QnTVQAAeuL99u/Ntt7nlH8vSH5ei+7In9po0leavBe3G5xNWn8YjYl06v7/ZCvwIeIP//0eLRmOEJ2aJc5d2ZZr9Obrpac75DsAAA3xnqGT+xYfb8cHW32Wjy01tUOS5J2qOoMzTQNmsD5YUj5ZI9v6y0m5LDIV1vs+Yg1H/3s4RXs4QzRRwAcm5TPVs1jN/a7xO+Q7AAAaLsma+cJbd7dpzkH4uUy/c4pnKcm1d6OJmpxM/Q/JzeDjVjo1Ot7JrClI4ciQDZrTnjn0e9D8l+zDhNK2keXAkt/RHAkAQE+8d8OR5moTV+utBM03YjBuU55cbstwNsdaeyJriao4unq6Mw+j5jBoooZfkn5fmG2zMM+9aBfT/BnIdwAAKvEu8K9H7pXzPteP7AErjUr3dsaRHIxdpeepSc/kqZQ09qRkRDKGI+NgNXozD6Jnbky02CPFh9OHP+sLzi+xd1mj/Q75DgCAxK3AWyccGaORpQEv1Ptq3W9ylQZQx1AhZ53v0P1Ww313Vh/ov5vipkeS73t+Joi5aq4nUA2bxcHv+LMMAICwZqabQ75z9Z4JXjo0Ur2vVUuBKt4t6U6mSdMNpxv/SfJQPn32YvfkqBimsnomvKfkTIj5yIOUl8KEF2GZkCybpcvv2F0FAKBpzejyfWbvD82uZGfW0nNX3JntO9fvqLfRRCOyfTRobyZ0CkaXCHJr9WD206HJvB6qSWvrIwOQ7wAAtMW7Kd/nkuj103yZ7CXWOhTZC8rQKNl2q2DaFz1U850GGilJl+8h+u+L9Ges9aZgrDWJo06aOwP5DgBAS7zr/D7zzdVjkUkrJpDifS1cms1phPTYWjvcRy1b3KHxaSh7SYYbU+H6run38yWl3DVCD/x9tQq1qPod01UAAJJ41+jdCkeys6sauWu172vPmiGropH0Tt+hJdXv1ImR9dOGWqf8av0uzfclh2dCqiewjZhQVhLkBkku5yHfAQBwiXerekZQe+O0R8Xsq7qv+lxrT1WmngAAIABJREFUF/mkPjVtGffZ7t5ea1U0o8j3wNKR1UswLBnVnwnSpxHvId8BABAw2N2U78V2k3q1iSUji41Vp5wmj5FuJmsEbR+Yvl4e+PrY0UVmU3nbfK96xfhZ7cWwZ5bah7HqxJa79Nqr95iuAgDQsWbs5shZXuarnXcejawOOFG/JMC/09QT21+kPj1o/XizP5j2jx40/+QNVtICktRzg6bSnlnyctNxvqlluuuufOwiEFuu2F0FACCL98mi97f2dNW8vSoL34VNs/WoVN9AJe/11ES+RFOm9czu55sdu5QfzNioP5lIEj5pHQUhz1YXHnyP+6s9AR/KyAx34+XMFfIdAICOeDeL32eWj5xXzZrRDzjpdQROAU8G/yrRmCTak2L/mK4f1683Xw+4kn/4Nf0aSrJ+rpAn70Nlc+RS++/B0O9FoiZUa09BkD+mqwAAMFwa7N5ujpy1yx7Sfl9neepj2/RNUPcSqcPEIc7r149LPWe8XL64Pqn5iagv3cnYYK0u8JURSarCkUG1Z95ZO2RoXfMwGguWYrcJ01UAAFriXeX3mednTiE/q8dX62Tk1mvmJe3axkizJCUnRiN2SfIfUxTxRO6rrNQ541Q3BRO3Z87oTMxEJnvm8Gd0nV71jTGDJpszi9DvkO8AAPF+u43Ldx6a0bi9yMzkx09cxqYR2j9dmWm6+NTrl45PDD8+xq3Fuku+HxQfqvHqonszWc7LCWo4umoMpx7yHQBeHrfbM/y+Fp1ia6naxWXtRPCbt0qG/HKdLRgdNO3m9kjxU5zBGhJdsZDIK98/K/leWO98vBoSmRv7q4dyF78e2OUPVkyG6SoAwJqZOvTebI7ULXjZMsZHrNUyaNfl7lauf7KkzK7DP574G8zlNHRGD4B45DvV09W0scrUOz+vXVSMBcNrZ4n3oDSLwZ4BAFgz4/J9lvkZ1XWfK/U+b0+1rftOqB5z0uuzlsQlRiV9N/ic6r38FHffl7ixuov38+PQayXw1UZCvgMAcO3Tu7G7Opf9MwrJi7uraysUae+p+loDziz7d/zmyweVMRrHnZFmcoaK6OYnsWRkHq5mi2ZZpNkeGlH40Fp5gnwHAIj323PyPVvv7dSMUO9bv7OdvMlIIeAPX+b63WHiQfBExiEo6qh3zxpsust3ejMiQhOkfu+0R/a/CtNVAHhh3Fx4X9fOfHW21ptW5r1vzkvZNFjvRfRt5Z5w/CXAfQKEqjIxWTZT70MVpe+7Ys/vZHwmuP0YtY4M9gwAQLx3YUYj2WE+tTdSJCTJbbtr/b+mZ3Kw+08J1UveZFWmv5Uro8XcjU8Sa45comTn2v1k+LCIddWgU31wMD/kOwBAvPfCM29d8a41R4rrq7wpkkYb2q1/L1XLfPzgk/KxO/CDpcB1uRhVn5R3+VJiZuH+e1iSfg8986VxAwTyHQBeHNfb7Xn5rjo0eqvY2pyryowkDa2OnjuqPyxSY4SGGmUy6uYSGVMF/snzLt9pxbB2guTPlPZ7GMzMoDkSAIDb9C35PhfafVWrgaN6355o96Ue1e/GzMePPzEXVcCTfVq11fpefuOBhd+PjaZlyTHJneS79TPB5b9DvgMAxPvPyPdZS0cmgvfX7pKb+3d2/w1/+ZKWWKnXRkANpa6nbORmU2b1cOw5xflq6Aj4RhY+QL4DwEvjMsDu5u4qLyUw2H0umiJbJ6epZ9/IsoCHi/JLz85HLimgspiAbLqvv12qSP7KqgkOsc5jNKcbHzqOe52LN+x3TFcBANZMG6HnvOtnVyPPb56jGIPmzUO7f/za03MhmqiZjkxSnbrRd6p3V9PC6vk+MK4PqT4yPGO5Y3cVACDevyvf59ZpbTFb9QdlqHtolTK7/6Y03ZvG6lp60hdp846qmnwXLD+Jqx5BaveHFb/TfGg67k5PHvIdAF5RvA/irXNUe9XP8p259yalkynk7V1W+rFNpga/00SOM97U3rlVXKVztymksPuu2kMes+4PTGdmJEoD+Q4AL4frKL3/W5vVkXPDfK/EOxnlAu4dp6NB7Nd16STzM0KSk7bCWiTfDaV/yvelOLyaN1dPoyYMLKxa41VUzwDA61kz0w/J93UVrQQqx2/jRzw617If7P4HT1Pi92ZDJLG7TFY9DanF77GIIPnwcdB65iOfib0HyHcAgHgfxHt/s2nVw5FW5LFX1UUta+ZPnqc9P9Pod29UE+i5d0rhyHhyNWTfPcSz2kvYJXyw6Ds4UjNojgSAFxXvz6BdHGm4M6sam6Hm/hJZJcGU6n+nP3qmmvqdqmIxo8a4ysNfk35nbe/Lwet8v8kn4DsNkpiuAsAL4Sl27zZH6vl3y5qhT9/6ksLyf+G7C/1uN7xXK0zUC8lT2m1a8l2P8M7j7yFlJJcxa0Zdf4I9AwAvZc1MPyjfi0bgyqAh90Yqdc4hxcnkH7L73hHczvyU6pzU30pB9tO7aI5cYmomxOnqWS+m3Nf20j12VwEA4v32A82RvBtYGjSbS5mToz8sh2b+1G3YC+CtY0wNS4nshho+XZUHmx5Kfll4DbzC6KFzsA/NkQDwuuL9WThrIwW/t3oXe6a8Juf/mt0f+6tEzUtSzKkh81sv7JyJlwI/OD32R6bu94SRoAymqwDwyrg8ac047vK5nHcyr2F3zq4eH/5mE4HxhPH1VWsp9VNQvCnfq+J3lol8/JOJPW+zymr3MJiMxO4qAEC8f3e6OovRauT3pmAnn44neTT7z5+xDyJylEe27/dRaUMlc+b0ZoKsgE/i/V3T72FEwkO+A8CriPdvoLO7WjkzuSmSOrYM+brE/gt2z+NV1X6vkjOVxtf/5nJ9z/Z73FM9JfxyGPByv2mg9L285QT5DgAvgeetGcfuarm5urUTjgqvN9wa+g+Md27PkPVzqSPftYKC057J9/gCG66maWuIZTTLkD2D6hkAgDXzk/JdJmhOpqex80yfaoELZ/k/N94jvxP15TsVl1Zb+j43R8ZoZDi998BcmWTSjA1W0RwJAC8p3r+JN2cvgbWvqnnu9H/2rkW7bWOJHWlvt1uzolTj///1xrJE7mNmdklJ1JoG4tap4+TEOhUEYzCYVvJ/jzVzt2dQTc5ofZcK1bvJfXfTHtPsw8fm+5XgndkN7CjfCeKXi3d/eql8/zdx4OtZGBirrGXm5D3WzMTvuXDPO2WQU/pQvivOakdV79O6alEuFo1X3dq7HpyuEsSucTg9jMt/zdXAn0ZCBk0FkenC6CvOZrfiwzfk3rPwO7JDfsWE4at65n7VY7wzfHATtSfyfVxaGJmWw9OeIYidi/fH6b1aPTO/Nfb8ojUs+TZrZpLvlaVVVb5rtWTTbtOd4efh6uimouBZv68fsFK+EwTF+4O7qw3Ou8bgqAj4TatmyseudN/TOaq1i1XMihE3R0at72MyVx2nO062fndKLJLNkQTxa/AUdq9Wz9z4/XMBe7fwP94q3r/GFqrtLjbWF58n/Z7JnZkikiE+7DFx/LeMX9VJwOoZgvgV1ox/vXyfllehiVdpvooGAe/frD4BI/OeWvDQOD+PVPpbMjKqAR6T4WrkvcsHthfEJWnPEATF+wPyfVLvnw1SvS7d0Y14v09X9ZxjloMssvHib4maI4O7hd9vlWIhI/pws2fcuvgM5TtB7Fm8PwtV9R6L98es94je320dH4Ay7ojmvVV5yRVZLXCu2GOid6n/7hZUFFC+E8SecXiSNWPvNonivXIXuxKIxPtjM7F8Nw9NoVxahX2h5DinZxI6dyHuj5z5vsLizpbvnK4SBMX7Q/wenc9Ooi8qNaJyogkdiPev8EyaZbfFO2riHZE9872rGuI7fPd/uVTXu/G8GpTvBLFT8b4ZvZvWTGvfTGbhdCDev+S73aJQDllR78I8xtnIxIxJMKXix6aRqlP0O+U7QewPp9N2/C5uNFWkeuUFwffASwdAvrcnft+BVLNDK5h07p6eCfkoNSTpyCkWvyYYyeoZgtitNeOfSu+V6hlBsSqKF+pH0wkmungU4+zMADU00yjfMVfPjHE2Mr3Fl05ZJ353aw70cXeVIGjNPCbfP2uZGKNiRv6lN7bNpPI9L84prnZAbTWGVv7u4rurc21kHJkJRX/kml7gq/tOe4Ygdiben03vZvUMDBrH0Li9mnS2oBNS8sjMFikFlB3Ohi7eca+emQ7whVFebcoU/cjpKkEQrxHvpnz/bNHlWFb03skD6X3ZMqCH3ss+Ankp6ujmYuC5bcZNfTNhjCk+OInfW3vGOF0liH3h5E/byfd/F1szKAg/P/jRCyUdvBB1HKxDrMKnlra8m5ebXFEpluRnQqTf2RxJEMQLxLuxu+qXeO5oCkp2Q+9x8Uxupzeod61c0kfhyDCXRBa7rIb/nup4R/lOEL9EvL8CavXMImtGYsLyY76bh/JaC6zkIKV+saaesS/5Pib2TEzoLopEJkS/9m4Tw5EEsRscT6cN5TselutlnvKjm8fygEFfQDXGwyhfAYbsLl95oSmLRAZNvztOVwnit4p3v6F8/1ySmoFkvQudBf3YCQevfylS24zVNBYbNXFzZLrHFIq9VU2/O8p3gqB4f6F8h8FhywR8lHrv6NG8uzOGdkelrUDcjcrUe76wWuh3xZ9xlO8E8ZvE+8twqYUioZ/FVosXUdwuRU/0/gE9w66UDzQ5VFH1TIhD7m4KzEhJmnFN9TvlO0FQvK8Iv7df3Gs7n91N38zkzkiSvMGEkvKSWXNkbMyEUekWu4UngzlfdZTvBEHx/mT57oUooEF+qPRE3tAVvX+bMzCN94p6F1/H/N19n7jdKRNV0Z9xy+T7P3xiEATF+yL53pSGaXTf54xKVw+ol3ZWrVGDxPbSwquLugmSKGTC7PPH7/TPagKCoHh/vXxHc3+7Uqkoutq+qwfUYxAXUbPtpobcJEr5PrcCx1UzLukk0P13R/edIH4RDq+l90y+y9v3rUodihvfl9L8kBdRhZr3weorKMrHvovfI/0+E3kQW8bk/ExrOpKrqwRBb2ZB9Qzs1EyLSSO9Inx09Yge5CgksmODTTe2s696ct/dKM5UR6VOku4MQdCbeW34/XOozlEX6Hp0OVm9R2dk6kblZDi07oKpOfI7OxN1i43OPtK30n8nvRPEj4c/bSffF24u5cuqGBQ3vjN6Fzg9jTxioXzPpqt55btK6uEhfqc7QxA/G4fTdvLdK+1gGOr3pK3GRXRGRBiGoX1hVdtbFRsLfNxMMAv46Gcq4S9uBia9E8TPxnEDev+rJRS53JKZ0ds3RPn4oBiXpvYLBrsuOH6hcNHZ1Zr7/qA9Q3eGIEjvjfLdG3FI8e5F+Tlll/r1J73Ru5yYqZyLxWC2BRfhyDAWVWIJ1TuR3x3Nd4IgvT9bvn8aaz2GNYOGPHh/6h3mgaZs6ykN1RhT16t8H78IPqqJTMwYFww1v9R857ODIH40TpsglOJdFPAW6ev+RW/0/jFYB1aT7SZY1/rkP8LNxQSyGRPccwwa0jtBkN6bdlc/F8xOsch8R4fqvXJftXzFstMz8e89hik949Jhaqi68KR3giC9P9+eWWi6wF5ySlRvb/R+sMR7JtiRHQZXjn6k8l1X7jWQ3gni1+CwEb1ffMs9JnOBVZe2XZozQ1t0ZmiaOiSffWuOTA5pN2VnFvI76Z0gqN5b4LHAdDf2WSHI+T5Hq21dv/qND0294zgtriYbq60UT3onCNL7q/jdOr/URvyZUdOjOaNQOIzCgtp/3d7gvrORLhip9/AEeh/57CAI0nsTgGGdgK+2wPen3tF+aFVtGlPilDgmVz1CPS6zluADnx0EQXpvlO+VbLd5kEngePQajPR2YZhA3Ch7gmXxDnh3Z/cgKvVAeicI4orjVux+OYldM0sc+J+11gTphsdQv01iWjjf1kx01KNeCZwuty4geNI7QfxsXDZT7xcPNFM4ljTSdEfvsKPrKEwY1HvVvj/Ff8dmQnTTo1GyL9bvjvROED8bh+3o/ea+w2J0iDW4kFq2InumU/WOoZG3s9IZ/db2TbyH7Jb2Qoo/N/F7+B+fHQRBen9AvqNVpUO+w9djY6Tov2Q8XRgvlbj/7fXiOIn38iKfUDrziIAfWQhMEKT3ZvnuYa8yoe0eX4EO+96ztnYYp1Zx/5C5wfodAXUhUe+tet0l2v32o6be/+GzgyB+Ni6nze2ZalJwaR18Z/Q+iLelavK9cmv7Gps5xs57KPuAw9P89z9/Fp8bBPHDcbxsRu6nCwDNaofRzgLZoZ/Isb9bq5XGdwhfp0z/cfgG0Vw15vNFpH798fU20nonCLozz5bv624yGSK/r+jMR+1GdinfMTR0R97nqnlsZqnrfiN3m99HWu8EQXdmCbsL09U0TYNVSfi+6N0Pg97Wbo2OJfKf3wFpKLK5NdKl2n0md4vfA70ZgqA7s859r/N4as2YK1B9XePz4q5Sptb1K07azBkIISST1VWZ9/PM9G40xPvffGYQBOX7g/Jdin+3mTezrdHV44nq7LR6sgPltzLTXHUMy2uAE2q/Sfizpd9DoDdDEJTvi/l94XUmu4umw+iMMigQb3WIV5wgZt7vocj7pVXX0jXjCsf9RvFmPPLPr1O8E8QucNrcnoF2kE5cSq2jJ/P9IEYf68eqIB1xmvV8Kt7lnaZW9T7Jd43fKd4JgvL9gd2myuDUPMiaeTNd0bsv//pa2B3CSFV+TZvnqqk149aQ+82XUfl9pPNOEHvB4XJ6825Tiztjfk5HjyYk3haOLolHV2UnB3MossxEhiVhyHO8tnodrwr8PlK8EwT5/bHpavkOLWusECaxHdGRuoNqJWVQK8UsxHvk0LhW332yZq6srur3MHKliSD2Q+/vct9RjZK0ifx+3JmD5sIMg3VlVSuKvF/gsxaamkLv54naz2PxIxfvfEoQBOX7Kvl+Qr1XBnVLPqb/fugdtdyjdWVVC41OZTPLFprKPdV0qirzO60ZgtgVjm913610ONq2PrvyZopbTcaearmxK7x5zXkPS8h9zKaqLvoZxTtB0J55Fr9DueChS3dYi50fPXkztngXbJtKmAgu2VcNy/dVz+MoqnZBvwc2ARME5ftqd+bSWgzcuvHZj3xH1YgpX8sgNhdExnvZFFmj9rzgvSR4jd/HwFAkQewMm8r3i+G+1wLvkPm/E794aLDe0yOr9RGz3RRZ4fhzod5dSvIpvzMUSRB7lO9b8rvP766qt+haBXwfw9WD6p9rDhTU0etk5vikSSw8sKtat2cCe94JYofyfUvzfZbvxo1RaJa82NHStXiXbu1VrjNNv+rjpshQb3h3LetMYzFgvRL8nz+fzwSC2B0Om7oz1u4q2lR7lknpwVM4ZAXAKOLtEZsj/ijk6WtygW9FD/A56YkUSD2pjhwZiiSIndozm3YTAGhZWIJSASx8UgcPYf0QCaQvrEm8jyEku6qNRJ+Qu7Ocma9PZSiSIPYp3zd037/ku6zTGwppIDfpdqA75VNLxSGmcuYgeu5DXDaTqPfgmpZV8353w3e/Zt9HhiIJgvL9edNVmcYhme+wm3Tff7PJS7XGxiJTPfWeX+BbMlZN+t2bQu+BTZEEsVf5ftluttrcHAmR4MVMytvle+G3QDm6irIgDfLBjzgU2cDtTjdmhLi7iz/IUCRBkN9fFo7MqnKRs7pu56CLk6u+ViBTubcnrHV5L7W8t1F8pN4zUhe1+8imSILYMy4b6vepmkAi7tyNgeDblDPJN2vP0i6SLnaI8U8lJz+fz469mbAwM1Obqt5Hq5yrEgTl+yvu8qW2i1bwDqU3Eh00EyjiHdJfFTX5noUiW7wZJ/fMqJyelRHQmiGIfeO4pXq/AAqpJ8nx4r4RupTvh+IVKn9vTxiENFAxV11xeE/R7CXJU7wTxN7l+8bNkRAX80Xq02eTXcj31i0sSBWSMuGnTZFhYW7mbCVmvs2a8RyLd4YiCYLy/WnNkR5533keIITm3CgvBW974D6UALt8vQNaYjK2bLKymTTzHsy8e1vPzPl8v7b6ta/KUCRB7Bzb3+WzL0qnYROJHRMCfZs9Uxfvgyrf5YFreoEvLDqaHSdn7gQuzldvoRmWzRDEb5Dvm1bPeC9a6dBz7xo5vrn3HdrFPeXgqnhLG6l4PzpJvTfl3VVrRmgiuKVmGIokCMr3p8p3j0GYqor9ivV10PcVAx9ql2NhR9/Fspm05j0sybubzoybx6nnqWzG8f98gtg9NgtHXq7/yDkYWb7Xy1zeZM8clIPZRnUYrCvbX5nIuSkyLGmJnI9mN/TMTATPUCRB0J55+njVQ4nBSP5GQxPjW+wZ47sKeWyMqnpPQ5GWP+NaTqvKrvvNnzn/n70r0G1biWFIDzOMZ8Q2oP//17c2iX2no3Ry1p5ThHzDXrd1XQsUMkNR5EhTJEG8B32/rifcNgVnuN2EJOfN98Hwr1fkHdN3zN7L+uwDdsglkCGWRbzPrM8mCNL3n6Lv0AcTq6MGSYz95feL3xuLTrYQry+7BYdDunvpmcl09+RkRO4NfEyKJIh3wfqK9D3kKD9Dfr/YLLzqABdcTgXIu+buY3CtGmPvt8OmZeG9KkGQvv9cMHBJ31sSTHPyd5/vl5bbHbs7xWPvMn2MeYvHYcd7kRZWa/CZ7P6pvDMpkiBI33/I/P4UfXdv+jvO98mrS91NkVJfZImRNyO7KbI12xOq7wg07+2mGZJ3gngv9Nuufv07z9B3saPUu873wLEqSDsWt6lJJ0VGT5oq9q55uxru871flaZIgngneaYne7/VasesMzhUFxjmO42sxmsLa8LXm9fi76sSj/FARqQ32EtH5EzyThBvSd9PiZ4xibtMTmQkPhvqM9+lSdpVQnD9EAAZBZIiQcDpyV7V7GD1Rt757U4Q70XfO6vvTe4+AVLsj8m+0x2/tmi3ydZ5M7o+ezyW8B5qzd4HPJMiCeLt0Iu+ryr4XbxgLsGBusY8/XH+7m0CHK9kww/0RImHTiJIrQzgnb2TvBPE+8kz1xPMM77UYQ5OS+X42fl+8cyZYjdkS+MWt9yr+oEzqRrwOBtS3aru7J1JkQRB+v7D/H0Q83JJlLZuCfHgcugn5/tlapJ3x/9js3edFOlEy6hiJqS7J5QAvDlnmBRJEO9J37tGE1xFWkV2EfJekf1O3D1M3vUfgXvVP4GgyKTfBgmRyeTuO3tn2AxBvCU+Oge/Q7OMqJlukndDz/6p+S6mY6cVFuaT932v2gqKzPPdl7nlmXmkEJTOGSZFEsSb0vfrOebI2iujvYU+ee9wwHppxCL4Ub9ukM7DFBndq2rRHXL2pO3unz8l7lUJgvS9Y3IkPlQVGOGCPOZgsH5/gOTQvKBt0Xdz/g9DETYTyXd3b1VRGsGm0TBshiDeFr3NkU7LHohwifd9fC+Bvwz1VkBf0HqfkWj1BiVFzlHurpNmXL97fs/Ee1WCeGt55oTtquUzcei73YT3EwT+v9CpUtM6A58AmSnyoc6MkVMmxN1Ld2RRvjeTvBME6XvX21URM2cGl2KEE4O/j8BfYonEZpTl4+WGTLBCdgiS94SSZtI+0ZPVvJdPfZJ3gnhn+t4zOVIVexjV2uLNTW/ef8uAFyS0iHO3pB384jR8/P3yU1N5z0f8UsgzZpxYnu++WSNZn00Qb45Te/mcrlIQs9jMd5F/nWYXe6WKbe/STgou9wo7ebeGewrnRJYL1c30/uD1NEUSBOn7ab18gjow7JjFQEvfvw34wU2FdItWZcKPo0LOkcwUOY7tBr4lGCOWHzMV5J3f3gRB+t6LvQP6LtUZqErY9T0q36bBX8Q9QC0eKwJWwGL5ObMvJgubcUd7Knk7rNub1VJ11tI7kyIJ4u3Rc7t6XaUhuUiwZlufQeUumuMT/nIJ5pzZo3+CKcblfqEV856UKBMNeF8Ue7/VZ8/83iYIyjMnRs/IpB0yRzu20e9eDk34izSFF3MTUFlk7BaqjbzHr1Vvo904Vk0qRCyzvv/9iXtVgiB60vf1mvXyBdaTsXpW+BH+i023yyX06BBzE6AXrWL0kHwq79ry3hru9TVT/eZjqqelCI2k8k4QRNfbpusKo2ek9WOKHIgClebSGO3SyHwMhfy27DOPOV+FzYyu7m6liNUhBPlyde9oYlIkQRBdkyNv5kgtwzzN31vhvJMMaMhfLpUHMmhttK5n2w+mIa/PDhkikcsdema2n7eJT1MkQRA3+r72u2za6bu0hreEnDORp8PncN0QfZIYXvzwOlh9aWqvOoaiCCrZHXhm9p1qtlfldCcI4hz6HmjFMOYkVu7jHyfK2MVh70ZTrB9A89GW3YveDk93T5UTskybYdgMQRB3rF3N7yKlp9HV3Q/o79824AXnx8gTj5Hty8gb+Bp71WWOJQA/SrMLBT4xbIYgiEKe6Xm6ehWxm5nC+rsZOvkdg712vsiRXbBoz/t+0YTYezocQ1A6IZUrkqZIgiDOoO95cmSAvkcEbxhu8C3kHTR5y3P03d+r1ivVdrNqFUJAUyRBEJC+d06OlBh9lyq6UczEgn+TaATnIsA6wABnL0tIAnvVpBzvVvPenNvb96OmvM6DpkiCIDJ89FRn1kFg6LuYrXZBxi3PDngBVN1obIp+uPxJESXv2jOD3TK7GoPZO8k7QRBnyjNAoLanroTOnqSIEzg63MWu83Y/F8XZ6xT7vIGvlt4TEmbqya5UmtIwM993rDOlGYIgAH3vqs4o97lpLowx5qLy6ZAd3lLarZ5vib8EyD6VMikywt5d1X1eqnumvIFvpCmSIIiT6Xtxsv/M3SqufGqeIRlzG737zudRuV7N2fHriSGZ5D1n8A+v+xzyzKS9xyMXa9jRRBCERu9ePkx4oQYvYQ4u+Cap/C/r+7NMOdW56mRGEEvr9USeFDkGEiLtpWoqd6j5z/MeNsPpThDEefR93aJnjm1PDbG7ltAj7F1wSrs01ZvJjpxBrye2vao33fOwRXksAAAgAElEQVR89zZ3n9Ut02PBOlN5JwgC0feu0QT36BmgpIiTquu05Ymjkstk3VEZ4rtURXqTuQqGry7yHOBknasmnO8eKe9QNH6b/DRFEgQB0Gu7uha12oL3mI0p7qS9C2TYot0vgnq86w9rz38YW1lXyD6SIu/SzHgo3z1ZecD7jE+5PXKc2cBHEMTJ8swXfRe7205q+owMKlIrN2gkiyHeeFeqMALYePwIvMIqSzyezHcHIWLK8Z5FRlJ5JwjiVPpeyTPi6ByCSqk9+i6WQG6/b0W9rSpvtyxQ4Fr3oxkltigzZDJM7/sOVSky2xErkyIJgjibvt+jCSapjebm6BRTfQ8UfJR7XEExk9Jo45Ow7z6vkL2bIr1zJpQR6ZQzZYNdBQFzr0oQhIVLV/PMVeoYdTcKBhJnaZF9MWIfp0IjF98SE+1kUiJOETbj6u72LjWpjEiYRHBPI6A0QxDE2fQ9S44UVG4quEHDKTMVs4sD2WHQw0EcU02LvWOD/hY245wzWRmRCXpmCvauajxI3gmC8Oh7T3lmrbarLfrebulrqTzaFlP7511dSBovIdQ91kbevQ6PJdresd2pJt2c/eV5pymSIAgHvZMjxbS8+3V4Zkmf9aTQ7yTlcLcK+AT/Ci8Apih5T3Muts8eZc9l9y8b5JIHic1Zncc40hRJEMRryDN/57tIOA8GWlxs+m7LPNYa1azck1Z4Atzx5iUe49gMAJ5j1UybU6ZYrLKjiSCIAH3vqr4PIuay0hyyjV68lkBuuibhvxdJOBBs6tzDZmYzbmZbq2KrTD7dlfx+02j292dSJEEQr0LfP/8dXewBa5psd7kcaWU13fWCt7vG5VN54VQdO0ldnz1D9p4Or1WLkPe5pO6fDxB+7xIE4aK/OTJWspqJ3zK1Vp2tGHbj3cWR1NH7iv5lQf/lT6bMjEh339g75u37qWoCxsi5sNBQmiEI4pXkmdWm75MnfrekmDpM2LtdlaqOG9Y2AaaPgoK3Px+GsRUEXCTNJMv2XqSHzUuR774L7zRFEgTRpO/XnvK7Sd9h6rqY0o2jvosTSiZ2C7cgvm9bNqtXCnlSZKhX1dmq5sG/asDfyDxNkQRBvBZ9v29Xg/Rd/HmL09jFtdVrE7y+fQLvY1hr1CcmJXkfYTuTHe9eLFsXMNzL81UmRRIEEaLv69pxubr69N1yu0uMvguOIpMJe+D1KwQYMuay9+3zEleZWWZjtid8zLQUFvdyx8o4AoIg4vO9nzazJUd6dkY8wBv0XUsv7lGSo7K0G7jB64S9Pts4aFpyaSb5ukwZJ6by3m/knaZIgiBC6H3bZJWsTsEabFiEBxR0gedOotMJqiWrGIUfanm7D3nJ67MBfd9MM0sg371uVM3eupN3fs8SBPFa8kwe/O4Gzpj83RBuoCc9ovHH6Lt5Brv9u8nRZpZ5DrWq1rdMKb9nYokHQRAvTN9XED3jX5OioiaQUdM0x2tGXh81+Wb8/Delcs0MmTIz1hHvS3bT1OpVnYtRnp843X+b5J0giAP0/QxzpB8XKXZ+e7EQDcrzTUouQXIPHyNZUuRoRkQaFvcqRmzBccCPTSuTIgmCOIKPjtvVdR0GM6vLaVISv21JgEjeuo4VTNBhYoGdQpaFzYxW957i7rAuu5rpkL0zKZIgiNeUZ74mvGV+R6NVquFeGRslYHe3erlj5Xz45cGDu5fkffTYe6rvmRKo2iuXrLkwz7AZgiBelL5/9Xpc7YvSxoyWet5W9kUpXTFOhJjN5QWSe5yakCVFRpv3EtqqpswPmXQMwcNLw6RIgiBemL5f99tVCWrveX01tKE7c99U0yVM3ifjhYIUe9XMOKMbPEJb1fyaKf9FJr5zr0oQxFH07OVb81rtVpKjzeMFpsJMTuSMNaGL94JPGHhGpeuzK11mafVmA/k94Qjg+5s0RRIE8bryTE7fxchhN3ajxSDGUb9114Z49R1HnO44PHIYAnEEMe4+lydM+2nTdsbKpEiCIJ6g79ee8vtG3+WAnVHQSRFaf04TDJkxybvvsRGoIcGkyBEEzQSm+1xkRCozTRYoRlMkQRCvTt9BcqQEfsDUF9FeGvcwCs/o6NOlejbI9GHHvC9z4XhPRhpBkRE5F+vU0krz90PRFEkQxBNYu7pnhnDejG1mRHYbj3vbKWWHHy6Pv7c18MHhvlTcPdU5M1VTdplQsP+Pe1WCIH4Bfb9en6XvYtkXD4Q+Tk4Xa5C8u0mRrivSjACetfCuRjyTIgmC+C30/Sh7h91M2ktjM2+jc3uKZNTAJ0URNlNOeDXa1TlTKuyO+jq1EN2zQU/yThDEkzgzOVLC9N2+PjpE3g8K7/WjQsq96thMIkDx7tsVU5YtU5Q15feqNEUSBPHy9P0WPSNykLw3hBTx65wcucdtj5JqDys1eR89YWYx8mZAeQei9PeZT/JOEMRvmO+Kvsuh7eaxKj+PvTeeLTJ5bpt7A99cK++m6l4J73Ppj5nVGVNxr0pTJEEQT+Pj2vN2dRieiPCVoIRi9C2Zmrzxp7aA/7lXtTuads9Mcno71IDfh3wqgoBv96rcqxIE8Wvo+2D24Dk12M76U44sZQPSu3hUXx712SMc7XPkmqmozM5c8AV9X5gUSRDEv6NnscdqF3tMVpBAeP9pxc2AlDJdAeWS97rEY4Z5BIuZE5nKfHd1xqTKPTb2TvJOEMRvoe/rLXrGlNNR1FdApjeeDRIh8XJAev+8aMIVTUvbM6Ob94pYsWXRag33qgRB/C76vj56+cIMPXCBJH7HUkXQxatpnTyXjRT3qpVzJtqajar3yi3sjbxzr0r8z97Z9raNxEAYjaCcgcPuEtD//693tWWJr7srW5ZlY566TuIm7ZeAmQ7JIQBP8p7omUkkuqtZGD9iJkqV3LKXGpzXq+VGLtr9N3Tel77qEN7vKOpu9poOyQZpViUP8Q4A2EG+H9pdpWlqHWeaNm0feZHttaH3KZD+zsUmeQtqurjO+4aMyFsjdVB9VL61mjHyDgD4PPlOLBlYdD5dKe7mzUx+Rd5muPvJA60MBJEU6UeJddxmEutL9sLqwgVJkQCAPThQvlP6X75PYSG2V/h66q8jzjv3oBrWO/Pug6RIb1eVB7pn66pnd4lJuvIQ7wCAfeyZo7qrxHZXfRulbr94V/ds9e+aveyw3vk/wC7wqb6qcyHbzXe3IZHZzYosSIoEAHyifKclOTK8Zy0dm6kySzP96x3e7oiEjDV+mIfw662r8qvZQ/s2kwyJHLykd4h3AMC+8v346BnpfTjnU91TTVM9OmbqDDKIHfowCHiID6x2+u7skGoxx1b560iKBAB8rnznxd0vr5Ot5/qOau26UiVWxlPqkzsmz513r7o36vqgZ2ZU7K/osnIHB+IdAPCJ9Z1Fz7jN0cnI+CnuqPomfZ9kn/oFfrSvmrfMzDjz7WqDdanu2GgCAOzGscmRsz0zeT5MNOPYc43J6bxOlYOrrUSzSV/gk21VLyNyqOUBF3O0Q2+wImwGAPDR8n0ejjSzkF6aQFWp11+cqmnv3fdWmXjn3kw1I3IItHu2yZB65B3WDABgXw4cjqT7cOTU4Z1Mfnh7j6SPVqD0n7ZOiaiwmWpGZDgzI6YhdTYwB+IdAPDB8n0ZjnSyvtwAgal6BrXzElP9rwzyzKZAvG/ZVc3Gds/mwOoaNjPgexEAsK98P3R1VZ7VjuMA9MDM5MwuVv34qZ0pWbvddLVmhvCIR3i1Q+2qLuV8EIkE2ap39FUBALvzc2Q2wW04shIIIEcnp6jPuuUUk7F6egKJZVLkxTgz7FbHUCo5M+J8ttlXZdUdzjsAYHf5ng6LFpvtmXZhnv5VFX4ye6tBwmPFTZ/CdGDn0h8fed82Ealddmm1q8H3tbzjGxEA8AL5fqQ7k6YT8Nv+FJ4Ueemt7WZXVaj3rC4z8aRI9FUBAC/g6O7qxB/yo9+l9P66tfjXL82/zWL+G3/1r/8Fl2BsxpmDVLuqecl3zzrSXdnyGIoEALzWnjny7iqlTeL6V1Vo+aF4+df9SfEb/xu/5qcIe2Vw9lXL1nz3pcq7d1Uh3gEAXyTfKdH4Cfj3Vdu++8Am3ZX3bhLgId4BAC+X7+nQ6Jl3V+759/2d62N+Wn65WTM8y92ZjgyG29U51WLAUCQA4GWMdKA5c2B95wV8fSx/tHzwlwv/QqbdL5tmZnJY4IOZGYh3AMC32DMn0e+ysF/4e5fxsikHeDBh7nKpKbObHka8Z1R3AMArOXg48uwG/LW2q4n3KD3MLKza49lieiYXhM0AAL5XvhOdvrrPBf6yId/drC7Zj2ycJG40AQBeyoHdVbo9aHz81/p4TXmfp2UuXls10vDaWF+O8HHHJjt9VVR3AMD3yPfrftMz9Z39+vv33B688j9X3VVPtUe7C4E+CK3uejJw3gEAR8n3Q4ffr49divvYKvq87ndhD++16ruTLVPsUVVXvWMoEgDwcn4Olu+zgH/wwUp3y79ZPhZ/XCnvWWv3IAFY+O6D9d7lVSZXviMpEgDwhfbMVb/LRxqdku++SPzN+rQUeyXdZdkfqxX+4kj3vnl3q96z8t5tecf3HQDgm+Q73QOCr2X5XsLncu286Lyu1Pv9Sel58+b+wThGno1rzDgJYrpiz6861zxC7/3//yNgKBIA8C3yXf0bN6W9CPDleeQvXmu6/zqX76NS8ULpc7uebLlfinyJbHet2sUWqpcVltUVPlvg0VcFABzDn+PtmZSYPpfPt3fS6tDcXk4j/xkw6uI+2uKujfdFwMsBy/kPm11Vs8/EZiCzmoHMxQ0Axsg7AOAb5btT3tdizor7yFQ71+ppnGfmk1HvSdb60Qr6Svd1Fu9avde6qkNwHjsX8647FQnxDgD4dvl+0+X3Up3GdCvis1i/1fTrr/UlpvkXmc+Ku6jqQYtVdFvnd8umy3vZSw9TLdbQes8YigQAHMbPK3dXqTofyez0ubIvvVSp3s2HTLJH6n0dqKmtv/6t7lf1fv8dbafaJALdSC3F/gCw5f0ffMcBAL7LniFV7VUFd8u6dmiiuj+amq/namIhf/Nm1gLfkTNj4iGLs8CUA2sGzjsA4Dj5ziovvaCQ+38pPcbI/fgxcbfGGahxlqBUk3Wp7qU56x7GQ2Y2LJPd20xIigQAvEm+U6VC0xYbhh5qsG4ghVV/XM0abz7eavfrg641+b7IFCe7s0yZddzdu9wR9VTRVwUAHE87OdKWexKbStuM9yfK+6gsGfJGbUYid2DS82huzntRtntkzGQnHlLNvbvHmebPgTUDADhcvr+mgdr63AcNmmTbrNJtF7M09f5qEerdSHYbIqbj3LPtvAbyHUmRAIDj5fs7hiOv5T3pop36FDybmfQ+QRX92KKZZ95n+70ZEemrdzUQmWNrBkORAICDEcOR9Jgsb8p18g2adH/c3o6JvZS8ep/qxo2Zn6lZNGUJG7DejA4lKLaIZ+HH5IrtjqRIAMA77Rl6zoWh+LOow38P5Xvq0PPGlB+ptrw6d1dvnsm8qarjIPOg59h1IKTcUM3Ft93RVwUAvFO+a3uGnjXbqfMPpUpfnpV0j5R8rdCbqDGZHvz36b7RVJjxPpjU33tW5JLxLvLcM5+Dr8j3S8ZQJADgbfK9a4x9rxrvBRSYEt5V1PVq68hXWivqvZQSGDP+NlMuOs9d6PbqVCTEOwDgPTzeXaWWMdOo+EyZp7sFn5YnZdBEKn70Fp/sjpPqtC7FvXebKUejM/HZbOyrAgBOK9+fmILsnZ8ZU2S0J953bS2y6uh4Mx4pf5XSI9wHMbruTs7Eh/cg3gEAJ5LvFFVy2nN0hoyAT1y9sw+X2p60HV/3arRi1yEFy9hMDo/t6ct7MjiMbzo1rHcMRQIA3scPvUKab51/T6pss5rP63qqT8UbD96LGLtPzRQ77z5460zZpv7yy0xBvvt9KBJJkQCAc9gz1CfJgy/pSxXT8+9p6a766n1Dn5WUPWNXnO77qsXdVrUJwEyex+o9Fu8Z318AgDfKd9oyOPOwa0P+DwQp1tVE5Lhq+LDGj24mjZmgWTea6iGRc6lXIe/seYP3jqRIAMB55PtrBt7rBg0boFnUu52K77VoTMkXA/D3sJnIcM8qgICf3cvy1qpX3LMMm4F4BwC8kz+0++xMf3OWZIHXa07Wgt+SDU9mp2nkG03Fq/CqqyoCw7Iddq+LdwxFAgDeLN8pbfff9wqZXAt74m8TE+qpZ4FVn3BSXdVlX7UEzowTMyNLfDZpMwibAQB8gnynbbW8N4GMNtkzS31nv5MeoEkdG6y26v99Zw6bKaWWAaxiZbK+0dSxqzqXdwxFAgDezM+Tu6vPln3pu2slz3ZX+6bfZeL7MhHJ4ghK7T6TCQrTC6z6PF8Q854xFAkAOIE946U/0vPOS2tyRq03KR+Gq/fOvaZRX3TiYzTV6l6r7VrCdyysYl8VAHAK+f7IwPuO+03J2u6J+zTJCypIW/KCr0+llNJzem8xYUy5704jQFIkAOBk8n2zA9NKHugV9Mab4ZEENmUsdep33mIt8ohe4MtkuY8qnJhczIU+iHcAwKl58V0+ah/4SEa7J+bYiHSa1L26OvKPRle7W+m+FncTOdPXU0VSJADgU+T7I447bTRzZEfVGDTSe4+KvPXcRzE2E3dTF999kKexszXcA2cmQ7wDAE5a31sSu54387zAD8ZnklHvMgi+d8+p13cvriezWbxjKBIAcBJ+mvlgHaqd+h0aqhd4FU3gzr2n5mTkemJ77Oir6uPYenKGL7U2+qoImwEAfIM9s1PSmKPglVuT2pXd2W1aN5pK8/KezP21pkzHQCSSIgEAJ+OZ7irtUe09cybpIXj+SjtGkkWLmZn3we+x6rx3J/q9CcQ7AOAj5Dv1ZYT1LbDShgHJyKTZ6rsvcQSlsq+qe6SOeO/YVZ2TItFXBQCcSr7vGCZGDxgzvjvjtVobBX40Hs01KbIEEcA2UEz77fw6U+kR7+irAgBOJt/pgUAC2ntE3nXf+cVVnlKQWlurLEus5bur49lcvecw4d28BPEOADhhfd82HEN7qPZ2deeaPW1JJVgLfdRXvRozVs7ri0x8XrIU7KsCAD6On913Vx8Jko/cmWQPfKSO9PdlbEZ3Vdf7TMp8ySp+QM1LtqwZJEUCAM5oz6TDoKB569V2OzBDFCdIjvpqExfvUUZk9scfc7/lDvEOADgv1eFIeizonVppwG6UATXXWFPjepMamykdu6r2sGouZbN4x1AkAOAj5Du1XRXateU613a3v+pbMo0dp8B5H5jRbmbdi42OdER8hngHAHyWfKdduqRP+DVV+/3u1dTiI0c+GdnYV5X1O3sBBL3SHUORAIAPku9btDw9NExJau2JXH9GnGTtPso376uG9V1uLYkjHuJ+Npx3AMCX1/dnhPsGj6c6G6mN9/r8TGk471nc7rA3+HK/eMfIOwDgxPw8G/j71I8HisYjk2mnplrmDKOItJnB0e5ZzNXo2r5FvF8uGIoEAJxYvtOz2ttmzFSWoSj6er+92ifeRx7zXvNmTFCkno1kfny1p1qQFAkAODlO9Aw9ptfpAd2v5bsdgZdrq/X91XEem8nuzLvZXsr67l5XuPv6GUiKBACcXL63azPtMzhD/luKEsbsU5c1UyoTM1q+ZzUQ2W/PwHkHAJxdvle6q/SyMUnakD4jnZlUO6ddTM676qmKhVW7zbTFe8dQJADg9PKddh1sb+S+k+2t0rq/Sq49Mzs0qXqvaaw773rkPQe5M/3VHeIdAHD2+v7aiJmgsUoqu8C33ll7tZ0sViLxvlb0rKIHii7+G8Q7vnMAACfnx7XfqTrromNl6Jn5d7G+6s7OdNT2jrCZVbHrIZntU5EImwEAfIQ9s9Mt1U0NWhIvka3trpSvbKx64j3L8PZsCnqxfdfGwAz2VQEAH8OfI5OBnf8ckPJoSMRE6mN8aesVDz31blMiNy80QbwDAD5Tvm8ozU948qSKuhh/XwR7Mmebggqvi7tO9c1avDsLrAibAQB8rXynnuXUR8o/hdtMYjgySd896W2mVD/BV7maLcU7l/A19Z4xFAkA+I+9u11v1NbCAJr0KI9HP+xw/1d7Jl8TAxJICGyw15ppO20d4gj8shFCOrK3rnl8e0H/fZfri//X9Z4c/N6bYmxmLrF0h8xlWL2Pi3drNAFP0j3TtY+CLFiFuxvPHDnO9uGifOeaUTPjW6eXwajI9+oF+KQ7cBzVy2p3dTmeHAjZjav3q3zvevdWzzOTAee7ZoYTRfYSf/gv8xOJmWwGOHj5XnY7tVt2PrheJKpLV+8ff+o90jTZ956+r3rdyT7I9v44ydr7qq8OGOAoXs/pdfm6dQdDdumBkb1x7+dUv8z0CqtX91VT0xBkV2Z6f6+bieC7eJfuwKHK9+7c0P9e83X9p1QHD7/2s34wKvJc9bxq/3HUS683ZjApcOEcwHregQOW713DePduZp3W0QjJ7jycRqw/4H0wC/DVwJlzebpfzxSZeGh1WfV+MSgSOJi35rur3YK6vuuHfjfof58fFDlege8yvHU6vpXanxK4smtG8Q4crntm4kZoy3j38TOqv3NEnsfF+2jQezcYP1OwiEfiLmp/jez84h0XQ96BB/Nft9HcM116lsnr3vcuPeq9rHp/z9xYvYxW2utNQlD7MNN3x7tBkcBRy/dubqr2lacS63rlfGo17d/7qkU9770nVd97087MF+9ztbviHThkvq80eqabOCsMJ3jvBss2paZ8n5osMjFT5Pu4cE8twldfvEt34JheCxfm69L3Recjfzja/fphpuSSTaMZCUqGzVw/rXpJd6vXTxL5ne6GvAOH9N95xe73ruTua69nJrWW9vSQyPSgyOF8MqnivTDfL710v5wcI8AxvSVvr3YVzy51BfX7VZr3pggep/yg0/08Ee+J5L6kZ/y9vBdMRXBJ1e7SHTh0/d4tfh51waOs+TGRJR3vXabfvTcBwagTftlUBH/+/M/xARy6fl9xNuCu3zHfH/T+uzTTcNqZ/hKrU1POjPpf+tO69yaMnJll5jIzIlLtDhzb63etnO1BX1zcd7k5J3NdM+e52cS63ANN7/3p3RMPNtXO8G51VeAB8v3cOD9BwSCa6wWaEgPe//W6/z6vmnpo9W1073Sw/N64er+8V09G8BHuxswAj+DfskhNM0N2ibuq3XAQZdd/ZDWzFl/hIh6DweyX9N3VS/WDqh/MIwY8gv+67tytMNd7l1qeKTl7WP5x1XO+g6bXNXN5vx4SeRn1tvf/f+GQmZ9w1zEDPFDAX1XwFQ+zdqXF/GhBvlTA/8Z6qm+mV7wPb6D2qvfE8MiCuv072y8npTvwOF7ffuN04sHUrm7MZJea5r1L98qcJzrdx1OJ/faxp4r33gxjl/lcv/z5jvaPATN63YEHrODP0zOt389b9/abwNtRuQOPWsJ30+tYn0d/2CbLP35//ePvr7fPv79vH+4Kd+CBE/71tT8p7+/zRuffqQKuxy/25gI7t0T/T5z/+9NPyH9m/ObRrm4HniTm9ya+xo/f3/8o+13yS6wD3F3s/633h8R/lNwAAAAAAAAAAAAAAAAAAAAAAAAAAAAAAAAAAAAAAAAAAAAAAAAAAAAAAAAAAAAAAAAAAAAAAAAAAAAAAAAAAAAAAAAAAAAAAAAAAAAAAAAAAAAAAAAAAAAAAAAAAAAAAAAAAAAAAAAAAAAAAAAAAAAAAAAAAAAAAAAAAAAAAAAAZMUYQwinH3//HKNWATh2tF/lel8Q8QBHrdpz0f5DFQ9wwLr9VEAN/7eher8cOcCuFWX7d8I/eVMNmsOxAzxGuAt48Q48aLg/e8CLd+AY4mmR5+1zFu/AIcI9nBZ62gJevAOPW7o/dQG/23j/fBrthzE9oHSX7w8Q75lHFoKMJ37REEp3HTQHjPfps/RMwl9X/A+yO2t+ojBvNhp7L95Z/Rac66X7cuL9AFdgU5/r+Hhn65q9U1rHxMJt7ChBU0eGgH8W4bSK5ztg9hTvsTmexHtzE+7y45A+7Yt36f5zKRcGU0fqn9lZvNfcO8mlk3hvbsI95mdwsS3dc4fx4CCdmmtM9b73yn06vMV7c8Dv7+OQ+7wq3p893bNVXrqMf8K220kLhHU60sR7cxPuL0DdKZPu1aMsEjXBMzbeLppg2X3xIN4b4z3VRnv7QEQdqdJ9yWS/g4B/zpFWe4j3xffF49SPI94XddDsrXoPOlKfWWyYyT06XO4f7y2Po0XVe1u8j7e5s49EULxL98XrdIRn78m7e7zHyQFPX4rzXbw3nyL3Fe/RKIin1roI03ft+LTPwN073mPZgKeYG+8UxHtjvIdbxnvtDsqc8t1YfQ6h+bLtMzae9wnnO8d7rFkFN87ubfE+uvLpm8/3XcV7GEb776Eg+56za6Z6xwfzvd8r3mPttdfMo+nife61Mc70c2x7NDTFu0jXNbPgGLBa053iPS7YfWHyK8T7/GvHF0Fxp9V7lO66ZtxxOWi8x2V3TYLOmcbXxokz5J7iPUh3XTOOgYPG+9Jzc3RrtfG1wwI+HiDefVafvmtGuh8o3sPinRdzXyPeS1+bvQTaU7y7LFe8S/djxnto2Xkh/TXivfS1MbffN47Umh3kqUPJ5PrtmPEe226ahGRAiPfi1+ZuW+5o5Ez02Va8O8EfMt5D476bnRBLvFfsgLD3zhkX5s9evDsCDhTvren+Madza3o8d7y/pHf8juI9+nAr3l2+HTHet7nuEu8VezIk94B4ZweCrpkDx/tGjyOK95o9mdwF4p099s1okuPE+1aPI4r3mj0Zbh/vL+IdxfuDx3vYaNeJ96Xxflq4DdU7t4h3TXKgeN/sxCzeK/ZknIt3I2e4i7iL4j3GED+mWY0hxp1s6XtDxdupjfePideb3+hmc4mo3h8p3lXv4v1u61CEllVENtlSDPWrx9Y043D7p8CetOQAABLWSURBVKURv9mJuXJCws9T1ffc6PGOvXtX72P0NnYc719n+sz7vme8999Ya730qfj7FjXH1A6n8Yn2Dc4ui3N5vS2Fyc18lNu/v5bEe1jpfQ5+5rDVfgm1J9VTuEuJGIunON5TvMfE0iAFx8L28Z5a1mvxaj3XP+TcRmIo/KajlgsSfrrovG3fTKhY2+xGW8qvR/117BRNMTIRClPrXYem9lt1z5UGQvbHCdNfdWX+SuqfWBggyVbZY7zHeKqpSmJmuajBSlJx1MZTq0/V7tg4HeOJnRUz9/eS7yIWfjJiWKtI0jdz+3CvirsbbSm0x3uoWo25JoXCy+3jPS5s9JpqMhQ1T5xv0x2OnJk+2mJle/d/4sLXpt9bWHqUJl6VuggYfZcw9xPG4ipMqOcPmHC/E8viuFtvS3Onib+fuKZ4nz0NVfaMbnjZVfCe4uJGr4n32PxOwk3jvXzce6w+GG4U78t37Mtkhg+/ZSh68dxqM2bM2l/XewwNtcVGWypI31NTvIfVzkNb982UhGpY3uhL4z0ufCdx+KqV433RU6sF7Tcs4G8S70UfqFBYvU8u2j6M9+KLwXWvgZ8o3m/UMsXH3vyggxtvaXm8x3Xe5k36ZgoCuOWnWdo5E5aeZ8Km8R4XzDkTlzTfLeK97TAd7qzJLw2T/Z7ZfI9rlkiP7T5d7+FUIdxmS/G0RHm8x7VOQzfpm5kL4NjU6GtW77H0XWwX76f6eC++5ow3jvfQdpj2/3+c/o79eI+Fh1JJ08n3O8Z7qIvQcIstLUv38niv2f6ClVLX3nEzARwbG33FW6vFbbpZvIf0jp/cowsPhpovWRTvYdUdO/N1vXiPpT/YSj2x7qxmv6pSWyZPvKv1trQw3YvjvW77sfosGW4a77Gx0de7tVpxTRQ3ivcFqzXFhQdDrDgoF1XvofXTlD2hpr5hbyx86Xtd4UJdvK/ajRHbMrnt5l7Rlpame2m8x6YWu0O8v6wwgKPsUqatc6biENiqes/N6jaxP8PCg2HrzpnQfJie5hM7JOM9FH58w5qfoGeL97hJvIfmJI2rZXJcNd1L4321q4zcRuOGB0YoaK3wdZUW4+RQidVvraa+19fT6Zl3sn68Zyfcrypwwk/zxanW2zjew2nqjYWST1N+EELia/JPTuXbIrGvY0w8+at8v1n1HtqTNK6WyQ39t4vjPf9o5/CRwpodca94nx3fEeYafa3qPfGNYtENzPXiPb8WYv7nH8dZf5PZ4Wzbxns8Tb+xVMJPVe+jJP6Yo292fGPve07eRp1+pXC/VfV+mk3Sf/MBZWuu0kxesqUws6WJK8eieE8/Zx0mD+K6WUduGe8FE33EmVmmV3pqtWC208xBsFa8j6ZHKTn7zk+pko2q+Pew/vod+1uI17+Hr33JvPjzr1h61km2eCj8UF5tYvpzF8t2YOqVyvdV4v2lId7D/I4qu75fcUuxYEuhJd7nKo/k9uv23cvN4r3sgm8q916qRs7Eoq1k4ii3d1eK98nzS+6/l8TQ/9k7ux3JdRsM+uIDDL7/C2cXyWZ/xpJIirLlnqoFcnHSw3bbcommZMmG27TULynmewVmcPlnZ0a4XxAYTudC78mXVieyd/NVSxzdel2k45xoZR69X7ViC+dFu+jdmRCYOp+rKc440zVbpPdRDcr3LCfXnXmD3s3TVw7P+jCR6d6ccr/YoPGhMbh6e3HGW4VoL0N0R6TrFqms3s9cKy5JydK0gst9kPJVq9JDq+6H8cSj0V/NSlf/NHwocD0LyveIbP4LlG0q7j3ZrffJiN29+4Babioder9b7zbz4DZ4fy8byd8ildO7d4+R6DD30nmRTSG4793ePrAl2bt/m1nTjN79MwjMqfffR+R9z27u1QHPhwOVDZOvTxsG8q6I4n76Wrf/wWfofXFxJjJBpJ9y1UUKTKlSSu/u1DE49m9P6D20dXfz55ToPdBw7Ra92+HW+68zaeniW/Veq4Fuu9cVBHL3r2PMk1n+v1+P3u/Vu0317d3X99KR/PYddBTe4YZ2iw9ejEf0Hmot5rl82YcUyz7prNJ7b0inMegrf4VocfYeK1ubN+2ywFVRgaWE3rvtOPVHXr37e+GRwh+K1HvKb/0f3vjhCvETxZng0685Jg1ms/dYUVHL9W5HVO9H8pev0HtwT3b5kiUdJXoPdBoU36f1ns7eg3O7ze3S2yJZWO/OzEMuYzyevUfHrhrnqmDe+0xHs0Dv6r6ff1ZegyV6Dz7Ce/rtM/jCb0U/gN5zoxsVeg9Xgtxv79VFOoP3fVjvzsQ9WlBe2e8rbYHWq1cFS4pFX+rSUr1riWnU+4JSvYfHJOWZJRYqmSlT5fMmA+h9vd7D39W0+HORLKr38fCR653Yu/V+LYT4i7LnME6yODPV0RTrXaOlz+f1PrUq2/jD4UJfqyWEbib3s6D/4i2tWL6P7IrA/3//+frfZdD4V8k3A2cikqKRonofdB+maFL4pN7jI1c2HG5ODq1OdTSlepdjLkp/aOjnkli/ZkpKdvloOVeaG304rgDHZYmttZmqBcXGK9B7kSeuLJWYY9/4k7pI8Y5CMb33372xRFJ4T51xrHeLty+ry97jfZvW6F02d3mu183QcHfY0uw9sXyRxneBJbuImeMje+83ZFvQachdhR4cnR2PR7I6vWtK7k/oPfGN138yrff4bWwL9C7NTeLoPbvJ6rL3kN4T4ijQu9Xo3dB7t2qhBXq3XB2k+Td1kRKrzE3p3bxVGQv+pFt2a8pYQKNAueLM5HPEvN6lr9uQefznfnb7Z4uL2/SuhN5tsd79s5DI3m+ozugtek9EUkjv1wtrmZ3Tcn9gt6aMBWw20Dh7TzxHVH42mb1bbGukcDk9ou/MfBMN9X48oHey94He7Sa9Z5a30fF8pCm9exJ3pS7d3dn7bXov0MjXQM/rPTr9bGn2Pqt3ofe3VGcqRHEZ8ZyX8g6RLKT3r/+1oCoTrkgW6T01qXj0MkBu3vvb9R7eJnjOYwum6NuWeqc4M2poVuqG5rzIuo7i3i5nSu9VifvX4LpZ73pC7zbz4GIb6T385sja7D3zc43s/RWc5en7tTRfoPdjtd67hPvVhQsorc3eI4Xj6bHZDbN3oXf0/tr0Hb3H9a7ZK2f36v2Y0Xtp9p4ZBbhb79N2/3i9F10PijOjqvR0IihvGfqVxZljhd5t3iDFjXnL2vtr9W4ju/+eZmnXOwRHy+lk7+i9oSCVxtORV+mnDa1OD6feVZ3ZZ2j144oz5mgAZt8te2do9b703SrD2cZ612q9D5/DNdMItSx933xo9c0zZ5wvEpqYOUP2vl367l2c8VvOe69L3LuFokV6tyoLfOd57+ZuAbb1vPeCbhe9P5S+T5wZOfX+Pd5atZVyX5i+r32tKbvmTNnqNw/qPZBR2M56F8WZ16bv+VPTfgv2M5YUC645o4VuP6JbZFbq/ZE1Z167KEGr/fi3mr5N73VrzhQ+T5G916bvWVV0tjXdcUHgeKS5FSNr5X5ENyHKyWkqZ9bsxJfxkmKLV4yszd4jHbLumjkzu6TYMa93ijMLUZHfrTeJPv6AsH47j3Ck4Hrvx0q3f7GFlsStXxA4olqHJeNN/Dm9R8ppO6/3bnvqneKMM31P+b1b5IlPrz+dzsxHUjTSGdS7Vsr9S/xsaPMJoSpnLta7vVXvlj+KF+zWRPa+td9VEKQ34XfHrbQVDDTUu82e1Ng5z27qKddtUrXX6pErUJRt6r2L3ifKSS/Ya5XsfevyTPT8XLxtp679oym31UeKPgics3of7y88deFSjwY6u9sENvQeluq83i2ZjB/RQYp1eg+cwftea4r329pU72Tv/vQ91rTHBZ5g99F5/6MuUmy3KoX1Ht0OS9EM3CYu2Z9HKM9tMiXVI6H35khksKex81G9Zzo2u1Hv4RcoPAXYUOs40PsDfldQEt1M1ULR1fn0wkgWOkdjvcfSd4u3y8Q8osuzI0e1dkqqmUK4mldZaZO8JHv3rzlzzus9uDqdyvVOceYZv1ta7l/Pb2T4tr/S2SOR7EzoPXWolvFzqj5j15fLPJ1haLPv9ov5uZGF0Btd0UecDfQu/5ozBXqPDU2Y626iOLN9+d2ni8YuFY49asyvUq2JFFhx50zpXf4TarmmOTHnyTT2eDNnHn1Ru97tfQrovVUcOJKpsZpavXvTy2GHlO1n5WhDijQ4ofdX+30k+NarO+YRpCUS5Wci2ZnT++Ee0sjurhcrVbn02bpNIvPs5e1Tc3WnQE+jPfXee1BUpd4d0stfWNtJ7xRnEn7/cfYtlrg3Lpg5q/vj16xujzQae27fjt53xpR0dHrNz6/dwnjZAH8RW+4+Vd7jM2fhZtgGNtG73A9k55TIPDmtv/H1Pkn2/k6//7j1vyjeeluH6vA6Uq6jWBbJMyjc7MU8ej9cZ2fqxeHMH1vv55jrBu492PWXzvKk3qb+WfMuzpWYEbZu5oxr9MLOmN5HF9vifamO1IV9euYM2XvW7/91vOx//9T/qPxO+VsS3jr+BpG8erdhxcsUOIfe62bR4RKZo1or37co1Ds7n/Ss6235W9xz2fsRf4y7PorIJCZXTuuryA5e0yN7f7XfvVg0/q9+w99b1EWyfqDeKXHpvTloPfiC6evWzNRsdNE6t4lnIv94/95hEMc6GeYwks7N9D585jDXI+e/xXKblp5rBu/o4qP37+B3FcfXhpECes99gVVct4uN3qRxb9K5TYabyZlnKGDQAfgeZxQ/ksf1bpkffnUUuhwdMxtsx6RAtW54vr9cWIZWd8cW5u6NUujQybY4khbr3bTa7t2l5X8+I/xE5l1/vpcF2eU39MZj5Lp4v2O0OiDHiMjgSJ7Xe2+RudARX9hYrQeCdOal/kWxYzO9k72P/a6Vdk+Ebz151kU6Fus98QW6t19W4DZpl8UCNpUzRjcfs8CR7LuVdu6Izd9yvNJT8LrqQO/frUAzfA0qbGXbMFJU77bc7lP9skK3iSoahPcM9wvV/ktvW8ycCZw9G3RIjvH+oPRsuo0yc+bDE3jHSbWsQldG0lq9B7/A7u2XLVitrfgt5vzjfiRzN8tdsndvx6Zj1CHJe8LdOW2okeoo1DvZ+xsS+JklalLdxd2RlNV7qCtK7/hhRT1yZHfO7Fk334kYxDLvUdg2ej+cRzzqkMybxtiK+0nHhnone18peJUH116RdKT17j/Uqf2casYjYiuEJ8+6XN3cyAGejFPHVnp3HLLriN3LgQRuA01lIGTvn1uhUXlwj+jujGTRrbSTmeaNl82St4nva2xKJXY49O44EsUqvcv1Pm4IOlwdklWMpGQaaet2Qu+fmsFbcBsKqxJdXaTR77VjTu+eE1qwFWtA8DZxm9j8bzHHX88fiR0+Wd6n91FDkHfo0VyvbQWlp/ztRHHmZSm8M3FXfedhD0QarqIzqfeReqv22ZYmUjCvEAb96uQDk309sZa+bA9n77Eb69eJc3VI5mjw0ZzWlM2Vnp45Q/ZerwqlpSRVPQwURurfc5N67/ZFVXL3pPBy7xWk1Gn3/pZGBAWPpPVz7XKD3uez994hB494tMdxRnq999/KThzFmU1S+Pa6KBcLSQYtpKL+ojJSO0xw087AzTN5Ir1nZK4/dv+WydNdkyvUn9Lq26qmh//z/lTVxZ2/sPAmxf+zSuTPdlRy+/wVWDP9RWGk34H+DlOi9397TK3z0NerZvXdyPRv+SPC7PVf0YXdlDnNtoINLyy8z/PHkstsZc2zLJKNXpNUwaG++6pVfkXRId52TktPHUcH8DSq1TsAAOyod9IaAIAP4SR7BwD4QPz7NwMAwC5oPBGmauIMAADclZfLU2yhNgMA8LLE3VVtMfQOAPCyxD2zGjaldwCAV8h9ZGw7Kb0DALxE7pHVJU9qMwAAbyGwerBOajMAAK9N35tLUUV25gYAgKeRM3/XSW0GAODN6ful4O0keQcAeHv6/qVCY/U7XgMAwGq621C1dqrC7gAAu+PcLpxpMwAAn+93kncAgBegsN45ZwAAH+h3NowHAPhIv2N3AIAP9Du5OwDAizBydwCA7+x35swAALwNkboDAHxmAi9SdwCA7yd45A4A8GbBi/kyAACfafh/c3jhdgCAz3H8D/TzfzgXAAAAAAAAAAAAAAAAAAAAAAAAAAAAAAAAAAAAAAAAAAAAAAAAAAAAAAAAAAAAAAAAAAAAAAAAAAAAAAAAAAAAAAAAAAAAAAAAAAAAAAAAAAAAAAAAAAAAAAAAAAAAAAAAAAAAAAAAAAAAAAAAAAAAAAAAAAAAAAAAAAAAAAAAAAAAAAAAAAAAAAAAAAAAAAAAAADwn/bgkAAAAABA0P/X3jAAAAAAAAAAAAAAAAAAAAAAAAAAAAAAAAAAAAAAAAAAAAAAAAAAAAAAAAAAAAAAAAAAAAAAAAAAAAAAAAAAAAAAAADAXDrLiiNQDRCeAAAAAElFTkSuQmCC;" vertex="1" parent="1">
          <mxGeometry x="102.63" y="436" width="210.41" height="130" as="geometry" />
        </mxCell>
        <mxCell id="rKb5zj4-AGq2TKSWBkBP-16" value="&lt;p style=&quot;line-height: 1;&quot;&gt;&lt;font style=&quot;font-size: 21px;&quot;&gt;Batch deployment&lt;/font&gt;&lt;/p&gt;" style="rounded=1;whiteSpace=wrap;html=1;fillStyle=auto;fontSize=19;fillColor=#FFFFFF;verticalAlign=top;horizontal=1;" vertex="1" parent="1">
          <mxGeometry x="430" y="330" width="330" height="230" as="geometry" />
        </mxCell>
        <mxCell id="rKb5zj4-AGq2TKSWBkBP-17" value="" style="shape=image;verticalLabelPosition=bottom;labelBackgroundColor=default;verticalAlign=top;aspect=fixed;imageAspect=0;image=data:image/png,iVBORw0KGgoAAAANSUhEUgAAAFcAAAB6CAYAAADK+s+EAAALrklEQVR4nO2dX2wcxR3HP0ccx80lBNdK7MYqcdIESFAghZAGGxwSoFRUkKhqqj5QhaqtqqoPfauqComkEvBSNSDlyVKlVO1D1Ze8oL4UVTXQPCFFJRBRmsQEQWuihjp/7Ni5c64Pu+Obm5uZndmdvX+5r3S6u93Zub3Pffc3v5md3StUKpUKLaKpEvz+Krx4CSjFCxeBZXDiy3BgdRN3LoUKrQBXCxUisADl+LkHToy0D+SmwjVChSpYqMIVz31wfBAOrct9FzOpKXCnSvDLGfjjTLzA5lY07xfi5xVwfEPrQm4oXCtU0INVIS8o728AvXD8rtaD3BC4dVBB71aoDwGyVLCijkpcRw9MjMCPNmba3WDKFa4WKiSHgSS3ytsLsHJdvTCxsfmQc4Fb01DJCu1WuR61vjJQhInNzYMcFK7RqeAPVoUq16Fzq8n5C8AamLi78ZCDwM0EVX0N/m41ZRZlqVwZWAETDzYOcia4VqhgB+sTAsDPrfJ7tWwZ6IOJXflDTgU3E1Tda0gfW2312j47hnxsO/z0PnKRF9xEqJB/JpAUAnzLXgf6I8iHNs2yalWRUHKCmxoq5OdW+XVasOJ1Kd7uDjj21XBOtsJ1gip2DtJDletohFvVMvL+l4DVcOzh7JC1cL2hih0DtzEBXR2+mYD8OhRY+f08EeS96SFr4RYuEPXZbdK5Fdzz1rSxVX7t07iZoMr1qGMdZaL9LsKp78GOQbx0m27hu0NAr2GLEvVgy9ID6t1qi61ZwZo+19WtOrDy91kGXIa/fYi3enQLt6+AygY4vQD3TRO52DbeKu+ULF+3ynUk5a2msiHcGkha5woJyCeGgCLVX1r0eNSHUBq3ghlWGreqn21zq+67lKWy5XT9LCtcoQOrY8gjwO34p1dqJiA/RB260CJDXbSs172W0ywhGarqWFW6I9NTTnCFBOTJEaKAkqdbUcomHfq6EKC6VV5m+jENR2Yh6cfQSBtzkzTeD5X+OCZ/CFxWCqQdE0gDVX6d5FaTbClduVJNEz3l5VxV21dAZTtM3gusoT4ECCeA/jALAVZWUmwV25piq1x3uZI61gqlcq4q4eQ3/wd7zgJy5yOPEKB7b+p+lzRlZWn3r1K7LCnnNyiTc1WN90PlIZjcCawkisEq0CSwGNabMgibW1WwNreWqXWrWJbBvEHhCo33Q2UMJseAfqKupGsmYMsa1JQvya1iG/lZB1WVWCbAtoJzVS1B3gOspf7L+LpVSE2l5EyghPmHMoUA1bGQGSzkDFdoCfLjwJeIvqRI27K61ZaPmuK5ya0iDFSIoGYACw2CKyQgn3oMhgeph4rltS1vTXJrXQdE41YBFeqhzvt+00gNhSu0YxA+eQImn4bhYewxGZLz1qRMQM1b5e3kRkvn1lYPCyaN98eQvwPDG4hOubi6FfQ/iK6XBeZMwOTWdgsLJgnIpw7C+HoiJ4tD0dQZkJWYK1fqy/q49Qb0XLN9A71aAq7QjkGYfAZOfRfGNykrbSNYkJ9bU8ZbaDG4QpuLs+zdAkydNhcK6VZTCMgAFgJ1f0Pp2rVZfv1JkSPvFaNU7b9T8Kc/wOgojO6PYjLU562uUMGtwVKhphgRgxaCe/gDOPKPYgSkh+qe9d6Ed96GkycjyCOPQP9AbZ4spBtosXUGcnCrrKbCnSrB787BkQ+IYC2LVwjAsgTkd96GnY9EkFcP1MZXsS2EgZoxW2gK3CWoZ6nCWEZ993TLs3B+AObeh5l/VdcJyNvGYNuj0DtQ+wGhwc7Zvo1ZDYW7BPUjzIef2lANjQKjMD8Nl8/A7Lkq6DN/jx7bxmDHAWoGttPEVlO5lGoY3BfOwUsXqLpAPk0kEn+b+oaiB/tg+iQsnIdL70brVMjXldibFmzKhkwod7gvnIOXPqbaAAmouvFdVaZ1ws1rL8KVs1HYuPReLeR79kef6ZK36uBnBAs5wZ0qwW8/jqGaYqpOdWcaEkaqV66LHstH4aoUNk7/NXps3wcDO6FvOCrfALfKCgp3Cep/qO6kgGqaTQP10G1u1qlEbdhYPw2fvRG5eFGBLADn5FZZQeAuQf0c/WQ7Id9QcOmfwN3+O9Q3BBueq4aNT9+HM69F4WJgJzBcWz4wVKFMcJeu2rkAzGoKyKfVxaeZxmvzkAgbcrbx7z9H6+56FgqDuYGFDHB/9XkMVQBagdm1trO6tnARUnLYmJ+Gc3+Jlg8+ES8PLy+4S/N2p6mHIYMtYT5rajshKL8XezZ3MXZfQImwAVFaVzgDw/cGd7IT3Bqo4BY7wTzT3CSds2+76bBhBg2NRs9XLsLtn0FxUD+rM4WscE8vwMtX4hnmrh/mc2n/omaZqpnzMJTPYVujleuq+XeRaMLhFTJB1sJNvLpclRpr1YYsaQ8a2ci5aDZ+FIkmgYccW9j0kcOWLhBCNGSFgGOAvpolArsGyqv8N0+Oubop+kllZdkOe3Wdqe7lhrrz1BxwA556En7zXIFt6/2ryN6JyBISTFIhX53OLV2qUwCoQung+oQE3Xa2dc2KuXFcfWpPdqhCdrimq3aEdLmtzbXqMKP8bFOeGUMMdWw3vHKwwKP3hKs63yHHNCAbqTlgK7z5w7BQhZLhpmnI5PxVyJbbNjpjmAG+Aq//osA3HwxbtSwzXNscV0huyNT81UWivC4zCNENngG25g9VKHxYqLu2QLNOlqt7s3SD52iIU1Xp4Zqu6xVSG7Ik6ToRJpgh89kY6qsHCvxgV9h7Kbgo2bkuh7YaEvJowHwyhjlgLbz6ExlqY8GCT1gImdumge/SqMVd1WM/LnBoX/OgCpnhuoYEk2t1Mq1TGzLfHt4csLJ1oAqlb9CSrmLPI6dVM4YY6uHnC7x4UCxsPlQhPVxbi2+TKX91yRJcXCsyhvjwP/x8gf3j/jeZaJT8GjTXQRpbjpvV0csjqAfHCNL/z1NmuD4Qks42qPX5pmPzBQDGHr7OxM/CDKo0Qu4xV5fb2hoynXuTYKpHwY0KfFpm7NtbeOX7m3Lp/+cpO1ybe9W7Kdm2TRMKyvD1Hf0cfXlr2zhVlf6aiKTT5ibZGjJTY2e69VQZfv6tobYFC7YLTpJcmzW3vQWU7WoeW9rkek2uaX2Ae8w0W35wXU5ApskKXG6V0oZKhmvKbV2cpTaXvmeO21xuDRr4DS2myW1tn92msjtXN2vR1pXt0SxDsw7871zahvKLuWpuq+skmAZwXGCJH6ADwIINbtrc1iaH3LaT5O5cn5k0rt1e6MiGTMg/z83rwpFWnduQQXq4WUKCb26r0yJkvRtdK8jNuVkm19lgd3BIAN+wYLt9VJYTkB0YEiAJbto5CUJqauUaEjpEyc5Vu7suDZmQzuFCOd7OulVkhus7S9xURu2Z6TIKXbe5A2DbnaubXCfLpbuqm1yndhpa5mYwYeXWoKUJCabyruXaPxMzwA114YhwpK0hs42ktbnMzvUJCSbZctsOgmhScljwDQkmh7ukWEvbdkBMwATX5wRkUhmXENNBua0svx6aDMXm6CTQuuxAdW3AuyQ1S3a4Se61nZw01WMr12HSw7VB9QHjGhJk15ZZuqj5a1/U3X6kfeQ3+dklRvrE3prtKhHUOwu8vpf4wpDWmWubRm5zxeS81RQKVKiuuW0ZmK/A5gJv7qHtJtvZ5NfxlAFmuc4MqmBH4I0nCzx+p2ddbSD7zHJZLj0pU26rXjC4SAR1Lx0JVch9ZrkuJKhlhEwN2QIwAqe+0bpT7UPKfWZ5klNNISK+g/74/fDarlsDqpBfg2a7YFrVPLAchnfCW3tg4/LU+9i2Sj+SaoPaB0fvh/27b02oQnq4usM9aZCmBHwBjj7QhSrkdzWPaZ5CT/T32U9v7UKVlT4sxIf/sYfC/fF7p0kL97EBas/43oTdA9BXIHJqLzwzDA/c0aC9bFNp/2u9qzBqyb+P6RR14eaoLtwc1YWbo7pwc1QXbo7qws1RXbg5qgs3R3Xh5qgu3BzVhZujunBz1P8B/Mu0kEacGTwAAAAASUVORK5CYII=;" vertex="1" parent="1">
          <mxGeometry x="560" y="430" width="87" height="122" as="geometry" />
        </mxCell>
        <mxCell id="rKb5zj4-AGq2TKSWBkBP-18" value="" style="shape=image;verticalLabelPosition=bottom;labelBackgroundColor=default;verticalAlign=top;aspect=fixed;imageAspect=0;image=data:image/png,iVBORw0KGgoAAAANSUhEUgAAAj8AAACnCAYAAAD+Bj0wAAAgAElEQVR4nOydd3wcxdnHv8/s3p1kyQ0X3MAGGwzGdLDpYMC0GEIN4QXe0NLoJBBaCCH0NGpeWgKEkBAgEHqMAYMxpplumikuuGBhx1XS3e3uzPP+sXdywRhbupNO9n757AdLupudmZ3d+e0zzzyPqKqSkJCQkJCQkLCOYNq6AgkJCQkJCQkJrUkifhISEhISEhLWKRLxk5CQkJCQkLBOkYifhISEhISEhHWKRPwkJCQkJCQkrFMk4ichISEhISFhnSIRPwkJCQkJCQnrFIn4SUhISEhISFinSMRPQkJCQkJCwjpFIn4SEhISEhIS1ikS8ZOQkJCQkJCwTpGIn4SEhISEhIR1ikT8JCQkJCQkJKxT+G1dgYSEhISEhHUXBWS53zin8V9UUQRZ4e9FRAApfGLlH0n4BhLxk5CQkJCQ0IqoKqDk8pb6JYYliw3z/ivMnafMnRsxe4YwfYbw3/mG6dNCQpta7vtGIgA22dinczfYeOM8G/ZP0bmjped6hh7rG2o6OTp3NKRTOZA04LV+QysY0fgqJCQkJLQchShyTJ3WstfQ3r0ttbXJu1lCe0ZRja0zqoAI2azjy9kwaZLlxZcM776jTJni8cU0G3/QKWoUnAc4inafrxl+VApnEMBhREBBRHAipPyIvhsIgzZx7LC9YY/dDJsPUXr3NqRTxe86BENseYKvn2TtJhE/CQkJJUSZ9oUweBPXolL+/bBy4HcUSYzTCe2QeLkKGust078Q3ngNnhzteOEFw+LFShhKbP1Rg8jXXW+bOy3LMmtfqg4RgxIhBtJpWK8z7DvSsd8Byo7DPDbo41FV7QoKTZb7/tpO8mRJSEgoGYoSBRAGzX+nUol9HhLhk9BuUFBxCEKk8MmHjocedjzxuMdbb4JVQD2K/j2CQcShhd+gDhFB1YJ4GGOpqjZUVSueDx0yBs9fKm6i0JHPQWghl1Ma6uNKxGVJwSIkKBbUoNaRzxm+zMK99/rce6/i+8r2Owb8z/94HPIdR59+4HspEBvXVTS+GddSPdRiy8/ZZ5/NzJkzS1WfkrCsel1//fWprq6mT58+9OnTh4EDBzJ48GBqa2u/8TsJCQnNwxEy9XOfTQa1rJzHHneMGpX4KCRUPqoWJ8rCRY6/3ulx3z3K+x8a8oErzCvLjmNt+r8CKd+x8aaWrYf6bL2VY6OBHhv1d/TuA+mMR1WagtVGMWbpHBVZRxSCcxDkDbkgZNo0w5ezDB9/6vjgA8d778CUz1M4tfGym8aCaKmlKa6LI6K2xmPLoZYTToDjjhOqqh0iqYIT9do5N7ZY/AwZMoSPP/642Wa61mBlwiZW2coWW2zBz3/+c0aOHMn666+P53lf+7yqJuIoIWF1UJjyBQwa0LLnwWOPK6NGJZE4EioQdYDBSYhGysQ3fQ47RPlqrrBs9BiHjZeSUFSUtB/Rpw8cfrjjtFPTbDRw5UteJa8uER98bLniUuXFFz2+mmtR9XBGIDIIFvCXmeMsg7eMePCfGTbfNA/qI76HKLFVaC1xnC6J+Pnoo49KVZ9WY0Ux06lTJ/r378/OO+/MqFGjOPDAA/E8LxE+CQlryBsTYdiwloqfxPKTUJk4Z3EuYPTTVVx3Xcirr0Iu68WaqCB+jBEcjaRMNTvvAoceoey1p2XgQI+aGouIKTgbQ/ktKxo7UqPMWwDTpgnjn4d/PJTjzYlViLWI+CxVAhYRobo6Yo99Hef+zGfv3VNgvr4lvz2zTlh+1pR0Ok3Xrl3ZaqutuOuuu+jduzcAxiRvogkJ38b9D0Qcc3TLhEti+UmoGLS4uSpCHYx+RjnrNI8ZMxxh6Bd2ZCmow3lCynpsMlS58kplp2HQpQtkMm3tTLyscIn/3ZgNmD8vxbgX4YLzQ778MoVzAZAGii/9Qipl2XRz4b6/wZChEC+dOdq7BSh5uqyAiBAEAV999RXPPfccG220Ef379+fWW28lm80CzffET0hYF3AluT2SeyyhMlAFwTHxdcceu3t8d5THlCmWMPQBFy9r4Vivq+EXP4dPZoS89TYcerChZy+oqjIVsHogX/t3h+oU/TawfP9Yy6fTfCa9Dz8+KU1thxxqwqbPBYHhw0mGrXdQDtgr5N1JeZzz2v08mIifFVj2gqoqYRgyc+ZMTjvtNAYOHMgdd9xBGIY417KtvAkJaycOcaXYpdXWk0XCukpxDlCFIFBy+RynnRaw++4+r7wiOKs49XBiERw1HUMuvDjiixmOa6/1GNAvRcaPd0mZip5iBfDx8KnyDZtvLtzyF+H9Dz1+dpZHVVWIkQgxEr/QBB7PvZhmj13T/OH6iHwETiMcEe3xZaWSr0yboqpfU7Zz5szhRz/6ERtuuCEPPfQQ+Xy+jWqXkFCZqBreeacULwbt72GasHZQ3Axjg4Dxrzq6d4fb/y9DGEjBB9SQ8oX1ukTcdlvE3DlprvxNiuoOPmjQ1tVvMX37G37/R585dY7Lr3TU1OSRlOIEnDjqG4RfnGfZcnDIK29EOBu1y7s1ET9rQFEM1dXVcfTRR7PvvvsyceJEVBXnXLs3AyYktBQB8nlbopISEloTRbE4DZldpxx5jLDfCEe20cdCIVig0rdfyFVXKLNnpTjphz6ZagHx4iEr6bZuRIvx8BGgtjbN+eenWDA/zRk/cXTtGsR5xBREPaZMS7Pn8Cp++EOYM1uxWor7vvVIxE8zUVUmTJjAbrvtxlVXXdXkD5SQsE4jcZDDlpO8SCS0LoolDCIeecyyzRaOxx/1MXiIxAH/ams9fnB8yMQ3HOeeB5kqkHbu9LsqRGInbfGF664TJr3vc8z/hFR1cEtdp1X56z0wfLjyyksRkW0/7iCJ+GkBqkoQBPzyl79kr732YubMmStdLktIWJd4+20/kS4J7QpVR8MSww9PSXH0ET7/nV9w6FVAHDsPg5dfd/z5Lz49e1SBMcTT59pvoTSAGEOf3oZ778nwwosRmw9RMA5wGFvFzFmw154ef7w+IgjjuNVa4ZagRPyUiDfeeIMddtiBCRMmtHVVEhLalI8/jtq6CgkJq42ifPyRY999I/7+D8Xa4u4sS6rKcvtthnEvObbczEO8dXvKFDHssE2K8a/AxRcFdOikONE4ZpEYLjwvxXf2t8yYGVW8VWzdvpIl5quvvuLAAw/koYceIoqSCSBh3UMR6hf768D7cEL7x+FsxBNPBhxymGHi6z7Wxr49GMt22/qMe97jpJPB930QiTOsr+OIZ+hSm+JXv/J55BFl8KYRiEU19nt97gXDiH0tH31M7AxdoQagRPyUmPr6eo455hguvvhirK3Qq56QUCaEiEjaz7p/wrqJqhKFcMP/hRz7PZ8pn1lUHEYgkxLO/bny4gTLjsOSZ/hKEfA9j7339Hh1onDiiRbxFDEWQZj6ic8eu0fc83eAyuzDRPyUgSiKuO6667jwwgsT/5+EdYaij0QSCD2hklFV1MIll1jOPzdFQ6OgLs7p2K2H5a/3wVVXKh2qPJBUBQQoXJbYp1RR1ClOo0KIxQgX/xWHQ5f7L45Z5IpZ3+Ni0Dj7GBS+uSbE+U4FROhU63HTn+DWWyypQogvVWH+fMOZZ8Affm9wNirkRKscShGNLGElhGHIn/70JwYMGMBPf/rTCruBEhLKw1fzLVGUIdmtlVCpWAtnnxNw6y2x6EFARBm0acQD9xmGbu0wpKhEZ2bnYO6Xjll1yudTHB+9b/jsM0fdXMfCBRHZvGPhfEOchRRQ6FgjZDJCt+5Kp85K/41DBm2cYujWHhv0DunbD9Lp5kmB4rxWlUlx0snKxhvBMccHzJuTAWDJYsell0UsbnBccomQSpWkG0rCWil+ihekra0ujY2NXHjhhWy11VbsuuuuiQBKWGuJY11Znn8mgycWq4n5J6HyiELHry8Vbv1TChWLwyLi2GqI8MjjPv37g4hPWwufOKWGEmqEzQmTJgljxwb865EU06cpixZ4hKEW6hoHFwXQgpOxQCHn2PLtiAM4xt8xBmo7Grp1D9jvIBh1oMcO20K3XornPJqmq9XoCsEgAnvtHfLCuCyjRhqmfuFjxCebVa6+OqRbTzjzVAvGVITvVEUlNk2lUiVNHhoEKw840pqiSETo3bs3EyZMYMCAAa123oSE1sUBEQcelOKFp4V8CxN8JYlNE0qJqhJFERecJ1x3k2BUcAAacvhRHrfeKnRfrxjBuW13Kakq8+YpY/7juOOukPffrmJRA2jksLJUaKhzTXVd2Zz2zeKnkL4DMKKIEdQJIhY/YxmwseHAfS0//mmKQRtHeP4aLv1pxMLFIcOHhXz2aafC+RzpjHLJLx2/uEDwPb/NjQEVJX7OPvtsrrnmmhaXUyQMQ1577TWeffZZxo4dy/Tp05k3b16bRGMePnw448ePx/fb/qKXivhBId/al8u21zlXUoGbUBlYC0EY0m09IZtt+ZvdY487Ro2q7K2yJUdDIEUkYWGb8PI+Eg6Hj4+oQS1Ik3+FrjXPlLLh4Myf1fOnG2vjHyQCjdjvAI9/P5Imk6IN+zDOjeXw+Wyy42fnKU//J8LZNKrLZ4NXtYh4iDpUDJgInA9G6VRjqaqJl/Fqqh2epzQs9nBelnzOI78kTWMQIfiIFPJxqR+XA7jCOCrIQhSld0/h7n8Y9twlwvMtnu+zOtncFSWbtey3T56X3/AgzCCiiDhuuUU5+RRBTNvuCq2YZS8RIZVKkclkSlZmKpVin332YZ999mn63fz583n22We5/vrref3111ttR9Zrr73Gtddey0UXXdSuH1TFII6qirWWbDbLF198waxZs1iyZMk3CqFu3brRo0cPNthgA2pra5uihxpTCRmPE1qKmJDrrhFyWYh3d7T00bL2jwnVgiOqi/8/d4Hw1Uxl+jSfMHS4FfajCD61NY6+Gyp9NhA61xZ6yYBXiLe39vda87j1DsvNN1YhajFGsU45+EjDw/cLxrTdIoxzDud87nsgy29+5TNtikdERMpkWPFRKgLGCJ27Og79LuyxR5bBm1Wz0QbQs7eg+EvFEVLwuhOgGlXBqLKk3mfmF8KU6R7jX8rz9H9SfPhh/PJSdNNTlcI3la++Muw/0pGptpxysnDFZREdO5mCr/Mqek0d1dUeTz9XxYH7Bbz0kgIGVeXU0306dYv43mGubXdHaAvZfPPNVUTikI4tPM477zx1zrW0St+KtVattdrQ0KDnnXeedu/eXUVEjTElacfKDhFRz/N04sSJrdLGlhJFkTrnNAxDnT17tr755pt66aWX6uDBg7W6ulrT6bR6nrfSay8iKz2KfzPGqO/7mk6ntaamRocNG6ZXX321vv322zp79mwNgkCtteqcq4i+KkUdytWOYrnOuaZxHYahLl68uOlYtGjR147FixdrPp9vcb2sWg0ipw88YjXlByq4EhyRPvlkVq11qmpbfDhVjUuK1KltUXvXvIOcqrUaWdWGhkg/nWr1kSednvADp907R1pdHaifDtV4ttB2q8ZECoEK0fKHFP5vQhUCNcap72U1UxVo185ODz3E6V13B/rhR5HOXxhqaBtUnVO1lXEftQUusvqXv0SaSVv1jaoQqEig++y7pOkZ0+p1KlyTMFS9576cdu1g1Ygq5FVwakQ1hVVPVI0fau8eTr9/ZFbf/SCr+VykNrIauXw8tpp7flXVKFCNnEah0//+N9Arrszr4E3z2qEqryKBGhMqxHWLx2agvp/T7x+V1bnzc2qtqtNV18G5UJcsqdc9R+RVJKdGVI2o+n6oY8dGqpH91jLKRUUte5133nlce+21rW4JaGxs5IorruCmm26ioaGhLEtixeWh4cOH88ILL1BVVVXyc5QCay0LFizg2Wef5dFHH2XMmDHMnz+/6e8rLnMVf17V8teyf1udf9fU1LDvvvty6KGHMnLkSHr27EmqjbcJWGsZM2YMjY2Nzfp+p06dGDFiRBwsrQUU+zoMQxYvXsyHH37I+PHjmTRpElOmTGHGjBnU1dXh3DdvKxUR0uk0Tz31FHvvvfeypRc/8a11CEOlsVH55NOQ317j89ijEFlYHZP4t+O46CLD9tvztbff5tBUhCgdO8F++7bO22YQOGbOtjz67xSj/xPx4ngln2/KioQYD1RQLY59R8Gjo/DmvvLGOwBxoIKIQbCggsMVrD+CELL5Zj4j94845GCP7XcwdOxoCk6sa799SFFwyrjxjkMOdtQvMah4GLHstKvw4gsuXnZRIX4va50+UZQoVEaPCbj4Fz4ffOThiRC5+N1RCoEUe/YKOPJ7jhNO8Nh2a4/iVVUpOjPH46BFd5uG8dqpCk5cvJyqjvnzlYceNNx6a46PJqcJAsGIFHaqR6jn0SHtOPcCw1lnKF27GBBZqY+ROkAsCxcp++4d8c47hXlPLb16wtiXLZsMdBjaYD5sqXpqj5afFSlaGKZOnap77rlnydqzssP3fb3jjjsq5k2s2PZFixbpAw88oFtuuaVmMpnlLDXl7I9vOornzGQyuummm+rdd9+tCxcuVGtb+c29QC6X04022qjZfTFgwACtq6trUR3CMNSPP/5Yf/WrX2m/fv20qqpqub5ak35Np9P63HPPLTcOJ050ut9+Od1vP7fSY+RIp/vua3XQxnldv2deO3ayKsaqEatGnBophdUntn6IhColK69weKFus135rCDOOQ1tpPO+snrXX0PduL/VVNqqkajQN3aZo7RtK75RF69D02FCFbHauXNODz4w0DfeVo2sVauBqmube6k1sJHVGdMD3XCDYJnxaXXjflbzebeMVbF1cOrU2lCnTs/rvrtb9Uwutq4UrlvKhJpJWd16aKj/eTrUXC5QDVqtenEdmyzt8RGEgU6fHuiRh4Ra3cEttTziCn1qtWe3UJ8andcwn1e3CkuUc1anzWjUvn1zakzY1O7NN83qwgVRm8yHifhZgWw2q1dddZWm0+myTPoiokOGDNH58+e3aTtV4+W/jz/+WM8880zt1q3bcst+bSF6VlweW/H3vXr10lNPPVU/+eSTVh0nzjnN5/M6YMCAZretQ4cOOmXKlDU+r3NOFy5cqPfee6/utNNOy43LVV2fb/rbqsTP00+rCrGpe2VHceKGUDFR088GFx9N5vESiB8ihUjBlfCwus02ZViCdFajyOnnn+b1rDMD7dol7iMjhX6TYJm+K73wWV78LH+IUUWsUpi0UqlAtxgc6G23qS5cFOrShYvipNfeidvQUB/ozjsH6oktLOFY7b9RqDNmhRqpqnNRK9WlICTyod5yS6g9ulo1xirGqohTY6z6fqh77R7p8+OWaL6gSZ2zbXg5CvV2hSNSnTLd6k9+EmrXLnG9RZwaIjVi1ffz+v1jAv3yS6fWhStfWnZWrYv0rbdD7dFj6QuTsFiPOyHSyFpVDVu1lYn4WQlRFOlNN92kmUymbBP8I4880iZtK06on332mZ5zzjnasWPHr/nlVOpRrGOHDh307LPP1rq6ulYbLy0VP4C+/PLLq32+ou/Oww8/rDvvvLN6nldSn7SVip9nYvHzbRMtZZi8W+NAIt1m29KOC+cCnTkr0ksuzmrPnqF6YtVjqe9TJfaVkUiNn9NddrL64AN5zWYjdS5qJUFQXpyz6lxeL/1NoJ4XNFnA0umsjp8QqnW5VhQVVp2zWlcX6Q9OyGk6VZz0VUWsYnK6w/Z5/fMd9RqGTtXlWqtia4xzToMwr2+9ldVjj81qVVXRohYLIM+EuuWWTseOXbUPj7N5/etfc1pbG6mRUEVy6nl5ve76RnVR646/ihM/lYJzTv/2t7+p7/slFQXFsgYPHqxLlixp9XY1NDTo9ddf/zVLT3s6iiJo/fXX13vuuUeDICi7CCqF+Ln77rtX61zOOa2rq9Mf/OAHZbNAtkT8tNcDrG67TalGhNMgCPWJp/K68aBAjYmW9l1hgjMV0OZvFEDEb97pVKQHH9Kgk94L1Fkbv+m3YwuQdVafeybSrl1zaiRSEaspP9LLr8irc61lWbDq1Kqzob7zXqhDh4ZqJCgIhVDFWO2+ntPzzg910aJInXXx5yu9351T51TzQaCPPhbpVkMb1fNUjVgVseqL0w61of75Dqv5oLjh4GuFaBSFes7ZeTUmWxDjVqvTef3w02yrDr2KEz+VYPkp4pzTG2+8UT3PK/nEbYzRxx9/vNXaoar67LPP6rBhw0ranrYWQMYYPeKII/Tzzz8v69gphfg5//zzv/U81lp95plndMCAAWUVp+um+HElW/b66iunJ/1voNXV8fLWcsJi2WWnCmj3NwogUfXEqZFAu/fI6e9/G2ou11gQQO2TOXU53XjAUosPXl5PP91pPp9tvZ1+TtVZq3fdFWlNdRhboCguc0V62GF5/eCDSJ0LK2q+W13i1QOrC+aHeuU1ee3aKV/ob9V4t2JeDzssp/WLV94+55zms3k95OBQPVNYRienGw/MaS7Ka2v5YlWc+Kk0oijS73//+yUTDMv6a4waNUqDoPxebc45vfbaa7W2trbNRUu5ji222ELffPPNsj1MSiF+jj766FWeIwxDfeqpp7R79+5l7691Wfw0F1eY1GbODnWnXRvU88KKtu6svgiKLUEp3+lPT2/UbLaw/NCO5mWrVoMgrz/9SRg7eRNPrJtunNe5dVltncbEy1xR4PSSixq1KlMfO/cWwhTUVFu94kqrSxry7VpgqmqTn1hk8zruhVA33jhYYcNDTkeNcjqnLlS3Es9t56xO/iir6/doLDh+O/U81Ssuqy90Tfn7p+LETyUq4Vwup4MHDy7Jm/iyvjXpdFqnTZtWtnoX4/QcdNBB3xiTZ205RES7deumzz//fFn6shTiZ6+99lrltXrhhReadtqV2wdrXRY/zX3GOBfpJ5826kb9QxXJx8sqFdCukgohE+jIEY3akMupajvyAYqsvvpqXo2XVWMiNUSa9iN96eXWs64459RGef3NpTkVk2vaYYaf1861oY4ZG6izUWFXVOXNc83BuUjVRrpovtOdds2r52XVM7EFSPxIBw+t13lzV3bPxctid/zZadrYJktpbZd6nTYlKPifldcCVHF5Biox2m86neavf/1rScrSQnRkiNNv3Hzzzcv9rpQ0Njay//77M3r0aKy1bZ7otZyoKv/973857LDDeP/998vWpy2hrq7uG/82Y8YMDj74YPL5/HJRtBNKT3OeMYpl4XzHPvukmf6FAU1RgY/PlqM+z42r5nuHp8llBaetEwG/uWhBzi9qVE46QcFlQD3UOM4/z7DzcKXcMXxUHaoWa4Uzzkjx6ysUXBrVEDGWTTeFDz6K2HcvDzEecTaJypvnmoOIB8ajY1dl3Fifn57q4yQHCFjh0w8z7LxLwIyZjuXjVhnAcNKJyncOtKg60Ijs4mqOOwGcFtJvlJGKu3sr8YEvIuy4444ccsghJS1XVfnnP/9Zltw8YRgycuRIxo0bt8qAd2sbCxcu5Oijj2bmzJkVJ6TnzJmz0muRzWbZe++9mx1AMWHNaM4zJp8XDjjAMWuGaQr/vzZSFBP/GS0c/X0FAqxW8vPD4jTgr3/L8/GncZBIgA17h1x4iRbS55S3BoJBCTnz1HpuuyMHLh0HbcVju60jXptg6dM3g4hp+sZahwrptHD9H4Tf/k5RAlQt6gxTpwj7jnAsXBJ97d4zRrnpNo+qdJzrCwyvvuLxyMM+zpVXnlSc+Km0CWtZbrzxRnr06FGy8jzPY/bs2Xz55ZclKxMgn8+z66678uqrr65TwqfIRx99xPHHH9+Ut61SBHUQBMyaNWu536kqJ598Mp9//jnOuaacZwnlY836N0K1kYt/FTLxXYC1+/o0tU3hicc9Lvu1w4gp90t4sxE1LJrnc8G5KUQzGBxgueF2j+oqoTQRx1dNpHku/43j9jvT4KpxahGFkXtaJrzq6Ny5qqLGTPxUdPGhukwUdVdYFF/zix23TzAp5Wdnezz7YgrfS2EAZw2fT4URe0JDNlhhLHn07Wt45BEwJo9zFmeFU0935MNiAvLyDL6KEz+VMlGtiIjQr18/jj322JKVWcwuP2bMmJKVGYYhJ598MhMnTixZme2RcePGcc8991RUxuswDJk2bdpyv3v99dd58MEHm35OlrvKz5r0r1PHo084rv89EKbW+PvtjRXb9ptr8kydmsURtFGNVo0TyxV/zBPkU4DBmpDDDoMD9gHbChYW5xz/+pfj8st91KViK5P4fO+4kEdG5/D9DhXz/CniObBWCYKIIA+5fJ5cLiCXgyDIk9Mc6po3xgUfI2n2Hm6476EASWXBgKph0tseRx0O+fDrL+T7HCj0HwAiijqYN9dx/fUO1bBsurvixE+lDZQixTfyk08+ucX5mYoUHzRXXnllScpzzvHnP/+Z+++/v6n8cj2oV3advs1qsbK/mzJk9S22+ZxzzmHevHklL7+5RFHEjBkzlvv5lFNOIYoiYO2eVCuJNXrGRGlO/6FBXRr45vx1LcEYaapXXDdbWBlZ3k9d46xeZbcOLudzFnRizxFpFjd4zbIIlA0Xx+yuq7PceoMUsqM7OlQ5rrxSyWQyeGWeShSYPDnitNMMauO8Yap5dt4uz513+FRnOrbRfKYFi47FaUg+b5k8OeLB+5WzzoDthimDBip9+3n02cDSo3uK7t19+vazbNA/zRabpNh5D8c550Q8+VTE558HBAE4DbFETeNwVUjacfjBPjf9KYPnOQQPxPDssx5/+G1AEORxGi79vOZ5bowF8WLfIE3zp5uEmTO8pvz0paY0s3gJqaQ39ZWx2WabcfDBB/Pvf/+7ZGV+/vnnJWn3lClTOP/885uWe8pJcRLwPI+amhpqamqoqqqiW7duAFRXV5PJZJg/fz4iQmNjI42NjeRyOerr62lsbCy7lWPJkiXceOON/PrXv8bzym/+/jZUlc8++6zp57Fjx/Lpp5+2YY3WTVb3XlO1XHGVMGteVFYbgnPF+hQmFSNUpxRZYfxmsAcAACAASURBVPbO5ylsXJCmZYZy4xmfWV9Y/nxLjnPOrcZohbygmghwXPO7gHzQAVBEHIcdJmyyaeuItPkLA444SlkwL75+VmGzwR4PjG6gKpMCaZtnjlplST28/7FlzNOWv/wpzeyvDBhH7AVh4uehSkHPxi9fDQ0+AszDY/pUeG1CyA03OtR5bLZZIz/6SYY99lA22TSgY00aWaXtxGCM48cnGz79ULn+xhDUx1rhsitg6x2Fg0bSNISFFP0GGPbbJ88zz1bhVJk923H334VLLjJlGekVJ34q4sZaBb7vc8wxx/DII4+UdOJetGgRXbp0adZ3VZVcLseZZ55JfX192bLSQyx2unXrxvDhw9l9990ZNmwYffr0oVu3bnTp0mWV1y8MQxYuXEhdXR3Tp0/npZde4qWXXuLdd98tS72dc9x888389Kc/pU+fPiUtu7lMmjQJiOt2ySWXEATBchnt25K2r0GZkTgP9mo9YxTq65U/Xm8QV1vaaogiKM4oNRkYMtSx1VCPQZuHbLxRip7dLbWdUvhm+SuyeLFj0QLHZ1Mtn35imDzZMHmyx1d1QhRFKCbOzF3CujqngOHq36b4/tHQb4MSFt4CnCozpvn85XYT77qTiG5dPa68prADqYyoKvms4+dnC5M/NE2OzL365HnyiRR9u3Wi7F7WX6tT7EJRV2e452/CvfeEfPSRh2o8xauAFAaG4HBOUHWFLOxFEVMYQxhU4yUsNG7K5Mke557j8HzYakiGk3+sHHWUY71ucTZ4MSsT4waVkMuvtMxbYLjnbw6DRxR4nHJCxEsTPAZuFAFxHwqGa68Xxm4b4gIf1HD7TcJpP3J07Qam1Ne1pXvl14U4PysydepU7dWrV0naXOy7e+65p9n1cc7p/fffv1oJL5t71NbW6j777KP33Xef5nJfz0HT/NgpTpcsWaIXXnihbrHFFmWp+/3339/svi1Sijg/IqJbb721Ouf03XffLUvuuNU9VhbnZ/TaHudHotUPcuis3n13vhC9ubTJSGtqnO65V6TX/T7SxfWBRs6p0zBOH6BR01FMEFA84jzkLo4grE6tVc3ZQJ99zurxx0U6oL9VMWWKPSR5PfHEQJ3La0XEqIkiPeFYXSZXVqSnnBCqjaxqmXOUWRvq3XdlVUxjHEWaSDNVOR0/Ib6WrUkx2vL0L/J69ZU57dSxUTFhIZWGa8ojJoUI07VVVvv1i3ToFjndcw+n3znY6UGjikeku+8e6RZD8tqnb6CZjFWzTFJewRbyeFkVyWvf3pH+6U9ZnTMn0m8cEy5SZ60uXBjq9ttGSyOfS6MeemhelzQ2xElcC4RhqId8N9tUf88EevufA7UalnzUVZz4aQ+EYaiHHHJISdpdLOP4449vdn0WLFigm222WcmFQzHQ3q677qrjx4/XqMyJ5xYtWqSXXnqp+r6/XN+05DDG6JAhQzQMW5bXpxTiB9BevXppY2OjDhs2rE1zq61M/IwZoyqSb8ravEYHVo0pBMorSVqHKC6vOXVZ4aBYN8/pdtus+hFa7I8osrrzNqUSPbaQ3iDUbbbJ6RNPhhraVUwYzcFZnfWl1fN/EWnXzvk4cWZJBVCkvXsHOnuObWPpE0+UDQ1Wq7ylwfHWWy/QadNtmV+e4+CEU6dH2rP70uS1RkL9zeVZjSK73EReTlwhB1sQRvroI5FusGG2kKqkmGvLNSUe7dG9QfcfGejNN+b05ZdzOmd2fpX1zOdDnf1FpONezOkVV+R1l10Cre2YV+OFTWlDim33TKibbRbomP9YtVH0zZGrndVXX4+0ujpfEFKResbpY4+Haq1tapNzgX7wXqTGi9NeiFjdapu8LlwYlfzaVtyyl1a4z4+q4vs+3/nOd3jsscdKUqaI8MknnzT7+3//+9+ZPHlySepSRETwPI/LL7+cc889F89bzeWCFtCpUyd+9atfsf/++7PffvvR0NDQ4jKdc3z44Ydks1k6duxYglq2jGw2S319PW+//XbFhSHI1EQMHAixPlpTDELEzFmQz7X0saL06hdRm0mj0py6rLxMFWWDDSIg862fbswZ3v0st1qf/XYExHL8MZabb/PpWOMRO42W8H4SoVfPiKuv9jjuB3DkoZZPP/XQkp1DqJvj8ei/I37yYx+krfbKGFQtN98SEFDV9NsR+yob9jM0b+yuPtY6fnmRY+78pf263faO887LYIxrvblLLIsWOI460jJ2XAo0jVNHcQkrnYrYaSePc37uGDEiQ8eOHoiNl0WXWQJbGemUoVc/Q6++ht13h4suEhYvdvzzn5Y7bg959z3B2RSqinXCJ5/AqEMsxx4fceMNPrW1qZWWO2x7+P0fPc463eJcClU4/pg8kz+vokd3V9j8Yhi0mbLlFhHvTUqDWj6c5DP2eceh3y1xH7ZUPa2Llh9V1XfffbfJQlGKo1+/fgXlu/rq1jmn+Xxe+/fvX/LM89XV1fr000+3yTKkc06ffvppTaVSJWvTk08+2aI6lcryk8lk9OGHHy6LNWd1U2KISJPlZ1mstRrknYaBbd6RDXX77a3S4rQPVv/9SKRh0IK6rOTIBZHmglVbL4tv1E88HjRZslq+ZBTpASMDXbykGLK/vNYJ55zOnh3qzrvkC0sepbMAbTk017ZpqVykzqr26lXIJSWRVnfI6viXQnVlskwXn4HORTpufE6rqpeeu6o61DfeKX828mXr4FxWRz9ttWd3jXOHSWx9MibSqnSo3zsq1HffDTT4lrG+plhrNZuN9OVXAj1wv1C9VKjStLzm1JhQN98s0A8/KC7jfr2MbC6ve+wRqmdCNVj1vEhPPS2rNrTLjCuno58J1G9aInN63LGhBmFpl1wTy08z2WSTTUin003blFvKvHnzyOfzZDKr/6apqkyYMIFZs2Y19Zu20HFWRPB9n4ceeoiRI0c2nae1r8k+++zD6aefzvXXX9+iNhXrffvtt3PQQQeVqnrNJgiCZqVKKbaj2BfFn7t27cqGG27I+uuvT79+/fA8D2MMvXv3pqqqaqVlqSqpVIqBsZmnCWMMJq00OwKGZwpOxS1F8D3wU6Xd0bR6DzsBlDvvFIwWA8I1HxGlUye4+lpDx9ryWybiIIywfm+P++6L2GcvmDqNEu1SV6ZOM8ypc/Rav42CPQq8+WrE/PnxdVJV+vb02XkXC1peR+d8Hn59sU+Qi53KRZSfnwPbDF25paMcqIOb/8/jogsd2UYLeAUzjmOnnSKuuDLNbrt7+MaV3OnaGKjKCDsPNzz4b+H5sZaLLjJ88L4CguDz8eSAffYNueoq4YT/1a/VIZPx+ON1Efvv77Pgv4pzwl13pzj+pDzDt/FA4pASuw5XevdTZs2Mr/Ojj8LUKYZNNi1smy8FLVVP66LDs2qsxLfbbruSva1nMhmdOnXqGtdh6NChJbceXH/99WX371kdFixYULIM5/37929aW24OpbL8AGts0RIRramp0c0331yvuOIKff3113Xq1Kk6b948bWxs1Fwup/l8XqMoajra5D6yqtvvUArLj9PHH2+j8VfIOTlki6DFbYiPUM84PdTI5lrdV8a6QJ96ympVdanaYtXznF57bdBqvi1Fmiwfqnrc8fUqxG3C5PTWO4KyjveoYMW49+9Rwdk39lcZNCh2WG8NrLXqrNULL4w0k3FNjt54kXboEOpf7gi0vqH1krjGFsZIFy0J9Mqr8prJOEXCgg+UalXa6j/+1RA7yC9TJ+ecWmv1nLOKyV9j687WW9SrjfLLfCbSX14cqfFySqHPr7gijC1KJbqTEvHTAn7wgx+URGwA6vu+vvXWW2vU/iVLlmg6nS6p+DnssMM0m82WsddWH+ecHnHEESVpVyaTaZHTcynFz+reL8YYHTFihP7rX//SWbNmLVf/irxPrOoOJRM/rTu5Fon7NdJ+/WIn35a2w/Py+tzYSFWjVt4kFau4MHB6+NGNJVv2Mlg9/HCrobbOpN/UmsJ4r2/Ia98+2XiZR1Q7VAc6f3G+rPeD01Dr83nddFCgqYITfcq3+vf7Qm0t9+98Lq+XXOQ0lYrUsFT8bLZ5VidODDSKAi0uebbOs6F4fzp1VvXFl/PaveAEHm94sNq5Nq+/+2NW1S59kSnWbe7CSAcMCJrED+T0rbdjYeSc1dCpfvRxTruuFygmUmOsbrVNo4Zh6dpWcRGe2wuq+rVlg+aWA3HwssWLF6/REs+ECRNKtuwmImQyGX72s5+t0dJbudl7771LYl4PgoCFCxeWoEYt59uusTGGzTffnKeeeorRo0dzxBFH0KdPn+Uii1fq0vDqj97WK2lNEHFY65FtXOo82vyyBM/A0K0hXp4oRQ1X++yA4KciLvi54PkR2sI+FRHEGD77PCLK+616iYrj/f3303xVlwJ8VJXtdlA615Z3Cc45y0tjlc+mgBNBjGXH4RGHf1eQMid9dRribMDdf/O56nc5otCACE4CttlmCeNe8thhuxSel6KYd651ng1Lk7SKgV12tox7KU+vPo04jRAxLGlIc+lFwkOPgdogjh1UXK7v7HHKD0EkToAKKU44LsKIRcTgCwwcmGKH7QzGKeqEzz/1mTKtdAF8E/HTAvr27VuywaaqNDQ0rFG6hwceeKCkO4a22mordt1114qaWLfffvuS9e+yqSUqjeI4SqfTXHbZZXzwwQfsv//+pNPptq7aGlG6kdM2Y1AxfDnbEUWlOX+HaqhOt+FjVlPssKOhWzdTCGjXMpxT5nyZYubs1s71pSh57rgVXDFhMTlOPjmFKbPrqpEMZ5zlo85HFTzj+NFP0mSqPKTM9gMBnvqP4ZwzI2y41Ndlyy0yTHy9I+t1cWDafteop9UM2bSGDydV06PHUoGSD9L8+ET4dJq33A4zcXDGGT49ejk8D3zP8NEnKZbUW4oRp1Oe4cCDHcUdiw0NHg88ZEsmuhPx0wJ69+5d0hQNy6Y++DZUlccff7wk5y1yySWXVJTwERE6depUEgFgjKGurq4EtSoPqkrXrl0ZPXo0F154YUVdhzWh3Vt+ANVvt86tDqoKoq0d7Hf5OohFMeywPfgtFD/FPpk3T5k+xW+xJWnNzi2ghrHPR6j4OI3IpKs56kgo3Xb+Fc8ZT8QffwiffRY15V3bfIjl2GNz8XU15b2406YKp/3UkMt5GEkjfp5ttqvn1ddyOFF8k6EipnEBROi8nuP9j3NsvGmECDgHCxcbDhzpWLDENY0hY6BTR+HgUR7qBOfARnDSidC0NUHgwP2FqqrY6dmI8uA9HmFUmnFXAb3WfunWrVtJzYxRFK3WQ1dVyefzLFq0qCTnhThtxTbbbFOy8kpFKpUilWr5bgrnHPPnzy9BjcpDdXU1zzzzDCNGjKiIPGTNpb1bfkpNkPcI2zAhuqiH4DFyf0dVJ0ttR23hAbW1jknvAmVe8lmuHaLM+sJQ91Vh8vRgr/3rqaoWxITf8u3mnlRBLddcHWDUAxyI8pMfe3haZtcAVXL5iLPOsMyYrVDY4dSvV4pnnqkhk6nCL3fm1mYg6tO9c2deHe9RW2sxJn6ZmDpNOOdMW0iXspQbbkjRoSZqSs/x/EsejQ2O4svP4EGG/hsXdzILn09VFi1yJXk5ScRPC6iqqippXqZinqdvQ0TIZrOEYVgy4TVs2LCmpKSVQLFP586dS319fUnKjJNCto1FYVUYY7j66qvZdttt27oqLaa9W35iSnNPiQj5AN6YmEd16QO9NVEUdY7TTxUWLnQsXCwtPGD+QsMZZ7vW1acqPPSwJZ/zUBXUKf97dDVGFCjPVnPBx9oUf7svAvFxKD17KwcfnCokVi0fTkPuvEt4crTBYFAsHWojHvtPRNeuildmi1OzkViYrtcjyz1/t/h+HMxTgAfv93juuWA50eylAnbdwyLiMEZYPFd4Zkw8pyoRGMcuOwkU8txlcx6vvu5wJWh+In5aQIcOHaitLV3Sw6lTp672Z8eMGVPSJbctt9ySDh06lKSsUlAUdePGjWvjmpSfww47jLPOOqvdLnUty9pg+TFeqSwa8Rv7rbem4ge5tn6bipZp4/sYMRhciw9PwCP1LVm9S4sCzz9vClnJFUE49MjSOb+uDKd5Xn0tj2iG4uLa8B08+vZxSJkEFwAKM2bAVZfHsYtUwU8pv/+dZeiQb8umXhkoKUYdJFxyeYh6AYiQC4Sf/ERZ1KBNn0p7HuedmwJRrAuJHFx3nRb2u3qAcOgRbqleUsczYzxwieWnzWg9r/qvo6o8++yzJS1zq622Kml5pSCKIh5++OGKtNaUguIYuuqqq9q6KiWj/Vt+lF69PFLplt/fqrGD8BNPOm67VXG2bRxT44zZEC+dlOIw8czRSs8/VSUIHW++KYUM6kptjZLxbXmfwZriZ2engNja5PvKccdGZU3toUSELuBXvzbMnuNT6Gj2H6mceKJfuRafFTCkEPE569Q0QzaR+GZAmDbd4x9/E6wLQAVVw87DDN17hIj4iBjefc8SRFHBX85j2y19eveOv4/4PPWEJSrBWnLFiZ+14e233IgIzz//fEnLHDhwYEWJDGstd955J2+99VZbV6VsqConnngigwYNauuqlIz2bvlRNXjGUtOh6PDacqLA4/xzU/zlrogocgX/BoDSWW7XXuL+mTUrYsFiRTXOAbXLroJnq8t6Zusckz9bKljX76N89whT1jlK1TDzi4j7/+EVNnFZOnZUfv8HS7q1AkkXhqRzihL71yxZbPn0E8snH8Onk2HOHIcrjuOmHcfLi3sRobZGufMexfMUsOAMV18Bs2YpSuzLU9XBcdo58TKXqlJfb3j+eYXCTrpevWDQpooUtot9PsWQy7a8M5L0Fu2UY489lsWLF5esvCFDhlRMvzvnGDt2LOeeey7Wlte03dacdtppFdPvpaD9W37i7e6duwbMmFEKx3NBgfpswBlnePz7X45zfxGy6+4pMikved59K/EOq88/E3KN8WSoCsf9QMFreSymVTHpXZ9sduk4HL6j4pV7ynSG3/3RIwwFRFCJOO1UZeBA02rvAxaHWsuXc+C2m2Dcy44vpvs0NLiCBceQrrL07OGx5ZYRxx6n7LmXUuUbMMuPZyeGrYfCId+N+PdDHiKGWV86nnkeTjreAj4iPkeM8vj1hYpIvLT517uVA/aPy/BTyqaDhJdeoNAHSi40dG5hOytO/CQPgtXjsssuK2l5lfAGqqo0NjZyww03cO2115bM0XlZKmV8iQh9+/Zlk002qZg6lYL2bvkRYtecrbc2fPy+h9X4ty27PxQ0TRA4Rj+rPPOcz/BhlkMPh733VrbdxhRWUrTgzRJP6qrxT2vJxrdmEk+4E183uIIriDHKbrv4ZYxv41A1/OfpHFGQLghUw1FHeZgy36uNWcdtty194VtvPeF//1fw/TTlfiHQgiXy/UkhN96Y4h9/CwjCNODFo1KXtXoJc2Yr770H9/0Dhg+HX5yvfOc74PsRRSd0cZDJGC640OOpJyLyQbyMeO1vlGMOF6prYrG06WZKh9qIbH38vdffsGjhvCAM2jQAiXfYqTrefkc5YGTLhG/FLXtVwiS8LtKWE3BR9Dz44IPstddeXHLJJSxZsqQsY6FSxpeqMmLECGpqatq6KiWl3Vt+xCEIP/qRKSx7leK+KJShBpzBWo9XXvW44HyPvfcxbL9jyG8uzzL6PyHzFgUEgUGtjV1qlokMV9zgUMqNDpVPPPlNfFMLEYItitCxVsvre6OOF15IYzT2/fJTIcN3siDl3eX14gQLWlW4vpbddrFsMrh4rcv7jHZWGTPaccCBhrvvzBGEVRR9jpQ43MCyuxZjXzIf1RSvvKL8z/9EXHxBniAfC5g4zhUgwtZbwRZDXVMbpk03vPnu0usnBjYeIIg4FGXOjBR1dYWXDoWhQ3zSKVP4rOGRh1p+7RPLT0LZWda0X/x3FEVMmTKF119/nYceeojx48ezYMGCsj/YK2l8HXnkkWsU0bs90N4tP8XzDtvBo3MXx4KSZ0SJA7ahHk6VxQuFd972eeftFCKWlC/06p2j/wDD0KHKjjsqmwzy6N/X0LOPJZX2UI0wpJr0oQqIKiqCUBRsxaP909joMX26Lax4+NR0UKo7QLnapyhRKLz1hqCFUCZdapVePQVKlVH86ydFFa6+0oGm4q3fHpx6agopt5OzQhiFXPtby+WXe4R5A6RBQowY0mnYdlsYsoWwQV9HfRY+eN/x3nses2eDQzAYclmPP/wxzYRXQx6+X+nZJ910iVIpn5+fpxx7TAQYrDr+9S/YdSeDeA4fx3HHOc6/OEJsmsBFfPSBR6/146XhbbcV0hlHPojH9djCdviWPM8rTvwka+DtnxXFi4gQhiFTp05l8uTJjBs3jscff5zZs2fT0NDQqm+xlTK+jDEVGVSypbR7y0/haZ1OKwfsq9z3r3JYC6X47hz/2OT8bAgCmDEzzfQvYPw4+D8EPxXQodqnQ62wxVDH8B0NW22Ro08/YeAgn17rE68voKjzy2kQaRMWL4avCsHZFWWzoRbfK9/UJXg0Bko2C04VCNl5V5+qqjJ2rATYwOfNiSaOrajC4IGwx16xX0w5cRpx++3C5Zd7REExPxj4JsdJPzZccLHQp3sGLyXxDi0Mznk0LFaefMJxyUUh02b7qIuFycuvpdh/1CLeesuAek2x8HbfXcmkIR+As8K452BJg6NTR4NIiv85toHzz8+gxhCFKd5+S9hjRIhHmt59DF3XU+obBKfKwvqiv1zz211x4qcSJqaElbOicPgmIfHll18yYcIEnn32Wd544w3mzp3L3LlzCYKgzU32bT2+iufv2LEjXbp0adO6lIP2b/kpYCxnXRhw30NpjPhfi0xbTtQuzcIlgA3TLAlhyWKlbrYwdgxABpHY/6W6g6V7T48+6zv23tvx3e/6bLd9HJdGncZiSCyqhQQXYimbBaPkCPWNjrlfFX8KGbpJGlPG6ivKokURuZxfOKdw0KgAqCrbOSN83n7PkcvFW/lFInbbHTJpv7joVIazKqrCu+8KF5yvRIEhHhcRfXpFvPRKDRtuwPIhDcRDiAMZdu4qHHOscsTRPr84L+Sm/0uDdYiFSe/Vcu01HuedH+AJID49ugl7jYh4eozB4PH+BzB3bpZOnWJfnvV71iAmQp1ixPHGOxbjDGriXXAbbhjyxRcGwZBtVJyL02Q0l4oTP5XyZr6uUxQoK7sWDQ0NzJo1i9mzZzNmzBieeeYZ3n77bZxzTSpfVTHGNP27lJGwW0Jbj69iH9TU1JQ0QGal0P4tP8Wze2y/jc/QwT6TJi/1VWhblq+DKlgrNNQLDfUw9XPDhFeFq66KcGoxGDbaIMX3jo0YdbDHkE0jOnWLkDJO4qVH+aouIAyLMYZ8Bm3myrpcLAjjX1iqrhyGHYaV7XQAeFhefikFxM7OToX9DizWoVzLe0I2n+fIo1LU5ywGH4gYsQ88+kiK6mrBEWBYRW5FA2nf54brhL69Ay7+ZSrO0+WE31ym7LGPx847moLfFIw8AMaMtriCL9EXX1QxaGDcvjgVRjFTm8/770U4MYWQUkq/DUzh+Slk87FwawkVZyBtL8Jn2Ym8VHVua3FQPH9RsARBwKJFi3jsscc45ZRT2GWXXejVqxedO3dms802Y++99+aaa67hjTfeaEod4dzSvCvL/rut21akrcdXMbDhbrvt1qb1KBdri+XHIBhJ8/wEpcpIIYlnZYzhrxMHwxMEcRQsPBmUFJ9/oVx9tceuu0Z06R4xcKDhhycFfPgR5IMQdcWdRY7ixFtZCPMXehjjA4IRpXvPMp9S4eVXYodzEcEXoVu3cgfZEf7xgMMUTFqdOytbDClvEEdBeeIpw7QpBrEpVEP69PG55x6o6WAwBoysOqm04CEGVJRzLxAO/m68zCUo+UC54OfF7fHxUv93DhRUlu4ae/u9ohN1LH7W61S401RpaKxi8UITG54U+vQEHwNEOCvMXyQrhhZaIypO/FTKJLk6WGuXm+BbSls4vxYFSz6fZ8aMGYwZM4bTTjuNjh07Ul1dTZcuXTj00EO58847efXVV6mrq2sSOm29hNUc2rq+xT7bfffd21yIlYO1xfJTZL0uETfeDCJ5xEiTeK0kVrwPV3pvqgFSfDFd+PNdPkOHODpVGY76nuXlV0Ma83naKAD1KlEc2XrTNEFahe7rlbf/VeCjSUut1g6lW+fyjkdRn7feEJyLLdPduin9+pS3ndmscusNSxd/RJRrf2vp3csv+JCtCR6GNHfelaNz5yyxtDC89rowe+7SvltvPaFrZ6+pb59+DNQtnfe22n7pkm99vWP+f+PdXiJCt/UNItqU3mPRfFr0jlRx4qfSHiyrIpvN0tDQULLyBgwYULKyVmTFbbLWWr788kvuvfdejjnmGDbYYAMGDBjA/vvvzy233EI2m/3ad9cGKmV8DRkypK2rUOFUxnVSTXHiKXDhJR6YoPC79ngvxL4SzvpNsVNCNTz0kM9uO/sMHuhz9RWOujkRtni/V4DVVjAsWhL/i/9n77zD4yjOP/55Z/fuVGwZueOCMQHTjTEONXRCwKGX0DElgQAJBAgm1ARChzhAgISQhPojhFBNKMam2TGE0Jsb4GCDjXGRm6S7292Z9/fH3klyA1u6k87mPs+zjyyfbndmdnbnO++8876AGKFL5yJlcc9hraVukckJ3ViMdKrJFvWaiMXZZkvPwI08qjsX95Jz5yrjJ2ZwOWG5zRDhoAO9nIvPmjlVxeU2dKqp5LgT42VVVSUMlTv+2Gzdqa6GmtpmC+PEV0NcC4Pj5ptqzicNGuthSX2A5iySnSrjAIxgMCrM+qJtYQdKTvysLS8WEWHRosLug62oqCh6/RcsWMBDDz3EkUceyeDBgznxxBN5+OGHmTdv3kpnj+sapVAnEWHYsGElI8RKk46/TwBiFM+Dy3+V4OijA6C4cV46ilmzhd/8xmfHXSJG3RRRY24MdQAAIABJREFUV5fB5dYUOrafOqKg+V2k6qjuXFxXVXVCGETkBVeXLg40VdRrWvWWyXs7cGAcSbmYzPxccLZ5WesHw5XqTm0z/3nA+WcLnhdnaVcsL41tFquVFUJNC1GXyfo0ZvP9DHr2cU2PfiarNDQkyLdDt16FbZOSEz9r04CQFz9tKXPL73qeV5T6Z7NZXnvtNc4991z69+/PcccdxxNPPMGCBQuWKUeptH3LchS6XKVSx1IQYWVWh9hKkqpw3PXXBCecHJFIupxFYO2/h/lFBsFHEWb+L8WvLhS2/67HE6MtURSgbXGsaCOqhsWL4yUUyAXWE4rc9kIQQC6eNMlKs0ywyWJhnN/0XujX36FFelepWlRhxkyba0/FiGW7bfw2vx8F6L9hSJ9+Jt5pKEkW1yXJC0kF+vQV8s46Rh1R1Ny2fXvHEaABbCREUYvxMRd+XVCcRCxYVI7w3GHMmjWrIBaS/AA/cODAApWsuR1feeUVDj/8cPbcc09uvfVWMpnMSn0CSsnS03Kn2YABA+jcuXD231Koo6rieV5JlKXM6uJRlUhy5x997vyTY/3eFqQ0fYBaQ/M7IRYc//ufx1FH+Pz4tCQNDR1Yv5yza3viHGQDv33fidL8zlNVkl/vZ1wQ5sz2cGpBhVSFoXdvbXtTKxjx6dc7FlQ4JR20kBnLPS9ODI2Npqmda7uv3sYCEUP94raVt+TEz9r0Ipk5c2abz9FyK3hlZWGyFKsq8+bN45xzzuGAAw7g2WefJYinMiVN/t6LCD179uTss89m9OjRdOvWrYNLVlhkHRo0vzUIIIZU0mfEST7jX4XDDs1Q2SlCc0th64IlCPLWFQ9nDffdF7HvXpbPZipoR1mAlp2kFf1qThDN7/DLUeSqC2CXcbMpYhDH/HuWlpY/wZhmi0zrTw44wfoRUS4vnmizoFnhjafx501lanl7W4wHzSePt7qrCkjbgj2VnPhZW2bDzjk++eSTgg1iIkJNTQ3Ota3zWWsZP348O++8M7fddhv19fVtPmd70rt3b8477zxef/11fv/739OjR4+OLlKZMssgIgwc4PPQwxU8P8ax8y6KnwwoFT+lQtBk9XDxjp39980ye/ba8x5pC+JZjNfs89NuqGuaCLfHO7uiKpcfTSCTdSxY2CyGWo2CNY6FcxMY8QElkVg+PlULMYuSTDV/HjYtN37dJeLPvYRtU4TnkhM/awvGGN5+++2CmUZFhO7du7dKSOWvn81mGTlyJPvttx+ffvrpCg9QRwjLr6tP/jPP8zjmmGN4/PHHmTJlCjfeeCMbbrjhOmsdyS97lVl7ERE8I+y0o8dLLxhef8PnjDOyVFWkwbOoF4uhfKyYtcnat+wW+TidwdRpPgccZFmyNN20O6g9ECXnhBtb1wwexXqN5ettxFBZlb9PDo00FyqgeDgNoYUFZNbMYroZxX5Tm26e88PReKnvgw9oc+BAFViadvzvsyj3e0hNF4fmhJ06Zc6cFo7LIiRbhFCa8mnYwuJmm76XRyTOXSfq6Le+tmm+URY/raSuro45c+YU7Hye59GlS5dWvRxFhMWLF3PQQQc1+fWUEsu//Gtqathiiy245ppreO+995g7dy733nsvBx54IDU1NR1d3DIlQemLBIiXiPyEMGRrYdStKWZ8keD5sYbdd4moqXWILDs7XQu0z0pRNbz3rs/ppxpMO9+bVCU09wdHGBZ7DUoRY8mPrPMXgJribq/3RDAtRvL/zdRWxNpZMwb0A0zzWPHC85BOt+2aonDHTR5h6CHiEPH57nfjiNwiQhApS5Y0XyPlQVV1ficfLFmQQHIOz9VVHuut17xktmBeiNMC+CXlKLn0FmsLkyZNIpstXOyHTp06tTrXU11dHYcffjjjx48vqrl0VSkqWmZsX57KykqGDh3K9ttvz7Bhw9h+++3p2bMnVVVVTUEd14bZcJn2Zm1ZQmq25iQ96NbNY6/dHXu/nGJJo2X6pAT/etbxzPMh//2v4sJkbkuzw2DaPNNuLwRBnfDk6ARPPBlw0EEGY4od9RhUHNWVsXcKgGrEggUp2prUcmU0WaJ9oWuNaYqH5Jxl6WKoKWIqPnUJnGbjiMkifPKxJUz7JArjBrpS1l8/ZLttk7z1ZlzP8RMiJrys/GA4kEs/sbqoxlaZbJjhzjuS8e5BFbyEct4FXtO5Ghosixc221yGbe9yy2MxU6d4GASHUlkVR5rO35eGxgSeKFFOAPVev222m7L4aSUTJkwoqNBYf/31WxXhOYoi9txzTz744IOClWVNERFSqRQ1NTUcc8wxnHDCCfTq1YuqqioqKyvxfb9pG3/LPF+rI3qstYRhcWdd7c26LPbWlfQWbcEYg2LoUu0zZBhss53yq4s9shlH3WLlg/eFu+4UXhlvSTd6BNmV13VV/WT5vHvtuZwdhRHXXuuz//4BqVSccqKYCEJVJwvEQksRFswv6iUxKmy6hcdr/9VcCYTFjX5RxQ8CW26RZPLkuD0X1vl88aVl4EbFG6Irq5Ocfrpy2pvx79YpZ//C8PZuSlW1rJG4jFNQGH59eZLPF0TkpcXgTR0DBzQv8S9e4lG30DX13T2/L8skqX3/nQxKEhGPzp2Ubt1zlh5V5n7lcBonflVxVHdum/guL3u1gnQ6zejRows6iPXv33+Nv6OqHHjggbz//vvtsi0zf/5EIsF2223H2Wefzcsvv8zixYtZunQpc+bMYdSoUQwdOpS+fftSW1tLRUUFvt8cP2L5n9/E0qVLCx5MsqNZW5z6W8O6lt6itTTtTxEwRvA9j+rqBBv09fjh/sITTwh185XFSxxf1acZ/UzEry6CHx4gDBqUwfMbUUKcgJMAD4dqtEJ4ivbGapJ33nE8/5y/TGTe4iH06CZNO+kEj/nziz8Z2n6n2P9FVXEiLFpY3AjPgnLI4c33s67OMnWqX9R7LCg/OtLQu7dDjcNIkk8+gXPOtQTpkNV6BjUOPIlTHh0d8PvfO4gqUCKMF3LZlfndXnF/femFCJHmMAI77xQ1PSuq8MWXCVzOJ6miKqSmJt55BzBnXpSzmipGfHr1sG3S3mXLTyuYPn06H374YUE75s4777zG33nqqad47rnnClaGlZEXKTU1Neyyyy6ccMIJ7LPPPnTr1q3pM+dcUZawVJVZs2bR2NhYsHOWAmXLzzeja7HlZ2W0vOd5q6fgk0wYuid9Dtgf9tsPPHGIqyCyyuQpEe9/4Jg6FSZNcrz3nqNurkdjRgmCvHNq+wugKPK48y8RPzyoPa7m6N4rTmhqFRDL5/+LM4cXa8+AE9hxx1gcKIK6DJ98nGDrLYtzPQBE+P5ewrVX5X+Hl160/GC/4tknDEKnzo4bfqecOiLCOgE8/vYXRcMEt95uqap2CKu2sKhY1DmefsZjxPFCFOYTkWY59HDDwQenEHGAh7WOceMMTnKWIYH+/V3Ot8ngHPFNtQ6njk03F3wT93AVmDUzbgtjDJUVgueVl73aFVXllVdeob6+viDnyy8BHX300av9Hecc6XSaY489FmNMUfx8RIREIsEuu+zCZZddxg477EBVVRXOuRV2rRQrIauI8Nprr61zlpJ1rT4tKVTNVF28w2bd0kBA7CQNgFl2Y7EvAAYVxfOFrbby2GorxWluWUGETAYaGy1zZxvefDfk5ecNH37kMfUTR7rR4KxDxeRC8hS+8fJ9d+J4YdFCS9euzf4cxcFQU6107Q7z5iqoz/uTQpxLFE38GGCD/pBIkov0nOCxRwyHHlKc6wEIju2GCsYPsWECxOOFcUIYhST8ZHEc5UUwIhxzbMT7b6cYdavNBRvyuPvegKdGh9z4hyoOPihD58pUrFc056vmIJMN+ODDJJdfFDDuZXAugaJ44ujdP8F99yTIRxMCR11dxDP/8hD1UCwbDVT69EmhCKJQtzgDLhlvvwe+O9SAiUAMBuXzWfHzohqRSvmIieBrhNk3URY/a0g2m+Wee+4p+Hr7xhtvvNp/KyKccsopNDY2FnwgzQubbbfdlquvvpp99913mbq2Z+Z55xwTJ05st+u1F2XLzzfhmDWDphnht43m/hGP7l6sfFCFqgqoSiXoVuvYYosUJx4XC866pSHPPWkY91LEG28In36SJJvJ+9VpwRyrYw8MZWm9x8svWw47VHJ7sovXp6urHT17CfPmCgpM/sjH2hXjxxQKxVKZMlRWClEITmHMmIAwSpLw18wRePWv6aiuMmy9jeH9txTrDB9MUt55F7YfVtznwNMEV/zWsXip5Z6/GkIFIcH8RYaTjg9Yr4ty/IlZttwyRbdujmzWMH0aPPU0vP2uw2kFRhXB4WMYsInj6ceSpCryYkVRgTffMCxtkNiMI4bd93DxshYOFcfoR5JgQnA+xovYdps42KYqLFximTfXi3ufetRWkwvK2HrK4mcNUFVeffVV3njjjYKet7KycrUdgAHmzp3LY489VhQLQm1tLZdeeik/+9nPVsg11t6DdhRFvPvuu+ucpWRdq08TbQu70QJDow0ov57y5JeUc78KCM1WMQG61aQ47oSI445Pkc1a3n034vbblGefcyxamMJqYQbQvK1KnfDCC46DDwnxpLi7vjrXGPr0CZn0QQpw1C3yyGaVioriiC7BkKpQvrNxwHtvpQBDujHF/PkR6/d2tMXasOpr+uDDqSMifv6Oh3EQho4//8lj+78UeRIgQmWlx823eKy/fsT1N0I2o+B8BI8lS4Q7blMcFpFE7JyDQ0gBikGbYpdtO6yeJ59I0KuX1yR84qCNyh13ONCcuU4iDj0cPOMDHqoef7m7HuOqUBUSns9mW+b/VvnoPSEbaNzvUYbtqHGbtYGSm1aV6qxYVXHOcdtttxX83Keccsoa1fuqq64iiqKCB03r06cPL730Er/4xS/wfb9drTwr46233mL+/Pkl2yday7pWnzwqDtECRIlFmfVFHB22zJoQJydNVRh22NHnvvuTfDAlyS/OcyQrHFKwHA2C4vjv60pk48GoeCiiyrZDk4g4FIc6pX7p6uWAah1xW+2zj8GaOCBfJmP44P14F1+xUFWOPS6B0diTXPB5foxj1uz2CYiaqnD8+tfCE49ZBm9JzlcnttooLn6qnY0nb2JQcTlLoKVrreOqq0MmjK+gV++WCVLjnzNnWl5+OS8ald5dhe99r4UfHPDJJ6kmP7auXR0DBuSyvSu8854lm43bXsVy4GFt97YvOfFTqrNiVWXixIk8++yzBR+8zjjjjNWqt6oSBAH3339/k69QodqrT58+jBs3jq222qokItGqKrfeeithGJZsn2gt61p9mhF8rzCRab+YSS7J5rraVsVBcn5DOfMQvborN94gPPOM0KW7LeBzbfj042TspFrEJS8FxBh22SnOci7EQRbfereY6Sc8EJ/99zd4fuzj6BQe/Ht8zWLtrBURajorBx4Ukq/bF186Hv67w9qIYk8GDPEy0777+vz37QQvvAQ/Ohr69w3xvVwgRgO+B75x1NZYdt4l4pZbPD6YLFw4Ukgm/aYghXGlLGGk3HgDNGai2GgkjvMvUrp0bpYfM/6nLFiQ658iDBvmmiJ5q8DUyX5z9dVnzz3abhUuObtyRw+6K0NVCcOQM888k2w2W9COX1FRwcYbb7xa9RYRpkyZwpIlSwpahmQyyQMPPMBmm21WEu2vqnzxxRc89dRTBT93KdSvFMpQaOLe6Oja3WCAts7LZszUeItrkadniiIaz2BFCue8q2rjQaCDb7XgoeLYcw/h6X8p39vZIQLOtd0+l84qixZDZc/i+fwIsZ/PZps7KiuFxgYBE3L/vcpB+0fgFW/JbcedhMoKpT6Il24mTIi3aJsiPr/GN1x9jWH0aEVdvAR3/Q3CUcdC3/WlXfqTiEfSg913g912c4SBYd585bPp8SKXKHTtLgwc6JNMgOcpsWBcSeEUPvnY8re/Crh4ZtSlBg451GteQlXLv54LEeOBKp5Rjj/O5Ja4wFlh2icgojlBFFFVZYC2WcRKTvysie9Le/LQQw8xefLkgooOEWH//fcnmUyu1t+rKjfeeGPBy3DYYYex6667FuycheCee+4pyhb3Uuhf66o1Q8VhcrPzts1ShYULYkfTYpumBWF+nXLyCFhQpxQqcVQiZRnzHFRUdHwON8ntINtxmGOP3RwvvVKYJUVrhcalQM8iBzoUoW8/j+oqR2ODj6rPuOfjXW3FvHIiIfTrDVOWxL9/8XnEK6+k2GP3fJC+Ylw9ZJNNfH7wfcvzzwtOfebNc1x2qePPfxX89lqskVg4C5BKQd8+Sr++K/mjZX4ui6oSRoazzgwJQz/e5SiWs88WBgyItzCqKs7CzaM8jMbLtpUVygEHKyIhqj5z58LHn+SFj9C7p5BKRqxz4qejB6aVsWDBAi688MKCiw6AM888c7XrHEURL774YsHKAHEHPeOMM/D90ugKqkpdXR0333xzUc5fCv2rFMpQcFQRPGpqNM4B2Ub3koV1HkEIxdcOSjKhzPlKePsthxYogaWfSPDGf4VdvucQMR2e00sQ8Co574IsL75SmEYVUVw7peeoqvDYemvLiy/GPjhL6iHjIiqLmGJDNOLyKwOOPboCEZ8o8rj77pDdd/UQUxwrjJAg4cFV12Z543WfusXxLr+HH4YjDxf2H54bg9q5Q63pOyvvC/SPh0Im/DvesWXE0bU24PQzE3jkrKyivPU2zPgsQNRHRdloY6hIenGQSWDqtIBZX8T+VkaE4Qd7JP229+Gyz883kE6n2WOPPZg7d27BzpnvSFtttRW77LLLan+vsbGR+fMLG9t9vfXWY9ttty3oOduCqnLllVdSV1dXtPN3NKVQhkKTnwlXVpiCeCYsXBgyc1ZQgDN9E0JVtWGDAZoTPlKQw0YZnnveIhIVxgmqQOy5d9uXu/LEgSiL6Xi8LHvu5udDwACWF8cWObeYJDnskE5AhHOKqs/ECT51S5Siaj6BbbfxOe2sCIg3tmQyhh//NGDW7BBH6ftBinO884Hj3PNSWBdbgj3P8ZurfNbvaRCTyxOpcPsdIWorURE8A2ef42JxJ7HAHP2Eh4sScaIR49h7nyymAGEOSk78lMKsON+xVJVzzz2Xjz76qKBObvl4OSeccAKpVGq1vzd9+vSC5rkSEQYNGrTay27FRlWZOnUqt99+e9PvhaYU+lcplKEYiAibDIK2D4aKkSRjnvWwLiz62OoZYcjgfAqFwuyIUk3xyCOKqN/Rbj/LkPCS+TGlzcQyr9hBDnMo/GA4JJMWcCjCw49lsS5O+1EUBBKpNDt8twI1sdSbMcPy739TsOXRVaEijDzfY+ONYn8qdR5zZqX48akJMpkE1tnS3AypcbmyGcOhwxMsXCC5Z0DYaUfH6T/xyStYESG0ytix0rSBp7KTMHx/YmspAi5k4sScJUkUQdh1ZwrS/iUnfjpa0eZ9Qqy1HHnkkdx11114RQglmkqlOPHEE9doIJw2bVrB26d3795rJMCKyZIlSxg+fHhR+0BH969SKUMxUFU27F+InYLxS/GFcYIxftEtJyKwz76CYpucLNuKAv/71PDZFwYo0uDcChRXsHFbETw/olCC8WuvJbDdMKVb19zE1AmjH0sRRbLs7qICIjiESq66LsRoPtCkzx9ujoPyFRMjQs16cO+DEVVVzdsHxowN+PkZimNJca1PrUUgnXEccqRj5ixt6mu1XUPuecBj+egpN14fMOerWECLCDtvH9K7d84qhDJvgfDRJJMzPsCGAzP06F4Yi1/JiZ+OnhXHAZkcJ598Mo8//nhTfJ9CX+OKK66gZ8+ea/S9efPmFbQcEIuwUhiMrbVceOGFzJw5syjpOvJ0dP8qlTIUHoeIMmirAJW2x+AQlLfetMz50lJ8y4Jhg/6OzjWFG0QFIYqEc87VeDt4Bz9iSmwxnjHFxEtxbT6f4iUcNZ2K5fi7PBbnLJtunEA0wohhUZ1j7IsBSKZI14yHx712TdC9VhGJDQ7jJygTJiiqNk7DUhQEEZ8dvmv41YWCEQdkEU1wz33w64tqiYIO71YtCEFDXGTYb7+I559zxAGYHVUJ+MMfPAa0mBg5dUQh3HtvErEeoqCectW1ccBDEQEVnh9jyDRC3Mcihv+gMo4cXYB3aMmJn44ciPOJNIcMGcKDDz7YtNRV6DLV1tZy1FFHrfEN/PzzzwtaDogFlbXtkp55lTjnuPTSS7nzzjuLKnygNKwupVCGYqCqbLJRAmcL81qZNRsuutjibPHbq3dvn369XYEHE2XcsyEfTqLD/X7yySkfeEgLY6gRoboiost6xU1t0YyHMR7n/4p4SzSCZ4R7/5YErSj2pfnlBbHjcbwqYLjldxSsn38t4nHxJY6fnGZbxHAyXHdrwC/PcYTRUrQdLG/fhGLIZIU991YmTAQ0ARh8I/z8PDjmGLfMeCdEPPxPZeaMMPYaMyHdOzm2GTq/yZdbiRj9GNhc0Mdk0uOkkwpnnS058dNRs+J0Os0tt9zCoEGD+PDDD7HWFiVvljGGkSNH0q9fvzX+fqEjLqsqs2fPJoo6zixvreXhhx/mhhtuaJfgiqVgdSmFMhSeOEBadSeHFmDjYLzmn+DBBz3uvCvARhFxNB4HOFQLK9g9Ixx0kICJCraRRsSQzsCpp0K6QXEdMEg1vcMcWBty70NZnBTiPWIZso3Q1u3Gq4sQx5/ZdWdHbXdHvAQlPPtMSDpd5AmFgbN+7ujZOwRxiPo8/azHi+MULfb7Ch8xCX7/e8sRRzqUWCyYIMVtdxr22SfB/K8UdSFONfdctJ/QVrWoC5kzy7D11sq/Jwjikog6/ITj9NOzXHVVFiTZtENNVckGwvXXWMIwFb/3gX8+4uHTI3cvQ2bMECa8HqexEHEM2MCy1daFiyhecuKnPWfFqkpDQwOPPvoo22yzDeedd15RkoW2ZPPNN+eMM84omQFw+vTpLFiwoEOu7Zzjuuuu48QTT8Q5V7TIqS0pBatLKZShWIgIyQIM8vm+YEM46wxhxAkwbVqAc0FxYjUJ/GC4gJMC3x/DO2/6nPnzeqKg/cVPU1JiyTJ2rOOL6RWFWTJQYegwQbz22+0FUF0j7LJLc5TldKNhzNhiX9VSVeXxqwsNqlnAEYXCRZdnCDLtYzVPpiq4/94ExxwlmBbLlhPGK4O3crz4kkFdcVYqVoVzjjCChx+3bLm55dNPm53fTTLi8suVW/6QwpgVfUpvviXkw0nNz0O//padd8/VSwRVx2OPOuZ9mY9sLRx6sMFPQcEsjdpGNt98c5V4m0SbjwsuuKCtxVkG59wyP/NYa/Xzzz/Xm2++Wfv06aMi0nQUoh4rO0REk8mkjh8/vtX1ueSSS4pSrr/+9a/qnFuhnYqFc04bGxv12GOPVd/3V6uMhajrfffd1+oyZ7NZ3XDDDQvW7ul0uoAtWjpYp9q7R6hgFawKrk2HEW06UpWR7rR9qPfeF+oH71udvyBQ65yGNlJnrTrrcv1Y1TnVpn/kDudUrbOquY9a4lR1yRKrAwem1Zi2l7tl+T2j6plQL7kko5lMqNa5+ILtcj+c2ijSz2Y4Xa9LVo1oAepl1fcCfe7ZQNutIk04fXZ0qIlEpEacesbpFps51ShUl7u3xWLJkkAHbRKoYNWIVWMC/dOfI3U2UtXiXjtPkLV6ztkZ9f1ARYK4HKKaTAZ63LENOntOVp0L1WpYpBI4tc5qZLM67dNAhx+YVd9EuX7uVAg06Tu9+KKMOrti33A20plfZLVv37jsnlj1TFaffrZBrcs2/V1jNq1bbB7XTcRpyg/17bdCdQWsV2lEtmuBFnhWl06naWxsZPHixUybNo0xY8YwYcIEpkyZUnQrT0tEhAsuuICddtqp1efo23eFEJttRlW55ZZbOPLII+ncuXPBz78ypk+fznHHHcdbb721WktuhbxHhe5fZZZFcPzkLI+rflOY87W890FaeP0tx39OUlK+wU94VFWGdO1m6NZd8HDUdo/zMcGKceBELBtu6LjxhuRKl7aqqx0nneLxm19HCImC2DPy5ReU62/w+Hia46YbHf02AKF4ISZaXnfGbNh33yxLlhTuep06wY47xlfIz8zbix/s79OlS0Tdgjhb+IxZlskfK5tvWtwyVHQSbhwFhx/qUOejmuWSCxPsvU/Ixhum2qUJEknH736X4DubRIwcCUHO19uGhr//I8nYscqZZ8FPfwI9148DbBYSp/D5ZxG/v9njnrsjliw1cQISiS333XvB/fcH7LOnv9L3bGSV886Br+bEViIrGQ4/FL6/TwKVZjny7lseUyZDnHYG9t5X2HIrQAsXXLJkxI+I8Pzzz7NkyZKm31uL5hKALl68mIULFzJ79mxmzJhBNptt+rw9aFmH7bbbjpEjR7YpkvLAgQOb4iEUkg8//JA77riDX/7yl0XZ1q/5JQxrufvuu7nqqqv44osvVrsePXr0YOHChQXxwyoLn+IiAkcd6bj6CgUMWtD9uILa+PnJBvHR0JBg3nxgavx5/u9WhuIxZMjKnz8BEI9TT7H87iZl6eLCDehxLDcfieCfjwjvvOu4cKTHMceFVFbE5Sl4v1RH4OAf/wi59soEn0xL0ixUWkdzGR1DhkCnpt1x7fhMqYCnHHlEljv/HOd/aqx33DJK+OOfdLlyFpYEHrvvlWGPPT1eeDFCNMXCRXDZxT733Q++1x4TKx/Ph5/9FDYcEHHBhQEfT61A1aBWmD/fcOWVlgf/TzjscOXwIyxDtgHPz+3KUyXemfkN8ZnUEbv/O4QEVuGVF0L+9S/hySe8OISDSwIudvtylt12hz+MMmyxjcGYZccRp7Gj8pgxytNPC9bG/p2+b7nmqhS+F8cCiscJuPEmyflTKYjlR0cIiWRzPrCC0FbTUSGXvQp5tCxTR5Uvf90+ffro5MmT29rU+vHHHxetLslkUu+55x4NgqDN5VyedDqtL7/8su6zzz7qed4alSsbC4A2AAAf+klEQVSVSumVV16p1dXVba77fffd1+qlvfKy1+oS6dJFTo2ETSb5wiy1tP0Ap0OGrLgM3hLrnB52sFORwi19tVwCEyIVIk14oW47tFH/fFeks2anNZMtzLKJs6rzFmT1kccadK89M5pIhGq8qGDlN6JqjNO//CVecmxvnHNqrdWv5llN+laNxOXq1y+r8xdki7x0b1Wd1f+8ltWKStX80q7v1es/Hw/U2vZZ+lJVdRqqc07nLkjruedbremUVZGw+XkTqyKhdqoKdZedM3rjdaH+579ZnTsvq40NVp2LVl1L67R+aaBffhnpiy9k9bLLMzpkS6cVqUBFckt+uefDiNPaLoFeelmoS5cG6pxd6fKjdaqfTs9q374ZFRM29afrrktryz93zunMmRlNePH7QyTUDQYGOmNG4celdVb8lMIhIlpbW6tjx44tyENZX1+vtbW1RStrIpHQk046SSdNmrTMg7w6ZV+ZX1VdXZ3+5S9/0d13332NRU++TMcee6wuXLhQ11tvvbL4WQtwzqpTp1tuGapHusWgv3aIH+ecfvSB1dquGfWkMKLh6wWF1U41TvfcO6tnnxPp3X+1+ur4SL/6MtIoilSti9s0yvkJOVXnQlUXqbOhNjRmdPJHkf7ryaz+9gqnhxwUaf/+TsVEOaFVSBEXi41NNol03vywXf0EVySjB+9vVYgHSSSrvxqZ1chmtdh+SGGU1ZtuChU/yA3QTmuqMzppSrrd2yMvBl9/s1FPOiXUyqpAjaRzk49lnz0jTtfrEuiQIaEOH57VESc5Pf8Cp788Pz5+cZ7VESc63ff7WR28tdVOlVaFYAXxK5JRMZF2rQ30Zz9L67SPM6ts8lgIRdrQGOm+e6dbCOhAd9090sVL69VpsxALMqqnntKonskJWy/QG24MY5+9At/Xsvgp4pFKpfRPf/pTwR6IKIp0iy22KEpZ8/fQGKNdu3bVc845R9955x1taGhoesktX4+W/xdFkWazWV2wYIE++uijeuKJJ2q/fv3U87xW948uXbrotGnT1Dmnm222WVn8rA04p6pWr7gi0+Q4vDaJH6uRqlM95Ih69UxxxU++XSBSkfzM3Wmn6lB79gy1X79Ih33X6m67ZfXQQ6wefEikBx8S6QEHBrrDsEA33SLUPn1U11vPaTIZKQSx4BGbEz6FL7MngZ59dkatjQo+GK0JkYv03Xci9T2ba79QN1g/0iVLMqpfY9UoBE6t1tUFusfuGfU8pwargtUttop00fxmp/v2xDqrQTbU//4n0iOPCrWmU6jG2OWePZsT9FEsYCRUg1MkUiQvlMPYukOgxlj1aLnpwKpnrNZ2yehpp2f0gw+zGkU2194rr7BzTsPQ6m+vSavnZZvOVdU5rf/5TxAL+Rb8b0a9VlTH/dhIoJ2qI53xRVaL4VBeFj9FOowxOnLkyILOBKy1etttt7VL+UVEjTHao0cPHTx4sI4YMUJHjRqlTz/9tI4bN07HjRunTzzxhF577bV6wgkn6Lbbbqt9+/bVRCLR1B9au4POGKMionfddVdTvffee++y+FmLmDPPqpHGtU785Jm3KKNd10u3c/msstxgY5qETEsx0/x7y91wxS6fEdXa2qW6eElHWnxinFpVTeuhh2XVEAtHz1i9+JJ6tUUWP3k+/axBa7tk1IhTyYmHQw6t13Q2Hqzbv42cOhdqZAOd81Wgt94R6YA+VhPJQCW3M84QW4CE8BvvNYQqklHIaKqiXjf5TlrvvT/UeQvCWPx+bf2sqlq1LtKnnw3U9wP1jMb3yc/q7X/KrnCfnFM99/xQPclbmyI9/aeuaMurZfFTJNFw8cUXNy0dFfIhmDdvniaTyXatkzHma+vb8u8K0ReMMXrYYYct034//vGP1xnxIyLrvPgJI6eDN8+sdeKn+TOnd9+dVc+0n89SXvy0HIDiQWjVYQPaU/x4RvXaaxvbTVx8Hc45tS6rU6Za9U1WJWd96VKb1TmzirXNe1msszpm3GKtqEyrEau+Z1VMoEcdHmgYZTpQIFqN1KnaQMPI6sI6q48/EenpPwl0xx2cVnf6hqVQcVrbLdKddgj1vPMyOnZcoIsXWbVhVq0L1EahfrMlJvYrmjg+0qqKUI0JY/FlQj3phFDr6xtXsI41NATqe2mNrT6qtesF+t57UdGCCJTFT4FFgu/7OnbsWA3Dwj+A+Ydp11137fC6FusQER04cKBmMpll6n3FFVd8rQhbnaNUxA+s+5Yf1UDfnZSJ43+0g+9MocRPHutUo2ip7rhjRjFLlxEZpSLm2uswoipeWrfdrl6zQZALm9Sxlp88mcjpMUdmcj4usTP2GadFatsh7o86q06tXn9dWskt6YBVz8/qb65aqpFbWtC4NG3FWtUgDDXINOjSpZF++VWks7+0Ov2zSKfPiHT2bKdzv8pq/RKnYSbQKO9ntmZXUeciDSPVd99zWl0RqHj1CpEayergwVld2rCib5SLVHf5ro2XxkzsC3fBeVady6hqccR2WfwUYLDO179Lly46ZcqUQtyXr+W9995breCAa8uRb8O8v1FDQ4OqLhuk8oEHHihbftYinKpam9G9v59VKWDQwPYSP/k6RJHTwVtlvvXip7ar1RkzGlU1ijc9lYj4cRrql3OdJhKReib2E0klrY7/d6adLFROI+v0xBFZ9UyY6xuB4gX64xGBRu23AewbcTYWYi6/JGVX4quTd6qPbUdq17AJnYvU2lCnTs2qEae+serndp9tMiijCxcFaleiqP7zZqB4ocYiyWq32kZdsMiu9G8LRcmlt1jb0FzcmS233JIpU6YwaNCgoscRGjx4MJtssklRr9GeaC7wYOfOnXn11VdJpeJw6PmYGSLCBhtssM7E6Cl2/ygFBDAmxe23e3StUQqTTbN9EcDzlJdejeg3II1qAHw77l+TUvczeEnlqadD+m1QCXgllRRJ1KNH90YuuKQRdQIkCEPDL84w2Kg9CioYgXvuMeyzj8FJBsXD0wR/+7+Ak46PCMI00LHJowHE5GJK5ZKjGrOSWD+5cECCFz/DaxT2zaIIz/wrZJshBie5vYaEdOse8tw4R5caH9PymqosXqAc/sMQcQYjHsbA5VcIXTtJUfMBl1A3XjtJpVKcc845vPHGG/Tq1asoQQhXxiuvvELnzp3XCUEgIvTs2ZMnn3ySQYMGrTSBa//+/deJusK3K9DioI0M19yUoQ2xPTsYQ23nCia+UsF3Ns5XYt0XPzGKb5L8332WHbYH06LapdKHVQXRSs76cYq+6zvy9+bdSZb774lwrviiQ3CIgyeetHx/X8HPRfVQm+LBf3ocdZiwaImibt3tN4rFWcN991iOOtaSzUYYdYhAj56GRx72GNhvxajP6uA3v7HMq0viqQOBTQZZzjwtgSty0Miy+GkF+ezs2267Lf/4xz8YNWoUlZWVTTeq0NnXV0b37t25/vrri36d9qBPnz6MGTOG3XbbDVj5i7WqqoouXbq0d9GKwrfBcpDHGscpIyo47AiHMdmOLk6rEDz69He88FLI1oNDtIUKKBURUEhEBJGIyoo4cvLhRwieJNs1kPPqIiZ+3/ZeP8GV1zmQkNjKUsGFl1qmfuwo+uMmHhifipTlqScT7H8AOBfG1hMHo581DP++MvnTxuas6+vMK8Chakmnld9eE3L6T4VsuhNCCiWiV+8M993r2HU3w8oSSrz+pnDnX4UoMjjxSSVCbrstwkuyrIWoGLR13ezb5POT903ZcMMNddSoUbp48eJ2jeq5PFEU6WmnndZmR+CObM/hw4frZ599pqpf70dQX1+vAwcObNP1yj4/HYBTVQ10aX2gp58Wqu87/aZttqXi87NCVWygs2Zn9NhjQ/U9q0Yi9URzcV463jenkD4+vXpl9OmnQ81G2ZyPSGljndN0OtLhB2SbHOx9iXTvPQOtX7LqODSFJB+GL52p1+OOyjZFOfdN7PPSt4/Vfz4SahhGcSjuDoyT1HbieF7WqX7ySajDfxCq8SONg05GKibUwVs6ffutbC7x6/Jfj/TL2Vn9zkZZ9XMOzkasjjg2iBOitoNPWVn8rOZgJSK66aab6siRI3X+/PmFaPs245zTIAj05JNPLtg28/Zqzy5duuhFF1202iLAWqvbbbddm65bKuIHvg27vZbFqdUgG+nV16S1S5cgF9CvfXeBtVX8qOaCtgWh/u7GQHv2yqgxUS7GS8eLltYKndhJ1+aypAe6y85ZnTR1FYNWiZIPuDr9f1bX79UcTA8T6m9+G2hk63MuvMXHRqrZbKS//W2DJpPpXKymWPB7XkbPP8fqF7MjdXYtFkBOtaEh0n88nNHePRubJgBGIjWe0x22U523cNWiOQwCHXFyLBAhVGjU3j1DXdqYibeltQNl8bMaomezzTbT66+/vmREz/I0NjbqpZde2u7xf1rTnsYY3XzzzXXChAlrbDXbb7/92ix+WkvZ8tNW4jQNNop04sRQhw5Nq/FCFWme9RV7F1Ve/LS5HurUWavvvh3pvvtmNOHHQeSkKaVAx4ua1T7EquSCz1VXhvrLXwa6eEmQE4hr38DsnNM7/pjRilSkXq5fde6k+vTToToX5ba/F7teVtU6DbKR/t+DjdqlJlBjoly0ZKcigW6xZVZHPxVoaFu081rQ3C73HE+fEeqxR2c0kco9vzg1XqTGD3TEiEgXLrSrqE/8/Pz1b4FWJMNYdOMUyeqY57NNu8zag7L4WW5QgjheT3V1tR5//PH6+uuvazab7eA8Nl+PtVattTp69OiC5MAqluipqqrSUaNG6dKlS1V1zWfgp556apvFT9ny07G4XPqLTCbSR55s0G22tuonQhUJipJMdGXipzDPsVXnQg1Cq08+HurmWzaomCiXUqD4Qq4QhxFVMVn1vVD3+0GkH01Oqw3Dkghi2Fqci9RGkR5/dGxZzFuAOlVlddYXcT6y9hpd80k+P56S1o0HxRGoTS6An4hVLxHqEYdndfpnWXVa7KSsbSdyGW3MWL3xplC7rRfFltsmwW81mbT6tzuzGrlwlXVxzup/3wi0e49Mi0SsoZ48okFVG9q1Pt8a8dMy5cLKflZVVemQIUP0/PPP14kTJ+rChQs71J+nNTjndMaMGTpixIhl0kzk67l8nQvZritr0/zRs2dPvfLKK3XOnDltesAvu+yyNpW9rZafgQMHFqTtvp2Wnzwul6TQqnOq2WyoH31k9cYbAx082GqX6khFAvUknhUKubxDEmqTP0Fu4DbkD7dah0ioQ4YUeGDPBfxrbIh07LMZ3WP3SBNJmyuvy5V3RVFXTHGUP3dz7jDbogxRbKUyGa2uCPWIw5y+/lpGM9lorbX2LI9Tq1/NC3STjQP1jYutC16ow4aF2pgO1Wo+91Zx65q/hnVOFy2O9LzzsppKhmo8p55EuaSoVjtVBXrqSaHO/DytceTkwifxbA3OujjpaKRanw71ttvS+p0NI/W8fP4vmxNAgQ7bLtKPPorUukBX1a7WRvr5F4F+Z2ALC6kEutfeVjMZp7adfcvWafGTH/BbBtEDNJFI6Pbbb68//elP9d5779W33npL6+rqNAiCpiy5aytxIrlQp06dqscdd5z6vr/C/WmP++V5ng4aNEj//ve/66JFi5rK1pZ63X333W0K7nj//fe3+vqZTKbNDtdl8bNqIms1CK0uXJjRN98I9Z77M3raaaFuMzjSpBeqMfGAjXHxv3MZy+MBJFitAwIdOrRYNXBqXaBBGOr0T0O96rpQe/VszC2H2RWWwooZMHFZ8ZMXPkHsl+E57dmzXm+62ekXsyINwnCtcGheU6zL6rtvp7Vbt1hkgFXfBLrjjg2qLt1Oy18tcRpGaX31tVA3H2RVyDYJACOqnme1qsrqYQeHOnlyNmc1CjrEGtR8zbRmGlUvvaxee/XKqDGB5tOsxGlfrFYmQx01KtT6xkA1WrV4ti7UefPSus22afWa6u20d49AZ3+ZUe2ASNii2vqNgKrK2LFjaWhoaO0pikrPnj3p1q0bxhiSySQVFRUkk0kqKyvxPA/P8zDGrJPbVVUVay0LFizgwQcf5LbbbmPGjBlYa5tiEbU1JlG8Jbb5HJ7nMWDAAM4++2wOOeQQevbsSUVFRcHqM2/ePCZOnNhU9jVl6NChDBgwoFXXd84xZswYMplMq76//LkOPfTQdgmJsDZjrRJFirVCJgOZDIQBZANBFbJW+WRyiJJYzTMqXdaz7L3XivFGCo2qkk7DV/PSjH48xf0POD6ZDksWCqAgBlXBSPy7Q/HUw+Fo1Z5yAVUXB7ATBXWABwKVlbDhhiFH/whOGGHo1cuQSgnGrHvvvZaown33NXLa6Uls4GEFPCwHHuF49O8hmOp2j/Wi6ljaAH+7J81VV1SwcIEgEqKazP8FqZSy0UDLeefDQYf6dKtVFA+VONaSiAXWKPrgN+MUNYpgyWQckz5KcvHFWf77hmHJYh9VUBXywUr9hMfBB2W4aZShXz/wTP4ZXL5PKU6VbOA4/EDDmHFxFEWRgFQlvPSSZfthFZB7DtoznkKbxU8pCwfnXHmAyREEAfPnz+fNN9/khRde4JlnnuHTTz9t+nxNuoExBlUlkUiwww47sNdee7HTTjsxdOhQamtr8bz4wSxk32hrX+vo75cpAs7FkcrWNFB9u91GBQWH4pzQ0BAy60ufDz8M+eCdBP9+VXnjjQYaMtWARSI/N5loxZVEEYn76QYDInb9ns9u31O2HmwYtLGjpouHnwQpxWA9RUQJuPpqwxW/NqhzOFU8z+OMnwb8/pYKvAJriNUqk8Zid8H8DDfeBLeNShDYRNNnAJ4oKhGVXSKGbulz0HCfo0+xrN/LYUhQyBB9ah2BDXn6X8JjD8Mr40PmLPCJIg9xXtN7z6lDTMhOOwm33ypsNVjx/eTXn1shk13ML85Kcte9HuLivzdexF//Zjj2WMXz4lha7U2bxE+ZtRNVxTnH4sWL+eyzz/jqq6/4/PPPmTdvHtOnT0fj5dBlvlNbW0ufPn0YOHAgvXr1ok+fPvTt25dEIlEWmGXKtALnQJ0yb2GGuV96zF3oUzc/y+xZSZYugpmfg40UXYXo3ngjQyIhDBwU0aO70LOHo29vpXNNEpGyWIf4XReGEaed5vPA/Vmcy6XOMY7rrjWcf0GAEQOrbT0scPkcTJ+pXHaJ8MTjEZm0wYjFYhDNW0lii4vvwyabObbdWvnhwT67fC+gSxcf3zdUphRVg6AIDhWHunhlA2vB83DOETlLmE5QHymT3ne8MEYZP97xznsejY1eLLxz735FEZQ4FYZly63ruea6FN/fs4JkKmdZXAWhgi+WKIq45KKI3/2uEjA4jRBRRl4UcdWvk/jJDlCfOcripwzAMstgK3tpOuealrla/rtMmTJtRENQHyuKiEJu0DP552sVb2gnFiEesERBxMX/6IBZdKmjajn8sIjHn/AxJkS1ApUGfvFzj+t/55EwxV8KXRXOxsZLAR78p+N31yjTPvRodBbRZrcMEUVdhMNiSMWiWCI855FMOPr3g179DL4X0aOnR2Unw6xZWTRK8tWcgFmfJ1m8ROIMXCYWSbHESeQET+46uXKJUWo7W04+3Wfk5SFdqjwSanCq37hk6lSxUZZTT7U88HeD2BRgUAIuvjzBry+O8BOCSMflvSmLnzJlypQps07jNKBxqfDDAzwmTIgQif1Y8By/uRwuHOmRqoj9WjpyTpcfjl8an+UfDyYZ/XjI/IUGZw0qDtTPWWMEVUfL5a+W/pdKC7eD5f8v/7u4nGg28U4MtRjP0LnaseXWhp+cJhxxaER1pzURhg7FEYUexx0b8uijyXglQRyewGFHWO67xyNV0fG+tmXxU6ZMmTJlvgVYMgHst49h4kSHc+DEIF7ASSdZfn+TR02N16HWCMgJIMmJiED4bJbHH2+3vDxOmDNXWVrvkWkENPYlg2ah01L85MlLjOXFT5y/zSdZHdKjq2HIVnDyT+F7O1s6VaZQAw6Htwb+RaoRdXWOM0+Hfz5pEVuJqmI85UeHC/feB37S5sRnxy7NlsVPmTJlypT51hCGsNdeEa9NdIgKET5GHLvvafnHQ4YePfzc0lLpLR86jXj3XeHtNx2TJwmTJikff6rU10MYClEEYRB7/uTxEw7PGFKVEUnfo19/y8abKIO3TLDddx07DDNUdRJEWu+7qViwwozPIw4Y7vHRZImd68XieYYDDoz4+98NFamOFZYtKYufMmXKlCnzrSII4KQTAx7+p+ByjsEqIZttEnL3vQm++12DSOmJn3jBy4J6qETEmdIjshkIsgarkGlcdunO9xXjCZWVUJkSMFkg2eJ8eX+f1lthbBTy8r+FY4+EuXUhuBSC4Kcsp58i/O5mSCahlPzRyuKnTJkyZcp86wgCOPeXGf78J4O1BtQgQEWlcvutcPyICM/zS1IElQaKOktg4bZblIsu9rBRLKJUIyoqPX51YZZLL0li/NLbEVwWP2XKlClT5ltJZDP88Xa47PIEDUu8eP+TOjxfOeAA4b57lc41ZfGzIooqzJ7tOOXkiBde8IlFTyxykpVZnn4yye57gSfSnrELV5vSk2NlypQpU6ZMO+B7FZx5ls/Dj0D/fhEqURzOw3o8NRqGDIUJ/7aoVVQdqraji9zhOA0IA+XB+yy77Q7jXkjgnKBOcGLZaIAybqzPXns5PFOawgfK4qdMmTJlynyL8Tyf7+9teP5Fx267a27bt2IVZnym7LMXnPVz+PLziG/7kKkoM2b4HH9CxMk/dsyYLrm4VPF29uOOcfznTcdOO4G2wYG6PSgve5UpU6ZMmW89qsqiRVn+do9w4UjFRV4cA0cNSES/fo4zTlfOv8DDS3gYlt1mvu7igJBsJslVV1v+8hf46iuT280VovhUVATcdZfHkUcakgmvw7exrw5l8VOmTJkyZcoQp5i1Dj78AE44yTH5PQ+rEUY8VB2JhLD1EMtvf+Px/X3jPGGlPsi3Fesc/3hQufRSZcbnsU8UmiB25XEM3V65+26PLTYVxDTHGir1dimLnzJlypQpU6YFqhGZrHDayY4HHgowpgp1uQFdQnzPZ+/9s9w2ymfghgYxpmR9W9aUOMhilsilmDZJOf20Bl77byVqc47fOTeeVNJyxlnKVdcoFclkh0bGbg1l8VOmTJkyZco0kY97Y1GFjz8N2GmnFIvrDM4pCHgoVhwA2w0NePSxJP37rRtWIHXKtA8jDjnSMO0TC84jzsuVQ5Ttd4x45FHo2ysJJsxlZS9tH5/lWbtKW6ZMmTJlyhSVvIDxEPHYZKMK5s0NuPf+gL79ItAAh0PUR9TnnXcr+c4GPgM2inj6CWhMN6KEoOA07NCafB2q2uTY7dSxaGHI3+6N6NrdsdlQj2kfC+oSKAZySVQHDLA88ljIfyYm6dvbQwwICdZGKVG2/JQpU6ZMmTKrwoHGGUDJZJQ777RccYVlyWJQlwQsYEAsokKqMuBHRyY462zDFptZKivjxKClZhWykaMxrbz3Plx9dcT4VwzptGCMh7MWEQ9V8LyIbt2F60cJxx0OXioOZCgqIMsmV12bKIufMmXKlClTZjVQVYQ0QZDiz3c6rr8B5sxx4HwcAhicOoRYFKRSylFHKz/+CQze2lJV6WF8n/aN+2dRa1AT4KxH4xKPtz5y3HxzxNNPJHAap8mQnIhRIsAhEjFgA4+LLo049ZQEIgZRj7XOuWcVlMVPmTJlypQps9rkhkwVspHl6acsN1wrvP2eIYoUwQccThXBxb+bgIqUYfsdhD32gL33itjoOyl69gTPy+fiUlBBxcXbyJFm96OVliH3geYydIlF8JrydanGSVznzXVM+Vh56hnHhBcSfPRBRBAJGAEXxy4SSaAoglJdLWy3Y5YLz/PYd18fTBz4UfBQlXVF+5TFT5kyZcqUKdNanIsIsj4vvxLx8IPKM88a5i8EZ/NGkvyykMTbxMUhntKrp8cm34FBm4QM2gw229Sjd1+lX19D125xWgiV3LdXUByCoFgXD9+RU76ao8yd65j5ueXjaSkmT1WmTYLPZijz5mpuC3oiJ6ziLesiguLwjNJnfccPh/uccLJl6LYeiaTF4K8zlp7lKYufMmXKlClTpg0oubQXqixpEB74m+WZ5wzvf+CYPcs05byKhYTLh0fMBQP0+P/27qU1iiAKoPCp6h5NfD9QExdudK0EMagg+gM0f1mXCRp160pBUZyFoBlfSXddFz1OHqKrEIh1vsVAQ8/Msg+3q6sjOlLb0NCTWzg6KlxebLm0EMzNJxYvBXPzw3cANr4Gn8aFbz9axh8K7973dF3LVimUkok+EbPnszoSLSn9ngkVoCHlwpUrPcu3Misr8Ohh5sSpQk4Jopn+1V9HT4ee8SNJ0j4ZgmbYMPH9uy3Wn2ZW1zKPn/Q8WwfKEYaBTZrthLx3R+Tty3JMP3dfptMsSNLsHNi9qHr6og6IQkotQceobbhzZ4v7Dxpu34abS3DhYpByAup6gavxI0nSPopgOmnZPv65mXj7tmNtrWFtNXj5ovDmdfBl0jDZGG5jRepJkSkRBHn4jcjsvUjPEieVHetwhj2IUiRyhmMngrOnN7l2reH6UsO9u8HycuL8hYa5o0yXZA8rff7P2c6/GT+SJB2AiDKb1SQSnzeC8UcYj+H5eubFy01evSpMNlq+Txq+bRW+TxJ92Z0nQ64UTp2B0Shx8nhw7nxw9WrhxvXgxlLDwkLh8uKI+fkCBCnn6YTpcD6avt+MH0mSDsT2Lao/j4cntAC6PtF3QddD3wV/7qUznDgaQc7QtEHb7LztdXj33zkoxo8kSaqKaShJkqpi/EiSpKoYP5IkqSrGjyRJqorxI0mSqmL8SJKkqhg/kiSpKsaPJEmqivEjSZKqYvxIkqSqGD+SJKkqxo8kSaqK8SNJkqpi/EiSpKoYP5IkqSrGjyRJqsovZEuJggXZMfAAAAAASUVORK5CYII=;" vertex="1" parent="1">
          <mxGeometry x="491.71" y="380" width="206.59" height="60" as="geometry" />
        </mxCell>
      </root>
    </mxGraphModel>
  </diagram>
</mxfile>
